<svg width="38" height="40" viewBox="0 0 38 40" fill="none" xmlns="http://www.w3.org/2000/svg">
<path d="M0.195748 35.1381L4.86239 39.8048C4.98739 39.9298 5.15704 40 5.33382 40C5.5106 40 5.68025 39.9298 5.80525 39.8048L8.94779 36.6622H8.94749C9.31564 36.6506 9.6826 36.6161 10.0463 36.5583C13.8061 38.5158 18.1202 39.1354 22.2786 38.3152C26.4375 37.4947 30.1933 35.2834 32.9285 32.0447C35.6633 28.8063 37.2145 24.7331 37.327 20.4958C37.4394 16.2583 36.1062 12.1088 33.5469 8.72975L36.4719 5.80474C36.5969 5.67974 36.6672 5.51039 36.6672 5.33331C36.6672 5.15653 36.5969 4.98718 36.4719 4.86188L31.8053 0.195237C31.68 0.0702397 31.5107 0 31.3339 0C31.1568 0 30.9874 0.0702382 30.8624 0.195237L27.5032 3.55446C23.6946 1.5086 19.2937 0.848187 15.0522 1.68575C10.8106 2.52353 6.99131 4.80748 4.24618 8.14735C1.50097 11.4875 0.000327711 15.6768 9.91404e-05 20.0003C-0.0126985 23.9086 1.21381 27.7198 3.50332 30.8871L0.195298 34.1951C0.0703005 34.3201 6.07756e-05 34.4897 6.07756e-05 34.6665C6.07756e-05 34.8433 0.0702989 35.0129 0.195298 35.1379L0.195748 35.1381ZM31.3339 1.60988L35.0577 5.33368L32.1958 8.19553C32.0708 8.32053 32.0006 8.49017 32.0006 8.66696C32.006 10.6256 31.2283 12.505 29.8408 13.8875L24.4711 19.2542C24.2244 19.5015 23.828 19.5155 23.564 19.286C23.3003 19.0566 23.2592 18.6622 23.4699 18.3833L25.9393 15.914L25.4678 15.4426L24.9973 14.9703L22.5905 17.367C22.5503 17.4069 22.5125 17.4485 22.4765 17.4911L21.2256 18.742C21.1009 18.8682 20.9309 18.9396 20.7533 18.9402C20.5759 18.9408 20.4053 18.8705 20.2801 18.745C20.1545 18.6194 20.0842 18.4491 20.0845 18.2714C20.0851 18.0941 20.1565 17.9241 20.2827 17.7991L24.0538 14.028L23.1107 13.0855L19.3396 16.8566C19.2152 16.984 19.0446 17.056 18.8667 17.0569C18.6887 17.0581 18.5176 16.9875 18.3917 16.8616C18.2655 16.7357 18.1952 16.5646 18.1964 16.3866C18.1973 16.2084 18.2696 16.0381 18.397 15.9137L22.1681 12.1426L21.2256 11.1998L17.4545 14.9709C17.3298 15.0971 17.1598 15.1685 16.9822 15.1691C16.8048 15.1697 16.6342 15.0991 16.5086 14.9739C16.3833 14.8483 16.3131 14.6777 16.3134 14.5003C16.314 14.323 16.3854 14.1527 16.5116 14.028L22.1684 8.37121C22.3366 8.20336 22.4024 7.95842 22.3414 7.72866C22.2803 7.4992 22.1018 7.31913 21.8723 7.25664L19.339 6.56557V6.56587C18.9759 6.46646 18.667 6.22658 18.4806 5.8992C18.2946 5.57152 18.2464 5.18343 18.3467 4.82035L27.2968 5.33255C27.4866 5.34386 27.6721 5.27303 27.8063 5.1385L31.3339 1.60988ZM18.6673 2.66702C20.8357 2.66762 22.9851 3.07417 25.0039 3.8658L17.9634 3.46282L17.9637 3.46312C17.7161 3.44913 17.4816 3.57323 17.3539 3.78544C16.9111 4.52353 16.8393 5.42619 17.1602 6.22505C17.481 7.02352 18.1575 7.62596 18.9878 7.85209L20.4128 8.24078L15.5685 13.0854C15.2018 13.4506 14.9914 13.9441 14.9816 14.4616C14.9718 14.9791 15.1634 15.4803 15.5158 15.8592C15.8685 16.2384 16.3545 16.4654 16.8711 16.4931C16.8973 16.9854 17.1048 17.4505 17.4536 17.7988C17.8024 18.147 18.2679 18.3538 18.7601 18.3788C18.7878 18.8958 19.0152 19.3815 19.394 19.7342C19.7726 20.0869 20.2735 20.2788 20.791 20.2696C21.3086 20.2604 21.8023 20.0508 22.1684 19.6848L22.2006 19.6526H22.2003C22.4827 20.2351 23.0288 20.6449 23.6669 20.7529C24.305 20.8609 24.9559 20.6538 25.414 20.1969L30.7838 14.8303C31.9791 13.6392 32.8005 12.1249 33.1473 10.4734C35.0056 13.3035 35.9972 16.6145 36.0005 20.0002C36.0005 29.5575 28.2245 37.3335 18.6672 37.3335C16.3821 37.3323 14.1196 36.8811 12.0089 36.0058C13.0645 35.5671 14.0234 34.9251 14.8309 34.1162L20.1976 28.7465C20.6544 28.2885 20.8616 27.6376 20.7533 26.9998C20.6452 26.3617 20.2354 25.8156 19.653 25.5334L19.6851 25.5013C20.0518 25.1358 20.2622 24.6424 20.272 24.1249C20.2819 23.6073 20.0902 23.1064 19.7378 22.7272C19.3851 22.3484 18.8991 22.121 18.3825 22.0933C18.3557 21.601 18.1482 21.1359 17.7997 20.7873C17.4509 20.4388 16.9857 20.2311 16.4934 20.2046C16.4655 19.6879 16.2378 19.2022 15.8589 18.8502C15.4798 18.4978 14.9789 18.3064 14.4616 18.3159C13.9443 18.3255 13.4509 18.5356 13.0852 18.9016L8.42445 23.5627L8.26939 22.0028C8.18189 21.1234 7.71641 20.3257 6.99381 19.8168C6.27119 19.3082 5.36288 19.1392 4.50575 19.3535C4.20902 19.4276 4.00069 19.6942 4.00069 20.0002V29.2428C2.24862 26.4794 1.32329 23.2723 1.33403 20.0002C1.33403 10.4429 9.11 2.66692 18.6673 2.66692L18.6673 2.66702ZM5.13897 31.1385C5.26396 31.0135 5.3342 30.8439 5.3342 30.6671V20.5986C5.74164 20.6203 6.12765 20.7873 6.42258 21.0691C6.71752 21.3509 6.90204 21.7289 6.94251 22.1348L7.23686 25.0955C7.24906 25.2181 7.29519 25.3351 7.37019 25.433L10.0008 28.8919V29.7243L8.86268 30.8625L9.80553 31.8053L11.1389 30.472C11.2639 30.3467 11.3341 30.1771 11.3341 30.0003V28.667C11.3341 28.5211 11.2862 28.3795 11.1981 28.2634L8.78324 25.0896L14.0282 19.8444H14.0285C14.2889 19.584 14.7109 19.584 14.9713 19.8444C15.2317 20.1048 15.2317 20.5268 14.9713 20.7872L11.2002 24.5586L12.1431 25.5015L15.9142 21.7304C16.0389 21.603 16.2091 21.5307 16.3871 21.5298C16.5654 21.5286 16.7362 21.5991 16.8624 21.725C16.9883 21.8509 17.0585 22.022 17.0573 22.2C17.0564 22.3783 16.9841 22.5485 16.8567 22.6729L13.0856 26.444L14.0285 27.3869L17.7996 23.6158C17.9243 23.4884 18.0945 23.4164 18.2725 23.4152C18.4508 23.4143 18.6219 23.4845 18.7478 23.6107C18.8737 23.7366 18.9439 23.9077 18.943 24.0857C18.9421 24.2637 18.8698 24.4342 18.7424 24.5586L17.4906 25.8104C17.4484 25.8465 17.4073 25.884 17.3674 25.9235L14.9704 28.3307L15.4427 28.8012L15.9141 29.2727L18.3832 26.8036V26.8033C18.4983 26.7158 18.6388 26.6685 18.7832 26.6685H18.784C19.0531 26.6685 19.2957 26.8307 19.3986 27.0792C19.5016 27.3277 19.4448 27.614 19.2546 27.8042L13.8885 33.1733H13.8888C12.5061 34.5614 10.6263 35.339 8.66742 35.3336C8.49064 35.3336 8.321 35.4039 8.196 35.5289L5.33414 38.3907L1.61035 34.6669L5.13897 31.1385Z" fill="white"/>
</svg>
