<svg width="40" height="45" viewBox="0 0 40 45" fill="none" xmlns="http://www.w3.org/2000/svg">
<g clip-path="url(#clip0_113_333)">
<path d="M0 43.5781C0.208727 43.232 0.514861 43.1128 0.914052 43.138C1.32977 43.1641 1.74809 43.1441 2.21686 43.1441C2.21686 42.4058 2.16903 41.6952 2.23338 40.996C2.27774 40.5081 2.38819 39.9845 2.62649 39.5662C3.00741 38.8965 3.6736 38.5947 4.45372 38.5939C6.21834 38.5913 7.98382 38.5878 9.74844 38.5991C10.0467 38.6008 10.3451 38.6782 10.6781 38.7252C10.6781 38.1512 10.6747 37.5746 10.6781 36.998C10.6868 35.6613 11.5861 34.7298 12.9194 34.6898C13.4977 34.6724 14.0769 34.6733 14.6553 34.6915C14.9127 34.6994 15.0379 34.6028 15.1449 34.3758C16.0181 32.5199 16.9061 30.6709 17.7801 28.8159C17.8636 28.6376 17.9158 28.4315 17.9262 28.2349C18.0106 26.7042 18.0175 25.1657 18.1793 23.6438C18.2802 22.6923 18.6028 21.7635 18.835 20.8268C18.9359 20.4207 19.0559 20.0189 19.1768 19.618C19.3169 19.1535 19.6247 18.9518 20.0013 19.0631C20.3866 19.1779 20.5457 19.5075 20.4231 19.9624C20.2405 20.6398 20.0491 21.3156 19.8378 22.0766C20.8371 21.667 21.7546 21.2965 22.6661 20.9103C22.7548 20.8729 22.8365 20.7546 22.8696 20.6572C23.2079 19.6597 23.5349 18.6595 23.8819 17.6116C23.7567 17.6116 23.6384 17.6481 23.574 17.6046C23.3731 17.4672 23.0757 17.3246 23.0339 17.1358C22.9879 16.9245 23.1113 16.581 23.2818 16.4357C23.6288 16.1392 24.0558 15.9357 24.4515 15.6956C26.057 14.7189 27.6625 13.7431 29.2679 12.7673C30.0828 12.2725 30.576 11.5741 30.6777 10.5383C30.5168 10.607 30.4029 10.6444 30.2994 10.7009C27.6833 12.1203 25.0699 13.5449 22.4521 14.9599C22.0486 15.1781 21.7624 15.4834 21.6172 15.9122C21.4598 16.3766 21.3276 16.8497 21.1771 17.3167C21.0397 17.7411 20.7275 17.9273 20.3561 17.8177C19.9857 17.709 19.8021 17.3767 19.9326 16.9584C20.177 16.1766 20.4483 15.4034 20.7205 14.592C19.9717 13.9397 19.623 12.9448 19.2142 11.9994C19.0881 11.7072 19.1307 11.3167 19.1734 10.9819C19.3073 9.933 20.5666 9.23811 21.5224 9.092C22.4295 8.95285 23.1931 9.42336 23.6758 10.3652C23.9967 10.9923 24.3037 11.6272 24.6342 12.2916C25.2456 11.962 25.8892 11.6167 26.5319 11.2689C27.5355 10.7244 28.5322 10.1687 29.5436 9.63991C29.8132 9.49902 29.9019 9.33378 29.9011 9.0346C29.8898 6.40203 29.8941 3.76859 29.895 1.13601C29.895 1.04904 29.895 0.962073 29.895 0.875973C29.9019 0.315018 30.1159 0.0201909 30.5255 0.00279696C30.9273 -0.0137273 31.1474 0.25327 31.2048 0.825531C31.2074 0.853361 31.2204 0.879452 31.2456 0.958594C31.3935 0.966422 31.5596 0.982076 31.7257 0.982076C34.04 0.983816 36.3551 0.982946 38.6694 0.982946C38.7998 0.982946 38.9303 0.978597 39.0599 0.987294C39.4886 1.01686 39.8008 1.21429 39.9452 1.63261C40.0852 2.03702 39.9591 2.3762 39.6556 2.64929C39.0546 3.19111 38.4432 3.72162 37.7945 4.29475C38.0058 4.48609 38.2006 4.66611 38.3998 4.84266C38.7459 5.14967 39.0903 5.45928 39.4443 5.75758C39.8287 6.08198 40.1339 6.4316 39.94 6.9856C39.78 7.44393 39.4425 7.62222 38.7398 7.62222C36.4108 7.62222 34.0817 7.62222 31.7527 7.62222C31.5831 7.62222 31.4135 7.62222 31.1978 7.62222C31.1978 7.9727 31.1804 8.27449 31.2074 8.57279C31.2161 8.66759 31.3422 8.75195 31.4144 8.84153C31.57 9.03113 31.8101 9.19811 31.8675 9.41379C32.1562 10.5027 31.9492 11.528 31.3839 12.4951C31.2865 12.6612 31.2039 12.8665 31.2039 13.0535C31.1934 16.641 31.1961 20.2285 31.1969 23.816C31.1969 23.9003 31.2091 23.9856 31.2195 24.1299H31.9944C32.9633 24.1299 33.933 24.1282 34.9018 24.1299C36.4638 24.1326 37.3579 25.0144 37.3596 26.5703C37.364 30.664 37.3613 34.7585 37.3613 38.8522C37.3613 40.1106 37.3613 41.3691 37.3613 42.6275V43.1441C37.8632 43.1441 38.3215 43.1528 38.7798 43.1415C39.1442 43.1328 39.4921 43.1572 39.6539 43.5485C39.813 43.9356 39.5843 44.2008 39.3269 44.4461C26.2179 44.4461 13.1098 44.4461 0.000869698 44.4461C0.000869698 44.1565 0.000869698 43.8677 0.000869698 43.5781H0ZM36.0377 43.125C36.0472 43.0059 36.0568 42.9337 36.0568 42.8624C36.0568 37.4093 36.0594 31.9563 36.0559 26.5033C36.0559 25.7545 35.7159 25.4336 34.9532 25.4319C33.3329 25.4284 31.7135 25.4301 30.0933 25.4319C29.2062 25.4319 28.9061 25.7389 28.9061 26.6399C28.9061 29.6917 28.9061 32.7434 28.9053 35.7952C28.9053 36.3266 28.6505 36.6371 28.2382 36.6275C27.8416 36.6179 27.6068 36.3196 27.6051 35.8082C27.6025 34.8533 27.6051 33.8993 27.6033 32.9443C27.6016 32.1233 27.2668 31.7885 26.444 31.7876C24.8673 31.7859 23.2914 31.7868 21.7146 31.7876C20.7371 31.7876 20.4414 32.0781 20.4414 33.0487C20.4405 36.2448 20.4414 39.4418 20.4414 42.638C20.4414 42.7936 20.4414 42.9493 20.4414 43.1146H27.6051C27.6051 42.9284 27.6051 42.771 27.6051 42.6136C27.6051 41.4995 27.5999 40.3863 27.6094 39.2722C27.6129 38.86 27.8764 38.6008 28.246 38.5965C28.6139 38.5921 28.8792 38.8522 28.9035 39.2566C28.9166 39.4731 28.907 39.6906 28.907 39.9071C28.907 40.9725 28.907 42.0387 28.907 43.1233H36.0385L36.0377 43.125ZM19.1003 43.1224C19.1142 43.0485 19.1325 42.9945 19.1325 42.9398C19.1342 40.9455 19.1438 38.9513 19.129 36.958C19.1247 36.3074 18.7602 35.9935 18.0584 35.99C16.3964 35.983 14.7353 35.983 13.0733 35.99C12.3001 35.9935 11.9801 36.3301 11.9792 37.1145C11.9775 38.9931 11.9783 40.8716 11.9792 42.7502C11.9792 42.8745 11.9949 42.9989 12.0036 43.1233H19.0994L19.1003 43.1224ZM29.8759 13.9945C29.7985 14.0041 29.7663 13.9997 29.7454 14.0128C28.4226 14.812 27.098 15.6078 25.7831 16.4192C25.6648 16.4923 25.5769 16.6549 25.53 16.7949C25.0734 18.1482 24.6342 19.5084 24.1732 20.8607C24.088 21.1104 24.1158 21.2782 24.2898 21.4808C25.0551 22.3671 25.7848 23.2837 26.5588 24.1621C27.2485 24.944 27.4964 25.7971 27.3102 26.8399C27.0989 28.0297 27.0015 29.2403 26.8519 30.4718C27.1102 30.5327 27.3398 30.5874 27.6033 30.6492C27.6033 29.1924 27.5955 27.7766 27.6059 26.3607C27.6146 25.1997 28.4269 24.2969 29.5758 24.1404C29.6715 24.1273 29.7663 24.1134 29.875 24.0986V13.9945H29.8759ZM37.9614 6.29332C37.951 6.24027 37.9553 6.20374 37.9397 6.18895C37.564 5.85064 37.1865 5.51407 36.8091 5.17837C36.1081 4.55479 36.109 4.04863 36.8152 3.41723C37.2048 3.06848 37.5962 2.72147 38.0049 2.35794C37.9214 2.31445 37.8979 2.29097 37.8736 2.29097C35.7498 2.28749 33.626 2.29097 31.5022 2.27966C31.1961 2.27793 31.1917 2.44404 31.1934 2.66581C31.1987 3.619 31.1952 4.57306 31.1952 5.52624C31.1952 5.7802 31.1952 6.03502 31.1952 6.29332H37.9614ZM10.6729 43.1241C10.6729 42.3075 10.6903 41.5291 10.6668 40.7516C10.6521 40.2776 10.3103 39.9184 9.83628 39.9132C8.01687 39.8941 6.1966 39.8949 4.37632 39.9106C3.92147 39.9141 3.57359 40.222 3.55445 40.6525C3.51967 41.4682 3.54402 42.2875 3.54402 43.125H10.6729V43.1241ZM16.4834 34.6194L16.5825 34.7281C16.7286 34.615 16.9087 34.5272 17.0174 34.3854C18.3558 32.6243 19.6917 30.8614 21.0049 29.082C21.2111 28.8028 21.3633 28.4497 21.4328 28.1088C21.6929 26.8356 21.9094 25.5536 22.1408 24.2743C22.2495 23.6751 22.3538 23.0759 22.473 22.4053C21.5233 22.7958 20.6614 23.1637 19.7874 23.5003C19.5282 23.6003 19.4517 23.7368 19.4404 24.0047C19.3803 25.4058 19.3212 26.8077 19.2099 28.2053C19.1734 28.6689 19.0438 29.1472 18.8516 29.5708C18.1428 31.1354 17.3896 32.6808 16.6547 34.2341C16.5947 34.3611 16.5417 34.4906 16.4851 34.6185L16.4834 34.6194ZM25.5387 30.4674C25.7213 28.9628 25.9048 27.4905 26.0718 26.0154C26.0883 25.8711 26.0405 25.6824 25.9527 25.5693C25.2465 24.6648 24.5229 23.7734 23.7358 22.7915C23.6132 23.4751 23.5523 24.0482 23.4001 24.5944C23.2653 25.0762 23.3531 25.3771 23.8228 25.5858C24.4759 25.8763 24.7072 26.4233 24.7551 27.1173C24.8307 28.1958 24.9664 29.2707 25.0795 30.3465C25.0838 30.3848 25.1125 30.4213 25.1334 30.4666H25.5395L25.5387 30.4674ZM21.8172 10.2896C21.4502 10.4574 21.1571 10.574 20.8823 10.7227C20.4179 10.974 20.2935 11.3419 20.5179 11.8089C20.7423 12.276 20.9797 12.7378 21.2293 13.1918C21.4685 13.6283 21.8372 13.7466 22.2869 13.5483C22.4713 13.4675 22.6513 13.3753 22.8252 13.2726C23.2392 13.0291 23.3679 12.6717 23.167 12.2455C22.9339 11.7507 22.6974 11.2541 22.4086 10.7905C22.279 10.5827 22.0207 10.4557 21.8172 10.2878V10.2896ZM23.7662 30.4605C23.6532 29.3046 23.5558 28.1975 23.4253 27.0939C23.4062 26.9312 23.2348 26.786 23.1348 26.6321C22.7574 28.0088 22.7539 29.4168 21.5415 30.4596H23.7662V30.4605ZM19.0925 34.8394V33.801C18.842 34.1393 18.6585 34.3871 18.4498 34.6689C18.6828 34.7307 18.8585 34.7768 19.0925 34.8394Z" fill="white"/>
</g>
<defs>
<clipPath id="clip0_113_333">
<rect width="40" height="44.4459" fill="white"/>
</clipPath>
</defs>
</svg>
