<svg width="52" height="57" viewBox="0 0 52 57" fill="none" xmlns="http://www.w3.org/2000/svg">
<path d="M51.6135 18.0288C51.4744 18.777 51.3712 19.5341 51.1883 20.2722C50.5905 22.685 49.3431 24.7321 47.397 26.2621C45.6774 27.6138 44.9337 29.3412 44.9225 31.4568C44.918 32.2397 44.9573 33.0238 44.9775 33.8067C45.0089 35.0148 44.2764 35.8056 43.0784 35.8123C40.9146 35.8247 38.7497 35.8224 36.586 35.8123C35.4138 35.8067 34.7037 35.1203 34.6667 33.9436C34.6286 32.7703 34.6835 31.5902 34.5871 30.4225C34.531 29.7349 34.2595 29.0642 34.0475 28.2363C33.5865 28.8802 33.2343 29.3771 32.8765 29.8695C32.7564 30.0356 32.6465 30.2274 32.4861 30.3429C31.5091 31.0518 31.4519 32.0378 31.4396 33.1449C31.4283 34.2094 31.766 34.943 32.4547 35.7518C33.702 37.2178 35.1513 38.1556 37.0279 38.5931C38.6376 38.9677 40.199 39.5544 41.7806 40.0502C45.5047 41.2179 47.7963 43.717 48.6521 47.5151C49.1603 49.7698 49.6123 52.0367 50.0745 54.3003C50.3235 55.5174 49.5607 56.4394 48.3055 56.4428C45.1154 56.4506 41.9242 56.4462 38.734 56.4462C26.55 56.4462 14.3672 56.426 2.18432 56.4697C0.502882 56.4753 -0.249784 55.2269 0.0732677 53.9077C0.615052 51.7013 0.960541 49.4467 1.4855 47.2358C2.33463 43.6576 4.5085 41.2223 8.02393 40.0715C10.4659 39.2717 12.9325 38.5471 15.3823 37.772C15.6347 37.6923 15.8893 37.5342 16.0744 37.3446C16.8316 36.5717 17.5753 35.7843 18.292 34.9744C18.4569 34.7882 18.5758 34.4966 18.5859 34.2476C18.6218 33.4097 18.7946 32.5033 18.5422 31.7473C18.3033 31.0294 17.591 30.4708 17.0974 29.8348C15.2242 27.4197 13.9892 24.7198 13.84 21.6486C13.7211 19.1965 13.6639 16.7187 14.4681 14.3328C15.7559 10.5156 18.5164 8.39334 22.3661 7.62834C25.4698 7.0114 28.5242 7.23686 31.4687 8.49429C31.6045 8.55262 31.8692 8.49542 31.9813 8.39222C38.4962 2.37763 49.3039 5.70124 51.3297 14.7579C51.4474 15.2829 51.5181 15.8179 51.6112 16.3474V18.0277L51.6135 18.0288ZM15.7839 39.5162C13.3677 40.2577 10.9875 40.9958 8.60273 41.7193C6.08674 42.4831 4.38847 44.132 3.4855 46.565C3.13216 47.5185 2.96615 48.5437 2.74966 49.5443C2.38398 51.2313 2.04523 52.9251 1.68965 54.6368H8.73397C8.73397 53.0474 8.72948 51.5017 8.73621 49.956C8.73845 49.3121 9.05814 48.9565 9.60778 48.952C10.154 48.9475 10.485 49.302 10.5007 49.9436C10.5164 50.5404 10.504 51.1382 10.5051 51.735C10.5051 52.6985 10.5051 53.6632 10.5051 54.6402H39.5147C39.5147 54.399 39.5147 54.1982 39.5147 53.9963C39.5147 52.6346 39.5091 51.2717 39.5181 49.91C39.5226 49.3065 39.8468 48.961 40.3751 48.952C40.9012 48.9431 41.2534 49.2807 41.2713 49.8808C41.296 50.7008 41.2803 51.523 41.2803 52.3441C41.2803 53.1035 41.2803 53.8617 41.2803 54.6447H48.2697C48.2596 54.4977 48.2663 54.3833 48.2427 54.2768C47.7626 51.9975 47.333 49.7058 46.7812 47.4445C46.1766 44.9677 44.678 43.1371 42.365 42.0535C41.5125 41.6542 40.5703 41.4422 39.665 41.1595C37.8905 40.6076 36.1126 40.0659 34.3123 39.5129C33.877 40.2016 33.4586 40.86 33.0425 41.5207C32.199 42.8623 31.3655 44.2094 30.5119 45.5454C30.0352 46.2913 29.5035 46.3362 28.8686 45.7193C28.7217 45.5757 28.5781 45.4287 28.4334 45.2829C27.3162 44.1612 26.1989 43.0395 25.0627 41.8987C24.8922 42.0614 24.7564 42.1848 24.6274 42.3138C23.5057 43.4343 22.3885 44.5605 21.2612 45.6766C20.6499 46.2824 20.0026 46.2117 19.5472 45.4938C18.7385 44.2184 17.9398 42.9374 17.1356 41.6587C16.6902 40.9509 16.2438 40.2453 15.7839 39.5173V39.5162ZM38.8103 30.3451C38.8103 30.0961 38.8103 29.8785 38.8103 29.662C38.8103 26.5829 38.8081 23.505 38.8114 20.4259C38.8125 19.404 39.4676 19.0339 40.3616 19.5431C40.7666 19.7742 41.1479 20.0501 41.5675 20.2464C41.7469 20.3305 42.0341 20.335 42.2091 20.2475C42.7082 19.9996 43.167 19.671 43.6561 19.4029C44.1743 19.1191 44.6522 19.2515 44.9045 19.7136C45.1625 20.187 45.0246 20.6368 44.5265 20.9486C43.9903 21.2851 43.4385 21.6003 42.9236 21.9671C42.3201 22.3979 41.7481 22.4853 41.1446 21.9884C41.0223 21.8886 40.8642 21.8336 40.6869 21.7394V30.2218H43.2175C43.5125 27.8538 44.8608 26.1859 46.5703 24.6121C51.8367 19.7663 50.5254 11.2526 44.1182 8.14208C40.503 6.38661 36.0184 6.98896 33.324 9.59132C33.3397 9.62498 33.3476 9.66648 33.3711 9.69003C33.4508 9.76855 33.536 9.84034 33.6202 9.91325C35.1401 11.2301 36.0745 12.869 36.1922 14.8903C36.2719 16.2655 36.199 17.6485 36.2382 19.026C36.3089 21.5386 35.9757 23.9694 34.9202 26.2778C34.8395 26.4539 34.863 26.7602 34.9662 26.9239C35.5596 27.8673 35.9701 28.8712 36.1911 29.9649C36.2203 30.1118 36.4536 30.316 36.6017 30.3238C37.2893 30.362 37.9802 30.3407 38.8069 30.3407L38.8103 30.3451ZM28.2853 16.4393C25.831 18.1185 23.2175 18.3698 20.4704 17.3165C19.333 19.4781 18.1148 21.5005 15.6695 22.3294C15.6628 22.4057 15.6515 22.4607 15.656 22.5145C15.6639 22.6256 15.6695 22.7389 15.693 22.8477C16.4345 26.2038 18.0318 29.0473 20.8035 31.1382C23.4362 33.1236 26.421 33.1203 29.0952 31.1853C31.1502 29.6979 32.559 27.7046 33.4687 25.3636C33.8097 24.4842 34.0105 23.5465 34.2315 22.6256C34.273 22.4517 34.1676 22.1096 34.0341 22.0456C32.2719 21.1999 30.9258 19.874 29.7256 18.3777C29.2264 17.7562 28.7721 17.0989 28.2864 16.4416L28.2853 16.4393ZM15.5955 20.5515C16.1765 20.0266 16.743 19.6609 17.112 19.1516C17.8187 18.1757 18.467 17.1471 19.0368 16.0849C19.5786 15.0742 19.8837 14.9183 20.9112 15.4522C23.2096 16.6446 25.923 16.2644 27.7469 14.4954C28.4704 13.7932 28.9987 13.8886 29.4912 14.7938C30.3919 16.4483 31.5484 17.9043 32.9752 19.1348C33.416 19.5151 33.9129 19.8303 34.4839 20.2475C34.4839 18.6738 34.4839 17.2593 34.4839 15.8448C34.4816 12.9665 33.213 11.1157 30.5231 10.0467C28.4917 9.23911 26.365 8.99009 24.209 9.09329C17.0223 9.43765 15.0424 15.4287 15.5943 20.5515H15.5955ZM25.1782 39.2179C25.1344 39.2773 25.0918 39.3368 25.0481 39.3962C25.1816 39.2695 25.3173 39.1472 25.4463 39.0171C26.6476 37.7955 27.7963 36.5157 29.066 35.3704C29.8591 34.6547 29.7245 33.8651 29.674 32.915C26.5556 34.8757 23.4822 34.8656 20.375 32.9015C20.375 33.4725 20.3605 33.9357 20.3829 34.3979C20.3896 34.5482 20.4524 34.7344 20.5579 34.8342C22.0913 36.3025 23.6358 37.7585 25.1782 39.2179ZM32.7205 38.5426C32.0038 37.7675 31.3151 37.0227 30.7531 36.4158C29.2421 37.8404 27.7682 39.2302 26.3661 40.5538C27.4429 41.6351 28.4726 42.6705 29.5226 43.7249C30.5601 42.0434 31.6235 40.3194 32.7205 38.5415V38.5426ZM19.2859 36.4685C18.7317 37.0687 18.0912 37.7417 17.4855 38.445C17.4003 38.5437 17.4227 38.8286 17.5035 38.9632C18.061 39.9088 18.6476 40.8376 19.2242 41.772C19.6583 42.4764 20.0924 43.1797 20.4782 43.8045C21.5484 42.7512 22.5927 41.7237 23.7043 40.6301C22.264 39.2728 20.8002 37.8942 19.287 36.4685H19.2859ZM36.3526 34.0098H43.0761V32.0681H36.3526V34.0098Z" fill="#233E8B"/>
<path d="M45.6967 1.24243C46.4706 1.25253 46.8722 1.82235 46.6512 2.43256C46.419 3.07642 46.1319 3.70234 45.8436 4.32488C45.6361 4.77244 45.2682 4.94743 44.787 4.78366C44.3439 4.63223 44.0836 4.16336 44.253 3.70121C44.5076 3.00576 44.7971 2.31927 45.1414 1.66419C45.2592 1.44097 45.5822 1.32544 45.6967 1.24355V1.24243Z" fill="#233E8B"/>
<path d="M40.6455 1.78424C40.6455 2.11963 40.6634 2.45615 40.641 2.79042C40.6085 3.28733 40.2966 3.57785 39.8143 3.59132C39.3118 3.6059 38.9528 3.3737 38.9214 2.87006C38.8754 2.14768 38.8754 1.41745 38.9293 0.696189C38.9674 0.188055 39.351 -0.0284344 39.8435 0.00297342C40.3179 0.0321378 40.6006 0.303591 40.6376 0.779195C40.6634 1.11234 40.6432 1.44885 40.6432 1.78424C40.6432 1.78424 40.6444 1.78424 40.6455 1.78424Z" fill="#233E8B"/>
<path d="M35.3857 3.92554C35.3409 4.42806 35.0817 4.70064 34.6701 4.80832C34.255 4.91601 33.9556 4.76121 33.7873 4.34281C33.5383 3.72363 33.2601 3.11567 33.0066 2.49761C32.7766 1.93675 32.9438 1.51387 33.4541 1.31533C33.9365 1.128 34.2909 1.30972 34.5321 1.86833C34.7665 2.41348 35.0032 2.95863 35.2354 3.5049C35.2993 3.65745 35.3487 3.81561 35.388 3.92554H35.3857Z" fill="#233E8B"/>
<path d="M24.096 48.215V46.5234H25.8167V48.215H24.096Z" fill="#233E8B"/>
<path d="M24.1049 50.5515H25.8054V52.2565H24.1049V50.5515Z" fill="#233E8B"/>
</svg>
