<svg width="23" height="40" viewBox="0 0 23 40" fill="none" xmlns="http://www.w3.org/2000/svg">
<path fill-rule="evenodd" clip-rule="evenodd" d="M7.75536 1.50653C7.2427 0.872093 6.45937 0.465612 5.58135 0.465612C4.0409 0.465612 2.79067 1.71583 2.79067 3.25629V6.51196C2.15436 6.51196 1.56166 6.79103 1.08453 7.28127C0.434523 7.94841 0 9.01986 0 10.233V14.419C0 18.1493 2.13008 21.2524 4.95903 22.0981C4.67435 24.8368 3.72069 34.3786 3.72069 39.535C3.72069 39.7916 3.92936 40 4.186 40H19.9996C20.2565 40 20.4649 39.7916 20.4649 39.535C20.4649 33.7537 19.2016 22.4601 19.0845 21.4195C20.9978 20.1005 22.3253 17.4706 22.3253 14.4185V3.72069C22.3253 2.18023 21.0751 0.930012 19.5346 0.930012C18.6566 0.930012 17.8733 1.33678 17.3606 1.97093C16.8956 1.07608 15.9606 0.465006 14.8836 0.465006C14.0053 0.465006 13.222 0.871464 12.7096 1.50593C12.2443 0.611078 11.3095 0 10.2323 0C9.15523 0 8.22027 0.611086 7.75527 1.50593L7.75536 1.50653ZM6.97672 10.6982C8.28171 10.6982 9.30238 9.42965 9.30238 7.90754C9.30238 7.6509 9.09402 7.44253 8.83707 7.44253H2.79071C2.39983 7.44253 2.04383 7.62941 1.75075 7.9309C1.24556 8.44917 0.930051 9.29012 0.930051 10.2332V14.4192C0.930051 18.2461 3.40179 21.3959 6.51172 21.3959H7.44173C7.69869 21.3959 7.90705 21.6043 7.90705 21.8609C7.90705 22.1179 7.69868 22.3262 7.44173 22.3262H6.51172C6.29681 22.3262 6.0847 22.3131 5.87447 22.2879C5.58792 25.0453 4.70589 33.9131 4.65383 39.0702H19.5321C19.4745 33.6477 18.4495 24.1234 18.2037 21.9148C17.7546 22.1129 17.2819 22.244 16.7953 22.2979C16.5396 22.3259 16.3098 22.1415 16.282 21.8858C16.254 21.631 16.4381 21.4012 16.6932 21.3731C19.3611 21.0794 21.3953 18.0514 21.3953 14.4189V11.3818C20.9016 11.8244 20.2494 12.0932 19.535 12.0932C18.5648 12.0932 17.7089 11.5964 17.2093 10.8449C16.71 11.5964 15.8541 12.0932 14.8839 12.0932C13.9137 12.0932 13.0579 11.5964 12.5583 10.8449C12.1714 11.4264 11.5732 11.8553 10.8726 12.0197C11.907 12.9556 12.5583 14.3102 12.5583 15.8142C12.5583 16.0708 12.3499 16.2792 12.0933 16.2792C11.8363 16.2792 11.6279 16.0708 11.6279 15.8142C11.6279 13.5035 9.75261 11.6282 7.44194 11.6282H6.0466V13.4885C6.0466 13.7455 5.83823 13.9538 5.58159 13.9538C5.32495 13.9538 5.11659 13.7455 5.11659 13.4885V11.6282H4.18626C3.92961 11.6282 3.72094 11.4198 3.72094 11.1632C3.72094 10.9062 3.92962 10.6979 4.18626 10.6979L6.97672 10.6982ZM11.6277 32.5588V23.7219C11.6277 22.438 10.5859 21.3962 9.30238 21.3962C9.04543 21.3962 8.83707 21.6046 8.83707 21.8612C8.83707 22.1182 9.04543 22.3265 9.30238 22.3265C10.0726 22.3265 10.6977 22.9516 10.6977 23.7219V32.5588C10.6977 32.8154 10.9061 33.0238 11.1627 33.0238C11.4194 33.0238 11.6277 32.8154 11.6277 32.5588ZM13.4884 31.6284V23.7217C13.4884 22.9515 14.1135 22.3264 14.8837 22.3264C15.1404 22.3264 15.3487 22.118 15.3487 21.8611C15.3487 21.6044 15.1404 21.3961 14.8837 21.3961C13.5999 21.3961 12.5581 22.4379 12.5581 23.7217V31.6284C12.5581 31.8854 12.7664 32.0938 13.0231 32.0938C13.28 32.0938 13.4884 31.8854 13.4884 31.6284ZM12.0931 2.792C12.0931 1.76479 11.2596 0.931335 10.2324 0.931335C9.20551 0.931335 8.37205 1.76479 8.37205 2.792V6.51268H8.83706C9.6073 6.51268 10.2324 7.13778 10.2324 7.90802C10.2324 9.14732 9.70323 10.2346 8.8975 10.9089C9.13109 10.9787 9.35721 11.0634 9.57492 11.164H10.2324C11.2596 11.164 12.0931 10.3306 12.0931 9.30337L12.0931 2.792ZM16.7441 3.257C16.7441 2.23012 15.9106 1.39666 14.8837 1.39666C13.8565 1.39666 13.0231 2.23012 13.0231 3.257V9.30336C13.0231 10.3306 13.8565 11.164 14.8837 11.164C15.9106 11.164 16.7441 10.3306 16.7441 9.30336V3.257ZM21.3951 9.30336V3.72201C21.3951 2.69512 20.5616 1.86167 19.5347 1.86167C18.5079 1.86167 17.6744 2.69512 17.6744 3.72201V9.30336C17.6744 10.3306 18.5079 11.164 19.5347 11.164C20.5616 11.164 21.3951 10.3306 21.3951 9.30336ZM7.44172 3.257C7.44172 2.23012 6.60827 1.39666 5.58138 1.39666C4.55449 1.39666 3.72072 2.23012 3.72072 3.257V6.51268H7.44172V3.257Z" fill="white"/>
</svg>
