<svg width="431" height="268" viewBox="0 0 431 268" fill="none" xmlns="http://www.w3.org/2000/svg">
<path d="M34.6731 262.975H26.1171L24.3461 267H21.9771L29.2681 250.9H31.5451L38.8591 267H36.4441L34.6731 262.975ZM33.8681 261.135L30.3951 253.246L26.9221 261.135H33.8681Z" fill="white"/>
<path d="M47.4478 254.695C48.9964 254.695 50.2231 255.147 51.1278 256.052C52.0478 256.941 52.5078 258.252 52.5078 259.985V267H50.2998V260.238C50.2998 259.057 50.0161 258.168 49.4488 257.57C48.8814 256.972 48.0688 256.673 47.0108 256.673C45.8148 256.673 44.8718 257.026 44.1818 257.731C43.4918 258.421 43.1468 259.418 43.1468 260.721V267H40.9388V254.81H43.0548V256.65C43.4994 256.021 44.0974 255.538 44.8488 255.201C45.6154 254.864 46.4818 254.695 47.4478 254.695Z" fill="white"/>
<path d="M63.0928 250.9H65.3928V267H63.0928V250.9Z" fill="white"/>
<path d="M76.3999 254.695C77.9486 254.695 79.1752 255.147 80.0799 256.052C80.9999 256.941 81.4599 258.252 81.4599 259.985V267H79.2519V260.238C79.2519 259.057 78.9682 258.168 78.4009 257.57C77.8336 256.972 77.0209 256.673 75.9629 256.673C74.7669 256.673 73.8239 257.026 73.1339 257.731C72.4439 258.421 72.0989 259.418 72.0989 260.721V267H69.8909V254.81H72.0069V256.65C72.4516 256.021 73.0496 255.538 73.8009 255.201C74.5676 254.864 75.4339 254.695 76.3999 254.695Z" fill="white"/>
<path d="M85.5462 254.81H87.7542V267H85.5462V254.81ZM86.6502 252.464C86.2208 252.464 85.8605 252.326 85.5692 252.05C85.2932 251.774 85.1552 251.437 85.1552 251.038C85.1552 250.639 85.2932 250.302 85.5692 250.026C85.8605 249.735 86.2208 249.589 86.6502 249.589C87.0795 249.589 87.4322 249.727 87.7082 250.003C87.9995 250.264 88.1452 250.593 88.1452 250.992C88.1452 251.406 87.9995 251.759 87.7082 252.05C87.4322 252.326 87.0795 252.464 86.6502 252.464Z" fill="white"/>
<path d="M98.824 266.287C98.502 266.563 98.1033 266.778 97.628 266.931C97.1527 267.069 96.662 267.138 96.156 267.138C94.9293 267.138 93.9787 266.808 93.304 266.149C92.6293 265.49 92.292 264.547 92.292 263.32V256.627H90.222V254.81H92.292V252.142H94.5V254.81H97.996V256.627H94.5V263.228C94.5 263.887 94.661 264.393 94.983 264.746C95.3203 265.099 95.7957 265.275 96.409 265.275C97.0837 265.275 97.6587 265.083 98.134 264.7L98.824 266.287Z" fill="white"/>
<path d="M101.493 254.81H103.701V267H101.493V254.81ZM102.597 252.464C102.168 252.464 101.808 252.326 101.516 252.05C101.24 251.774 101.102 251.437 101.102 251.038C101.102 250.639 101.24 250.302 101.516 250.026C101.808 249.735 102.168 249.589 102.597 249.589C103.027 249.589 103.379 249.727 103.655 250.003C103.947 250.264 104.092 250.593 104.092 250.992C104.092 251.406 103.947 251.759 103.655 252.05C103.379 252.326 103.027 252.464 102.597 252.464Z" fill="white"/>
<path d="M112.356 254.695C114.043 254.695 115.331 255.109 116.22 255.937C117.125 256.765 117.577 257.999 117.577 259.64V267H115.484V265.39C115.116 265.957 114.587 266.394 113.897 266.701C113.223 266.992 112.418 267.138 111.482 267.138C110.118 267.138 109.021 266.808 108.193 266.149C107.381 265.49 106.974 264.623 106.974 263.55C106.974 262.477 107.365 261.618 108.147 260.974C108.929 260.315 110.171 259.985 111.873 259.985H115.369V259.548C115.369 258.597 115.093 257.869 114.541 257.363C113.989 256.857 113.177 256.604 112.103 256.604C111.383 256.604 110.677 256.727 109.987 256.972C109.297 257.202 108.715 257.516 108.239 257.915L107.319 256.259C107.948 255.753 108.699 255.37 109.573 255.109C110.447 254.833 111.375 254.695 112.356 254.695ZM111.85 265.436C112.694 265.436 113.422 265.252 114.035 264.884C114.649 264.501 115.093 263.964 115.369 263.274V261.572H111.965C110.095 261.572 109.159 262.201 109.159 263.458C109.159 264.071 109.397 264.554 109.872 264.907C110.348 265.26 111.007 265.436 111.85 265.436Z" fill="white"/>
<path d="M128.517 266.287C128.195 266.563 127.797 266.778 127.321 266.931C126.846 267.069 126.355 267.138 125.849 267.138C124.623 267.138 123.672 266.808 122.997 266.149C122.323 265.49 121.985 264.547 121.985 263.32V256.627H119.915V254.81H121.985V252.142H124.193V254.81H127.689V256.627H124.193V263.228C124.193 263.887 124.354 264.393 124.676 264.746C125.014 265.099 125.489 265.275 126.102 265.275C126.777 265.275 127.352 265.083 127.827 264.7L128.517 266.287Z" fill="white"/>
<path d="M131.187 254.81H133.395V267H131.187V254.81ZM132.291 252.464C131.861 252.464 131.501 252.326 131.21 252.05C130.934 251.774 130.796 251.437 130.796 251.038C130.796 250.639 130.934 250.302 131.21 250.026C131.501 249.735 131.861 249.589 132.291 249.589C132.72 249.589 133.073 249.727 133.349 250.003C133.64 250.264 133.786 250.593 133.786 250.992C133.786 251.406 133.64 251.759 133.349 252.05C133.073 252.326 132.72 252.464 132.291 252.464Z" fill="white"/>
<path d="M148.398 254.81L143.062 267H140.808L135.472 254.81H137.772L141.958 264.585L146.236 254.81H148.398Z" fill="white"/>
<path d="M161.138 260.974C161.138 261.143 161.123 261.365 161.092 261.641H151.202C151.34 262.714 151.808 263.581 152.605 264.24C153.418 264.884 154.422 265.206 155.618 265.206C157.075 265.206 158.248 264.715 159.137 263.734L160.356 265.16C159.804 265.804 159.114 266.295 158.286 266.632C157.474 266.969 156.561 267.138 155.549 267.138C154.261 267.138 153.119 266.877 152.122 266.356C151.126 265.819 150.351 265.076 149.799 264.125C149.263 263.174 148.994 262.101 148.994 260.905C148.994 259.724 149.255 258.659 149.776 257.708C150.313 256.757 151.041 256.021 151.961 255.5C152.897 254.963 153.947 254.695 155.112 254.695C156.278 254.695 157.313 254.963 158.217 255.5C159.137 256.021 159.85 256.757 160.356 257.708C160.878 258.659 161.138 259.747 161.138 260.974ZM155.112 256.558C154.054 256.558 153.165 256.88 152.444 257.524C151.739 258.168 151.325 259.011 151.202 260.054H159.022C158.9 259.027 158.478 258.191 157.757 257.547C157.052 256.888 156.17 256.558 155.112 256.558Z" fill="white"/>
<path d="M175.602 267.138C174.391 267.138 173.302 266.87 172.336 266.333C171.37 265.796 170.611 265.06 170.059 264.125C169.522 263.174 169.254 262.101 169.254 260.905C169.254 259.709 169.522 258.643 170.059 257.708C170.611 256.757 171.37 256.021 172.336 255.5C173.302 254.963 174.391 254.695 175.602 254.695C176.813 254.695 177.894 254.963 178.845 255.5C179.811 256.021 180.562 256.757 181.099 257.708C181.651 258.643 181.927 259.709 181.927 260.905C181.927 262.101 181.651 263.174 181.099 264.125C180.562 265.06 179.811 265.796 178.845 266.333C177.894 266.87 176.813 267.138 175.602 267.138ZM175.602 265.206C176.384 265.206 177.082 265.03 177.695 264.677C178.324 264.309 178.814 263.803 179.167 263.159C179.52 262.5 179.696 261.748 179.696 260.905C179.696 260.062 179.52 259.318 179.167 258.674C178.814 258.015 178.324 257.509 177.695 257.156C177.082 256.803 176.384 256.627 175.602 256.627C174.82 256.627 174.115 256.803 173.486 257.156C172.873 257.509 172.382 258.015 172.014 258.674C171.661 259.318 171.485 260.062 171.485 260.905C171.485 261.748 171.661 262.5 172.014 263.159C172.382 263.803 172.873 264.309 173.486 264.677C174.115 265.03 174.82 265.206 175.602 265.206Z" fill="white"/>
<path d="M189.443 251.613C188.124 251.613 187.465 252.326 187.465 253.752V254.81H191.007V256.627H187.511V267H185.303V256.627H183.233V254.81H185.303V253.729C185.303 252.518 185.655 251.559 186.361 250.854C187.066 250.149 188.055 249.796 189.328 249.796C189.818 249.796 190.278 249.857 190.708 249.98C191.137 250.103 191.505 250.279 191.812 250.509L191.145 252.188C190.639 251.805 190.071 251.613 189.443 251.613Z" fill="white"/>
<path d="M199.082 250.9H202.808V267H199.082V250.9Z" fill="white"/>
<path d="M218.98 249.934V267H215.553V265.574C214.663 266.647 213.375 267.184 211.689 267.184C210.523 267.184 209.465 266.923 208.515 266.402C207.579 265.881 206.843 265.137 206.307 264.171C205.77 263.205 205.502 262.086 205.502 260.813C205.502 259.54 205.77 258.421 206.307 257.455C206.843 256.489 207.579 255.745 208.515 255.224C209.465 254.703 210.523 254.442 211.689 254.442C213.268 254.442 214.502 254.94 215.392 255.937V249.934H218.98ZM212.31 264.24C213.214 264.24 213.966 263.933 214.564 263.32C215.162 262.691 215.461 261.856 215.461 260.813C215.461 259.77 215.162 258.942 214.564 258.329C213.966 257.7 213.214 257.386 212.31 257.386C211.39 257.386 210.631 257.7 210.033 258.329C209.435 258.942 209.136 259.77 209.136 260.813C209.136 261.856 209.435 262.691 210.033 263.32C210.631 263.933 211.39 264.24 212.31 264.24Z" fill="white"/>
<path d="M234.422 260.859C234.422 260.905 234.399 261.227 234.353 261.825H224.992C225.16 262.592 225.559 263.197 226.188 263.642C226.816 264.087 227.598 264.309 228.534 264.309C229.178 264.309 229.745 264.217 230.236 264.033C230.742 263.834 231.209 263.527 231.639 263.113L233.548 265.183C232.382 266.517 230.68 267.184 228.442 267.184C227.046 267.184 225.812 266.916 224.739 266.379C223.665 265.827 222.837 265.068 222.255 264.102C221.672 263.136 221.381 262.04 221.381 260.813C221.381 259.602 221.664 258.513 222.232 257.547C222.814 256.566 223.604 255.807 224.601 255.27C225.613 254.718 226.74 254.442 227.982 254.442C229.193 254.442 230.289 254.703 231.271 255.224C232.252 255.745 233.019 256.497 233.571 257.478C234.138 258.444 234.422 259.571 234.422 260.859ZM228.005 257.156C227.192 257.156 226.51 257.386 225.958 257.846C225.406 258.306 225.068 258.935 224.946 259.732H231.041C230.918 258.95 230.581 258.329 230.029 257.869C229.477 257.394 228.802 257.156 228.005 257.156Z" fill="white"/>
<path d="M241.464 254.442C243.381 254.442 244.853 254.902 245.88 255.822C246.908 256.727 247.421 258.099 247.421 259.939V267H244.063V265.459C243.389 266.609 242.131 267.184 240.291 267.184C239.341 267.184 238.513 267.023 237.807 266.701C237.117 266.379 236.588 265.934 236.22 265.367C235.852 264.8 235.668 264.156 235.668 263.435C235.668 262.285 236.098 261.38 236.956 260.721C237.83 260.062 239.172 259.732 240.981 259.732H243.833C243.833 258.95 243.596 258.352 243.12 257.938C242.645 257.509 241.932 257.294 240.981 257.294C240.322 257.294 239.67 257.401 239.026 257.616C238.398 257.815 237.861 258.091 237.416 258.444L236.128 255.937C236.803 255.462 237.608 255.094 238.543 254.833C239.494 254.572 240.468 254.442 241.464 254.442ZM241.188 264.769C241.802 264.769 242.346 264.631 242.821 264.355C243.297 264.064 243.634 263.642 243.833 263.09V261.825H241.372C239.9 261.825 239.164 262.308 239.164 263.274C239.164 263.734 239.341 264.102 239.693 264.378C240.061 264.639 240.56 264.769 241.188 264.769Z" fill="white"/>
<path d="M254.832 267.184C253.804 267.184 252.8 267.061 251.819 266.816C250.837 266.555 250.055 266.233 249.473 265.85L250.669 263.274C251.221 263.627 251.888 263.918 252.67 264.148C253.452 264.363 254.218 264.47 254.97 264.47C256.488 264.47 257.247 264.094 257.247 263.343C257.247 262.99 257.04 262.737 256.626 262.584C256.212 262.431 255.575 262.3 254.717 262.193C253.705 262.04 252.869 261.863 252.21 261.664C251.55 261.465 250.975 261.112 250.485 260.606C250.009 260.1 249.772 259.379 249.772 258.444C249.772 257.662 249.994 256.972 250.439 256.374C250.899 255.761 251.558 255.285 252.417 254.948C253.291 254.611 254.318 254.442 255.499 254.442C256.373 254.442 257.239 254.542 258.098 254.741C258.972 254.925 259.692 255.186 260.26 255.523L259.064 258.076C257.975 257.463 256.787 257.156 255.499 257.156C254.732 257.156 254.157 257.263 253.774 257.478C253.39 257.693 253.199 257.969 253.199 258.306C253.199 258.689 253.406 258.958 253.82 259.111C254.234 259.264 254.893 259.41 255.798 259.548C256.81 259.717 257.638 259.901 258.282 260.1C258.926 260.284 259.485 260.629 259.961 261.135C260.436 261.641 260.674 262.346 260.674 263.251C260.674 264.018 260.444 264.7 259.984 265.298C259.524 265.896 258.849 266.364 257.96 266.701C257.086 267.023 256.043 267.184 254.832 267.184Z" fill="white"/>
<path d="M273.933 263.964V267H261.766V264.585L267.976 258.72C268.635 258.091 269.08 257.555 269.31 257.11C269.54 256.65 269.655 256.198 269.655 255.753C269.655 255.109 269.433 254.618 268.988 254.281C268.559 253.928 267.922 253.752 267.079 253.752C266.374 253.752 265.737 253.89 265.17 254.166C264.603 254.427 264.127 254.825 263.744 255.362L261.03 253.614C261.659 252.679 262.525 251.95 263.629 251.429C264.733 250.892 265.998 250.624 267.424 250.624C268.62 250.624 269.663 250.823 270.552 251.222C271.457 251.605 272.154 252.157 272.645 252.878C273.151 253.583 273.404 254.419 273.404 255.385C273.404 256.259 273.22 257.079 272.852 257.846C272.484 258.613 271.771 259.487 270.713 260.468L267.01 263.964H273.933Z" fill="white"/>
<path d="M276.482 250.9H280.208V267H276.482V250.9Z" fill="white"/>
<path d="M287.364 253.936H282.212V250.9H296.242V253.936H291.09V267H287.364V253.936Z" fill="white"/>
<path d="M317.043 267.253L314.904 265.114C313.478 266.494 311.684 267.184 309.522 267.184C308.448 267.184 307.482 267.008 306.624 266.655C305.765 266.302 305.09 265.812 304.6 265.183C304.124 264.539 303.887 263.811 303.887 262.998C303.887 262.017 304.186 261.15 304.784 260.399C305.397 259.632 306.401 258.85 307.797 258.053C307.091 257.348 306.593 256.711 306.302 256.144C306.01 255.577 305.865 254.986 305.865 254.373C305.865 253.284 306.256 252.41 307.038 251.751C307.835 251.092 308.893 250.762 310.212 250.762C311.438 250.762 312.412 251.061 313.133 251.659C313.853 252.257 314.214 253.077 314.214 254.12C314.214 254.933 313.945 255.661 313.409 256.305C312.887 256.949 312.013 257.624 310.787 258.329L314.766 262.285C315.226 261.411 315.555 260.437 315.755 259.364L317.526 259.939C317.25 261.35 316.782 262.576 316.123 263.619L318.285 265.781L317.043 267.253ZM310.212 252.372C309.491 252.372 308.924 252.556 308.51 252.924C308.111 253.277 307.912 253.744 307.912 254.327C307.912 254.741 308.019 255.14 308.234 255.523C308.464 255.906 308.901 256.428 309.545 257.087C310.603 256.489 311.331 255.975 311.73 255.546C312.144 255.117 312.351 254.649 312.351 254.143C312.351 253.606 312.159 253.177 311.776 252.855C311.408 252.533 310.886 252.372 310.212 252.372ZM309.66 265.344C311.254 265.344 312.565 264.838 313.593 263.826L309.016 259.272C307.912 259.885 307.137 260.46 306.693 260.997C306.263 261.518 306.049 262.109 306.049 262.768C306.049 263.535 306.378 264.156 307.038 264.631C307.712 265.106 308.586 265.344 309.66 265.344Z" fill="white"/>
<path d="M326.705 250.9H330.431V267H326.705V250.9Z" fill="white"/>
<path d="M346.603 249.934V267H343.176V265.574C342.286 266.647 340.999 267.184 339.312 267.184C338.146 267.184 337.089 266.923 336.138 266.402C335.203 265.881 334.466 265.137 333.93 264.171C333.393 263.205 333.125 262.086 333.125 260.813C333.125 259.54 333.393 258.421 333.93 257.455C334.466 256.489 335.203 255.745 336.138 255.224C337.089 254.703 338.146 254.442 339.312 254.442C340.891 254.442 342.125 254.94 343.015 255.937V249.934H346.603ZM339.933 264.24C340.837 264.24 341.589 263.933 342.187 263.32C342.785 262.691 343.084 261.856 343.084 260.813C343.084 259.77 342.785 258.942 342.187 258.329C341.589 257.7 340.837 257.386 339.933 257.386C339.013 257.386 338.254 257.7 337.656 258.329C337.058 258.942 336.759 259.77 336.759 260.813C336.759 261.856 337.058 262.691 337.656 263.32C338.254 263.933 339.013 264.24 339.933 264.24Z" fill="white"/>
<path d="M362.045 260.859C362.045 260.905 362.022 261.227 361.976 261.825H352.615C352.783 262.592 353.182 263.197 353.811 263.642C354.439 264.087 355.221 264.309 356.157 264.309C356.801 264.309 357.368 264.217 357.859 264.033C358.365 263.834 358.832 263.527 359.262 263.113L361.171 265.183C360.005 266.517 358.303 267.184 356.065 267.184C354.669 267.184 353.435 266.916 352.362 266.379C351.288 265.827 350.46 265.068 349.878 264.102C349.295 263.136 349.004 262.04 349.004 260.813C349.004 259.602 349.287 258.513 349.855 257.547C350.437 256.566 351.227 255.807 352.224 255.27C353.236 254.718 354.363 254.442 355.605 254.442C356.816 254.442 357.912 254.703 358.894 255.224C359.875 255.745 360.642 256.497 361.194 257.478C361.761 258.444 362.045 259.571 362.045 260.859ZM355.628 257.156C354.815 257.156 354.133 257.386 353.581 257.846C353.029 258.306 352.691 258.935 352.569 259.732H358.664C358.541 258.95 358.204 258.329 357.652 257.869C357.1 257.394 356.425 257.156 355.628 257.156Z" fill="white"/>
<path d="M369.087 254.442C371.004 254.442 372.476 254.902 373.503 255.822C374.531 256.727 375.044 258.099 375.044 259.939V267H371.686V265.459C371.012 266.609 369.754 267.184 367.914 267.184C366.964 267.184 366.136 267.023 365.43 266.701C364.74 266.379 364.212 265.934 363.844 265.367C363.475 264.8 363.292 264.156 363.292 263.435C363.292 262.285 363.721 261.38 364.579 260.721C365.453 260.062 366.795 259.732 368.604 259.732H371.456C371.456 258.95 371.219 258.352 370.743 257.938C370.268 257.509 369.555 257.294 368.604 257.294C367.945 257.294 367.294 257.401 366.65 257.616C366.021 257.815 365.484 258.091 365.039 258.444L363.751 255.937C364.426 255.462 365.231 255.094 366.167 254.833C367.117 254.572 368.091 254.442 369.087 254.442ZM368.811 264.769C369.425 264.769 369.969 264.631 370.444 264.355C370.92 264.064 371.257 263.642 371.456 263.09V261.825H368.995C367.523 261.825 366.788 262.308 366.788 263.274C366.788 263.734 366.964 264.102 367.316 264.378C367.685 264.639 368.183 264.769 368.811 264.769Z" fill="white"/>
<path d="M388.803 267L385.698 262.515H385.514H382.271V267H378.545V250.9H385.514C386.94 250.9 388.174 251.138 389.217 251.613C390.275 252.088 391.087 252.763 391.655 253.637C392.222 254.511 392.506 255.546 392.506 256.742C392.506 257.938 392.214 258.973 391.632 259.847C391.064 260.706 390.252 261.365 389.194 261.825L392.805 267H388.803ZM388.734 256.742C388.734 255.837 388.442 255.147 387.86 254.672C387.277 254.181 386.426 253.936 385.307 253.936H382.271V259.548H385.307C386.426 259.548 387.277 259.303 387.86 258.812C388.442 258.321 388.734 257.631 388.734 256.742Z" fill="white"/>
<path d="M403.071 267L400.357 263.205L397.551 267H393.641L398.402 260.767L393.802 254.626H397.827L400.449 258.237L403.14 254.626H406.958L402.358 260.675L407.142 267H403.071Z" fill="white"/>
<path d="M30.9463 157.249C33.6 158.45 35.6404 160.155 37.0738 162.363C38.5071 164.571 39.2238 167.186 39.2238 170.208C39.2238 173.229 38.5071 175.799 37.0738 178.027C35.6404 180.254 33.5936 181.959 30.9463 183.141C28.2926 184.322 25.1611 184.916 21.5583 184.916H13.3647V196.131H3.95081V155.454H21.5583C25.1611 155.454 28.2862 156.055 30.9463 157.256V157.249ZM27.4855 175.405C28.9577 174.185 29.6937 172.448 29.6937 170.201C29.6937 167.954 28.9577 166.166 27.4855 164.945C26.0134 163.725 23.8633 163.118 21.0353 163.118H13.3647V177.239H21.0353C23.8633 177.239 26.0134 176.626 27.4855 175.412V175.405Z" fill="white"/>
<path d="M44.6875 153.006H53.7527V196.124H44.6875V153.006Z" fill="white"/>
<path d="M91.4642 183.051H67.8133C68.2394 184.988 69.2467 186.518 70.835 187.642C72.4234 188.765 74.3991 189.327 76.7623 189.327C78.3894 189.327 79.8292 189.088 81.0947 188.604C82.3538 188.119 83.5225 187.358 84.6072 186.312L89.4304 191.541C86.4861 194.912 82.1859 196.597 76.5298 196.597C73.0045 196.597 69.8859 195.913 67.1741 194.531C64.4622 193.156 62.3703 191.251 60.8981 188.81C59.426 186.37 58.6899 183.6 58.6899 180.501C58.6899 177.401 59.4131 174.683 60.8723 172.217C62.3251 169.757 64.3202 167.839 66.8577 166.464C69.3952 165.088 72.2297 164.397 75.3676 164.397C78.5056 164.397 81.198 165.056 83.6774 166.373C86.1568 167.69 88.1003 169.576 89.5143 172.036C90.9283 174.496 91.6386 177.356 91.6386 180.61C91.6386 180.726 91.5804 181.54 91.4642 183.051ZM70.2539 172.998C68.8593 174.16 68.007 175.748 67.6971 177.763H83.0963C82.7864 175.787 81.9341 174.212 80.5395 173.03C79.1448 171.849 77.4402 171.254 75.4257 171.254C73.4113 171.254 71.6486 171.836 70.2539 172.998Z" fill="white"/>
<path d="M128.365 153.006V196.124H119.707V192.521C117.46 195.233 114.205 196.589 109.944 196.589C107 196.589 104.34 195.931 101.951 194.613C99.568 193.296 97.702 191.417 96.3461 188.977C94.9902 186.536 94.3123 183.708 94.3123 180.493C94.3123 177.277 94.9902 174.449 96.3461 172.008C97.702 169.568 99.5745 167.689 101.951 166.372C104.333 165.055 107 164.396 109.944 164.396C113.934 164.396 117.053 165.655 119.3 168.173V153.006H128.365ZM117.208 186.794C118.719 185.225 119.474 183.127 119.474 180.493C119.474 177.858 118.719 175.76 117.208 174.184C115.697 172.615 113.799 171.834 111.513 171.834C109.227 171.834 107.271 172.615 105.76 174.184C104.249 175.753 103.494 177.858 103.494 180.493C103.494 183.127 104.249 185.225 105.76 186.794C107.271 188.363 109.189 189.151 111.513 189.151C113.837 189.151 115.697 188.363 117.208 186.794Z" fill="white"/>
<path d="M167.822 164.862V190.896C167.822 196.629 166.33 200.891 163.347 203.68C160.364 206.469 156.006 207.864 150.273 207.864C147.251 207.864 144.384 207.496 141.672 206.76C138.96 206.024 136.713 204.959 134.931 203.564L138.534 197.056C139.851 198.14 141.517 199.005 143.532 199.638C145.546 200.277 147.561 200.6 149.575 200.6C152.713 200.6 155.025 199.89 156.516 198.476C158.008 197.062 158.75 194.925 158.75 192.058V190.721C156.387 193.317 153.094 194.615 148.871 194.615C146.005 194.615 143.383 193.989 140.994 192.723C138.612 191.464 136.726 189.695 135.332 187.409C133.937 185.124 133.24 182.489 133.24 179.506C133.24 176.523 133.937 173.889 135.332 171.603C136.726 169.317 138.612 167.548 140.994 166.289C143.377 165.03 145.998 164.397 148.871 164.397C153.404 164.397 156.852 165.889 159.215 168.872V164.862H167.815H167.822ZM156.574 185.052C158.105 183.638 158.873 181.792 158.873 179.506C158.873 177.221 158.105 175.374 156.574 173.96C155.044 172.546 153.075 171.836 150.679 171.836C148.284 171.836 146.302 172.546 144.752 173.96C143.202 175.374 142.428 177.227 142.428 179.506C142.428 181.785 143.202 183.645 144.752 185.052C146.302 186.467 148.277 187.177 150.679 187.177C153.081 187.177 155.044 186.473 156.574 185.052Z" fill="white"/>
<path d="M205.537 183.051H181.886C182.312 184.988 183.319 186.518 184.908 187.642C186.496 188.765 188.472 189.327 190.835 189.327C192.462 189.327 193.902 189.088 195.168 188.604C196.427 188.119 197.595 187.358 198.68 186.312L203.503 191.541C200.559 194.912 196.259 196.597 190.603 196.597C187.077 196.597 183.959 195.913 181.247 194.531C178.535 193.156 176.443 191.251 174.971 188.81C173.499 186.37 172.763 183.6 172.763 180.501C172.763 177.401 173.486 174.683 174.945 172.217C176.398 169.757 178.393 167.839 180.93 166.464C183.468 165.088 186.302 164.397 189.44 164.397C192.578 164.397 195.271 165.056 197.75 166.373C200.23 167.69 202.173 169.576 203.587 172.036C205.001 174.496 205.711 177.356 205.711 180.61C205.711 180.726 205.653 181.54 205.537 183.051ZM184.327 172.998C182.932 174.16 182.08 175.748 181.77 177.763H197.169C196.859 175.787 196.007 174.212 194.612 173.03C193.218 171.849 191.513 171.254 189.499 171.254C187.484 171.254 185.721 171.836 184.327 172.998Z" fill="white"/>
<path d="M238.483 188.454V196.125H207.743V190.023L223.432 175.205C225.098 173.617 226.222 172.255 226.803 171.112C227.384 169.969 227.674 168.839 227.674 167.715C227.674 166.088 227.126 164.836 226.022 163.964C224.917 163.092 223.297 162.66 221.166 162.66C219.384 162.66 217.776 163.002 216.343 163.674C214.91 164.352 213.709 165.372 212.74 166.728L205.883 162.311C207.471 159.948 209.66 158.095 212.45 156.758C215.239 155.422 218.435 154.757 222.038 154.757C225.06 154.757 227.7 155.248 229.967 156.235C232.233 157.223 233.996 158.618 235.255 160.419C236.514 162.221 237.14 164.345 237.14 166.786C237.14 168.994 236.675 171.067 235.745 173.004C234.816 174.941 233.014 177.149 230.341 179.628L220.985 188.461H238.477L238.483 188.454Z" fill="white"/>
<path d="M270.76 157.249C273.414 158.45 275.461 160.155 276.888 162.363C278.321 164.571 279.038 167.186 279.038 170.208C279.038 173.229 278.321 175.799 276.888 178.027C275.454 180.254 273.414 181.959 270.76 183.141C268.107 184.322 264.975 184.916 261.379 184.916H253.185V196.131H243.771V155.454H261.379C264.982 155.454 268.107 156.055 270.76 157.256V157.249ZM267.3 175.405C268.772 174.185 269.508 172.448 269.508 170.201C269.508 167.954 268.772 166.166 267.3 164.945C265.827 163.725 263.677 163.118 260.849 163.118H253.179V177.239H260.849C263.677 177.239 265.827 176.626 267.3 175.412V175.405Z" fill="white"/>
<path d="M296.97 165.56C298.81 164.785 300.928 164.397 303.336 164.397V172.765C302.329 172.688 301.651 172.649 301.302 172.649C298.707 172.649 296.673 173.372 295.201 174.832C293.729 176.284 292.992 178.46 292.992 181.366V196.126H283.927V164.862H292.586V168.988C293.67 167.477 295.136 166.334 296.97 165.56Z" fill="white"/>
<path d="M313.299 194.524C310.684 193.148 308.643 191.244 307.171 188.803C305.699 186.362 304.963 183.592 304.963 180.493C304.963 177.394 305.699 174.624 307.171 172.183C308.643 169.743 310.69 167.838 313.299 166.456C315.914 165.081 318.864 164.39 322.157 164.39C325.45 164.39 328.395 165.081 330.99 166.456C333.586 167.832 335.62 169.736 337.092 172.183C338.564 174.624 339.3 177.394 339.3 180.493C339.3 183.592 338.564 186.362 337.092 188.803C335.62 191.244 333.586 193.155 330.99 194.524C328.395 195.899 325.45 196.59 322.157 196.59C318.864 196.59 315.914 195.905 313.299 194.524ZM327.884 186.795C329.376 185.226 330.118 183.128 330.118 180.493C330.118 177.859 329.376 175.76 327.884 174.185C326.393 172.616 324.488 171.835 322.157 171.835C319.826 171.835 317.915 172.616 316.404 174.185C314.894 175.754 314.138 177.859 314.138 180.493C314.138 183.128 314.894 185.226 316.404 186.795C317.915 188.364 319.833 189.152 322.157 189.152C324.482 189.152 326.387 188.364 327.884 186.795Z" fill="white"/>
<path d="M370.599 166.398C372.981 167.735 374.847 169.614 376.209 172.035C377.565 174.456 378.243 177.278 378.243 180.493C378.243 183.709 377.565 186.53 376.209 188.945C374.854 191.366 372.988 193.245 370.599 194.582C368.216 195.918 365.569 196.583 362.663 196.583C358.673 196.583 355.535 195.324 353.249 192.806V207.392H344.184V164.855H352.843V168.458C355.089 165.746 358.363 164.39 362.663 164.39C365.569 164.39 368.216 165.062 370.599 166.398ZM366.821 186.795C368.313 185.226 369.055 183.128 369.055 180.493C369.055 177.859 368.306 175.76 366.821 174.185C365.33 172.616 363.419 171.835 361.094 171.835C358.77 171.835 356.865 172.616 355.367 174.185C353.876 175.754 353.133 177.859 353.133 180.493C353.133 183.128 353.876 185.226 355.367 186.795C356.859 188.364 358.77 189.152 361.094 189.152C363.419 189.152 365.323 188.364 366.821 186.795Z" fill="white"/>
<path d="M413.574 183.051H389.923C390.349 184.988 391.356 186.518 392.944 187.642C394.533 188.765 396.508 189.327 398.872 189.327C400.499 189.327 401.939 189.088 403.204 188.604C404.463 188.119 405.632 187.358 406.717 186.312L411.54 191.541C408.595 194.912 404.295 196.597 398.639 196.597C395.114 196.597 391.995 195.913 389.283 194.531C386.572 193.156 384.48 191.251 383.008 188.81C381.535 186.37 380.799 183.6 380.799 180.501C380.799 177.401 381.522 174.683 382.982 172.217C384.434 169.757 386.43 167.839 388.967 166.464C391.505 165.088 394.339 164.397 397.483 164.397C400.628 164.397 403.314 165.056 405.793 166.373C408.273 167.69 410.216 169.576 411.63 172.036C413.044 174.496 413.754 177.356 413.754 180.61C413.754 180.726 413.696 181.54 413.58 183.051H413.574ZM392.363 172.998C390.969 174.16 390.116 175.748 389.806 177.763H405.206C404.896 175.787 404.043 174.212 402.649 173.03C401.254 171.849 399.55 171.254 397.535 171.254C395.521 171.254 393.758 171.836 392.363 172.998Z" fill="white"/>
<path d="M418.629 153.006H427.694V196.124H418.629V153.006Z" fill="white"/>
<path fill-rule="evenodd" clip-rule="evenodd" d="M430.663 225.965H0V224.465H430.663V225.965Z" fill="white"/>
<path d="M150.262 125.792C150.391 124.307 150.759 122.797 150.61 121.344C150.268 118.006 149.564 114.706 149.229 111.375C149.054 109.677 149.138 107.875 149.506 106.209C150.068 103.678 152.25 102.671 154.446 104.027C156.195 105.105 157.842 106.539 159.12 108.146C162.42 112.266 165.474 116.579 168.67 120.782C169.632 122.048 170.717 123.21 171.743 124.424C171.93 124.378 172.124 124.333 172.311 124.288C172.473 123.274 172.738 122.261 172.776 121.241C173.209 109.864 169.522 99.9463 162.258 91.2362C158.113 86.2645 153.71 81.6738 147.827 78.7037C146.517 78.0386 145.606 78.2 144.418 79.0265C138.465 83.1588 132.512 87.3105 126.385 91.1716C124.486 92.3661 122.072 92.8632 119.818 93.3281C117.92 93.722 116.357 92.676 115.137 91.191C110.605 85.6898 112.341 77.5867 118.869 74.2485C124.325 71.4592 130.233 70.9492 136.225 71.3947C138.84 71.5884 141.403 72.3632 144.018 72.615C144.935 72.7054 146.11 72.2599 146.846 71.6658C153.128 66.6038 159.979 62.5425 167.74 60.2956C180.163 56.6927 192.779 55.2981 205.557 58.2875C208.159 58.8945 210.613 60.1406 213.182 60.9412C214.002 61.1995 215.119 61.2899 215.849 60.9412C224.656 56.7186 233.979 56.2924 243.477 56.9768C251.109 57.5321 258.567 58.8945 265.701 61.7742C271.758 64.2213 277.31 67.5077 282.301 71.7175C283.36 72.6085 284.303 72.7829 285.698 72.4536C293.995 70.523 302.259 70.3099 310.13 74.1388C316.406 77.1863 318.407 84.1208 314.96 89.9706C313.094 93.1409 310.298 94.4387 306.889 93.0569C303.408 91.6494 299.999 89.9254 296.842 87.9045C292.606 85.1927 288.61 82.1064 284.574 79.0911C283.477 78.2711 282.605 78.1096 281.339 78.7489C276.665 81.1314 272.765 84.4437 269.336 88.3629C264.403 94.0061 260.065 99.9915 257.973 107.339C256.591 112.182 256.165 117.121 256.358 122.125C256.384 122.816 256.623 123.494 256.868 124.669C257.837 123.649 258.58 122.997 259.167 122.222C262.796 117.45 266.328 112.595 270.04 107.888C271.209 106.409 272.707 105.099 274.282 104.059C276.652 102.497 279.196 103.465 279.603 106.261C279.984 108.876 279.751 111.614 279.538 114.28C279.351 116.663 278.718 119.013 278.511 121.395C278.389 122.816 278.712 124.269 278.834 125.709C279.08 125.76 279.318 125.818 279.564 125.87C280.216 124.934 281.01 124.062 281.501 123.042C284.929 115.985 287.37 108.618 288.377 100.805C288.629 98.8551 289.552 97.9253 291.044 98.1448C292.548 98.3644 293.149 99.4491 292.891 101.444C291.87 109.179 289.559 116.54 286.311 123.61C285.498 125.386 284.406 127.097 283.167 128.614C280.565 131.817 276.691 131.268 274.934 127.555C273.733 125.018 273.695 122.325 274.095 119.62C274.553 116.534 275.102 113.46 275.58 110.38C275.696 109.625 275.696 108.857 275.38 107.875C274.889 108.476 274.36 109.05 273.908 109.683C270.35 114.59 266.838 119.523 263.241 124.398C262.324 125.644 261.24 126.806 260.058 127.807C256.952 130.422 253.492 129.357 252.426 125.45C251.348 121.492 251.787 117.457 252.187 113.46C253.259 102.878 258.302 94.161 265.133 86.3032C268.82 82.0612 272.855 78.2517 277.827 75.5334C278.13 75.372 278.382 75.1202 278.653 74.9071C270.085 63.3819 232.578 56.6282 219.607 64.3956C220.582 65.1704 221.486 65.9 222.403 66.6102C234.767 76.1533 241.418 88.5824 241.482 104.343C241.514 111.704 240.914 118.974 238.241 125.922C237.705 127.31 237.046 128.685 236.226 129.925C233.398 134.193 228.575 134.367 226.051 129.938C224.055 126.445 222.583 122.558 221.505 118.671C220.085 113.544 219.284 108.243 218.186 103.026C218.006 102.148 217.728 101.283 217.411 100.443C216.914 99.1327 216.114 98.1448 214.538 98.1448C212.969 98.1448 212.027 99.0617 211.652 100.411C210.942 103.007 210.445 105.66 209.786 108.269C208.288 114.183 206.842 120.117 205.17 125.986C204.705 127.607 203.678 129.137 202.645 130.512C199.953 134.089 195.517 134.115 193.225 130.319C191.546 127.542 190.235 124.411 189.428 121.273C187.724 114.622 187.446 107.843 187.833 100.941C188.673 85.7286 196.13 74.4939 207.94 65.6288C208.411 65.2737 208.863 64.9057 209.347 64.5247C199.733 56.2408 159.437 63.2786 150.229 74.9007C150.856 75.3268 151.463 75.7465 152.082 76.1662C163.885 84.1338 172.331 94.5936 175.946 108.566C177.218 113.48 177.393 118.516 176.973 123.565C176.915 124.275 176.741 124.992 176.515 125.67C175.34 129.24 172.253 130.351 169.367 127.923C167.378 126.251 165.719 124.127 164.137 122.035C161.135 118.064 158.294 113.97 155.382 109.928C154.865 109.212 154.31 108.527 153.374 107.94C153.374 108.773 153.283 109.618 153.387 110.438C153.916 114.597 154.626 118.735 154.982 122.9C155.111 124.378 154.633 126.012 154.052 127.42C152.496 131.152 148.46 131.855 146.058 128.601C144.089 125.941 142.527 122.9 141.235 119.833C138.762 113.964 137.058 107.849 136.283 101.496C136.044 99.5718 136.561 98.4741 137.916 98.2546C139.382 98.0157 140.305 98.939 140.577 100.928C141.59 108.482 143.87 115.649 147.182 122.493C147.763 123.701 148.596 124.785 149.319 125.928C149.635 125.876 149.952 125.831 150.268 125.78L150.262 125.792ZM192.05 105.267C192.011 111.491 192.566 117.212 194.296 122.751C194.839 124.495 195.717 126.167 196.666 127.736C197.383 128.924 198.513 128.847 199.281 127.691C200.011 126.6 200.785 125.457 201.128 124.217C202.574 119.032 203.865 113.809 205.215 108.598C206.19 104.847 207.055 101.057 208.198 97.3507C208.747 95.5751 210.161 94.1223 212.091 93.9738C216.927 93.6122 219.6 93.2119 221.699 99.307C221.951 100.043 222.215 100.779 222.383 101.535C223.584 107.094 224.598 112.698 225.999 118.206C226.774 121.253 228.001 124.23 229.369 127.071C230.338 129.079 231.616 128.989 232.856 127.135C233.385 126.348 233.812 125.463 234.115 124.566C237.046 116.004 237.55 107.197 236.53 98.2869C234.941 84.3856 226.955 74.7328 215.694 67.3011C214.803 66.7136 214.106 66.8104 213.24 67.3528C205.647 72.1178 199.701 78.4067 195.736 86.4646C192.76 92.5146 191.882 99.0229 192.03 105.267H192.05ZM140.299 76.7989C140.247 76.6052 140.189 76.4115 140.138 76.2178C139.279 76.0693 138.414 75.7788 137.561 75.7917C133.862 75.8433 130.123 75.6755 126.482 76.2049C124.093 76.5536 121.646 77.6383 119.592 78.9555C116.68 80.8215 116.125 84.095 117.655 87.2136C118.675 89.3056 119.56 89.848 121.626 88.7051C126.223 86.1612 130.691 83.3783 135.147 80.5955C136.954 79.4656 138.588 78.0709 140.305 76.7989H140.299ZM289.087 76.2243L288.855 76.7796C291.644 78.807 294.337 80.9893 297.249 82.8231C300.632 84.9538 304.151 86.8908 307.722 88.6858C309.575 89.6155 310.298 89.1313 311.26 87.2394C313.268 83.2879 311.525 79.1944 306.747 77.393C301 75.2364 295.041 75.4043 289.081 76.2243H289.087Z" fill="white"/>
<path d="M290.306 40.9128C296.718 40.8224 301.87 45.878 301.935 52.3283C301.999 58.4751 296.828 63.8406 290.765 63.9116C284.088 63.9891 278.826 58.9529 278.775 52.4316C278.723 46.0588 283.779 41.0097 290.3 40.9128H290.306ZM297.415 52.5543C297.505 48.5898 294.258 45.1936 290.364 45.1807C286.613 45.1678 283.346 48.3897 283.288 52.1604C283.223 56.1829 286.187 59.3209 290.145 59.4178C294.116 59.5146 297.331 56.48 297.415 52.5543Z" fill="white"/>
<path d="M203.097 41.835C203.188 35.275 208.282 30.4002 214.952 30.497C221.17 30.5939 226.077 35.8367 225.993 42.2999C225.909 48.6533 220.692 53.541 214.119 53.4313C207.895 53.328 203.007 48.182 203.097 41.835ZM221.725 41.8931C221.654 37.9739 218.296 34.752 214.338 34.8101C210.581 34.8618 207.223 38.3032 207.262 42.061C207.307 45.8834 210.819 49.2344 214.687 49.144C218.522 49.0536 221.789 45.6897 221.718 41.8931H221.725Z" fill="white"/>
<path d="M150.054 52.7793C149.925 59.0294 144.792 63.943 138.516 63.8267C132.356 63.7105 127.01 58.261 127.191 52.2692C127.391 45.7479 132.614 40.6923 139.149 41.0087C146.038 41.3445 149.718 46.187 150.048 52.7793H150.054ZM131.549 52.2757C131.446 56.931 135.171 59.7848 138.484 59.914C142.132 60.056 146.387 55.6138 146.445 52.0239C146.49 49.0409 142.093 45.0894 138.748 45.1152C134.745 45.141 131.523 48.35 131.549 52.2692V52.2757Z" fill="white"/>
<path d="M270.741 15.2395C270.211 16.5567 269.972 17.4219 269.54 18.1903C267.409 21.9674 265.233 25.7123 263.07 29.4701C261.972 31.3749 260.416 32.3111 258.357 31.1424C256.265 29.9544 256.361 28.1271 257.453 26.2418C259.706 22.329 261.83 18.3323 264.323 14.5745C265.001 13.5543 266.802 12.7731 268.061 12.8183C268.991 12.8506 269.862 14.3937 270.741 15.246V15.2395Z" fill="white"/>
<path d="M192.573 2.59108C193.374 1.90667 194.329 0.518478 195.595 0.131075C197.396 -0.424202 198.765 0.854227 199.114 2.65565C200.044 7.44008 200.877 12.2503 201.613 17.067C201.89 18.8814 201.044 20.3212 199.146 20.6957C197.306 21.0573 195.789 20.2502 195.414 18.3907C194.413 13.4384 193.606 8.44732 192.56 2.59108H192.573Z" fill="white"/>
<path d="M172.015 29.0444C171.479 29.632 170.808 31.0008 169.859 31.2332C168.774 31.498 166.818 31.1493 166.321 30.368C163.531 26.0549 160.923 21.6063 158.624 17.0155C158.172 16.1116 158.979 13.9099 159.896 13.1867C160.619 12.6185 163.131 12.9284 163.602 13.6581C166.54 18.1907 169.129 22.9493 171.815 27.6433C171.938 27.8628 171.899 28.1727 172.015 29.0444Z" fill="white"/>
<path d="M230.986 20.7793C228.138 20.7212 226.718 19.1909 227.034 17.0989C227.764 12.2758 228.597 7.46552 229.526 2.6811C229.901 0.750539 231.289 -0.288992 233.323 0.0725836C235.273 0.41479 236.099 1.87401 235.822 3.66897C235.073 8.57608 234.272 13.4896 233.187 18.3322C232.942 19.4427 231.47 20.2756 230.992 20.7857L230.986 20.7793Z" fill="white"/>
</svg>
