<svg width="431" height="263" viewBox="0 0 431 263" fill="none" xmlns="http://www.w3.org/2000/svg">
<path d="M30.9954 157.249C33.6491 158.45 35.6894 160.155 37.1228 162.363C38.5562 164.571 39.2729 167.186 39.2729 170.208C39.2729 173.229 38.5562 175.799 37.1228 178.027C35.6894 180.254 33.6427 181.959 30.9954 183.141C28.3417 184.322 25.2102 184.916 21.6073 184.916H13.4138V196.131H3.99988V155.454H21.6073C25.2102 155.454 28.3352 156.055 30.9954 157.256V157.249ZM27.5346 175.405C29.0067 174.185 29.7428 172.448 29.7428 170.201C29.7428 167.954 29.0067 166.166 27.5346 164.945C26.0625 163.725 23.9124 163.118 21.0843 163.118H13.4138V177.239H21.0843C23.9124 177.239 26.0625 176.626 27.5346 175.412V175.405Z" fill="white"/>
<path d="M44.7366 153.006H53.8018V196.124H44.7366V153.006Z" fill="white"/>
<path d="M91.5133 183.051H67.8624C68.2885 184.988 69.2957 186.518 70.8841 187.642C72.4724 188.765 74.4482 189.327 76.8114 189.327C78.4384 189.327 79.8783 189.088 81.1438 188.604C82.4029 188.119 83.5715 187.358 84.6563 186.312L89.4794 191.541C86.5352 194.912 82.235 196.597 76.5789 196.597C73.0535 196.597 69.935 195.913 67.2231 194.531C64.5113 193.156 62.4193 191.251 60.9472 188.81C59.4751 186.37 58.739 183.6 58.739 180.501C58.739 177.401 59.4622 174.683 60.9214 172.217C62.3741 169.757 64.3693 167.839 66.9068 166.464C69.4442 165.088 72.2787 164.397 75.4167 164.397C78.5547 164.397 81.2471 165.056 83.7265 166.373C86.2059 167.69 88.1494 169.576 89.5634 172.036C90.9774 174.496 91.6876 177.356 91.6876 180.61C91.6876 180.726 91.6295 181.54 91.5133 183.051ZM70.303 172.998C68.9083 174.16 68.0561 175.748 67.7461 177.763H83.1454C82.8355 175.787 81.9832 174.212 80.5885 173.03C79.1939 171.849 77.4893 171.254 75.4748 171.254C73.4603 171.254 71.6976 171.836 70.303 172.998Z" fill="white"/>
<path d="M128.414 153.006V196.124H119.756V192.521C117.509 195.233 114.254 196.589 109.993 196.589C107.049 196.589 104.389 195.931 102 194.613C99.6171 193.296 97.7511 191.417 96.3952 188.977C95.0393 186.536 94.3613 183.708 94.3613 180.493C94.3613 177.277 95.0393 174.449 96.3952 172.008C97.7511 169.568 99.6236 167.689 102 166.372C104.382 165.055 107.049 164.396 109.993 164.396C113.983 164.396 117.102 165.655 119.349 168.173V153.006H128.414ZM117.257 186.794C118.768 185.225 119.523 183.127 119.523 180.493C119.523 177.858 118.768 175.76 117.257 174.184C115.746 172.615 113.848 171.834 111.562 171.834C109.276 171.834 107.32 172.615 105.809 174.184C104.298 175.753 103.543 177.858 103.543 180.493C103.543 183.127 104.298 185.225 105.809 186.794C107.32 188.363 109.238 189.151 111.562 189.151C113.886 189.151 115.746 188.363 117.257 186.794Z" fill="white"/>
<path d="M167.871 164.862V190.896C167.871 196.629 166.379 200.891 163.396 203.68C160.413 206.469 156.055 207.864 150.322 207.864C147.3 207.864 144.433 207.496 141.721 206.76C139.009 206.024 136.763 204.959 134.98 203.564L138.583 197.056C139.9 198.14 141.566 199.005 143.581 199.638C145.595 200.277 147.61 200.6 149.624 200.6C152.762 200.6 155.074 199.89 156.565 198.476C158.057 197.062 158.799 194.925 158.799 192.058V190.721C156.436 193.317 153.143 194.615 148.921 194.615C146.054 194.615 143.432 193.989 141.043 192.723C138.661 191.464 136.775 189.695 135.381 187.409C133.986 185.124 133.289 182.489 133.289 179.506C133.289 176.523 133.986 173.889 135.381 171.603C136.775 169.317 138.661 167.548 141.043 166.289C143.426 165.03 146.047 164.397 148.921 164.397C153.453 164.397 156.901 165.889 159.264 168.872V164.862H167.865H167.871ZM156.623 185.052C158.154 183.638 158.922 181.792 158.922 179.506C158.922 177.221 158.154 175.374 156.623 173.96C155.093 172.546 153.124 171.836 150.728 171.836C148.333 171.836 146.351 172.546 144.801 173.96C143.252 175.374 142.477 177.227 142.477 179.506C142.477 181.785 143.252 183.645 144.801 185.052C146.351 186.467 148.327 187.177 150.728 187.177C153.13 187.177 155.093 186.473 156.623 185.052Z" fill="white"/>
<path d="M205.586 183.051H181.935C182.361 184.988 183.368 186.518 184.957 187.642C186.545 188.765 188.521 189.327 190.884 189.327C192.511 189.327 193.951 189.088 195.217 188.604C196.476 188.119 197.644 187.358 198.729 186.312L203.552 191.541C200.608 194.912 196.308 196.597 190.652 196.597C187.126 196.597 184.008 195.913 181.296 194.531C178.584 193.156 176.492 191.251 175.02 188.81C173.548 186.37 172.812 183.6 172.812 180.501C172.812 177.401 173.535 174.683 174.994 172.217C176.447 169.757 178.442 167.839 180.98 166.464C183.517 165.088 186.352 164.397 189.489 164.397C192.627 164.397 195.32 165.056 197.799 166.373C200.279 167.69 202.222 169.576 203.636 172.036C205.05 174.496 205.76 177.356 205.76 180.61C205.76 180.726 205.702 181.54 205.586 183.051ZM184.376 172.998C182.981 174.16 182.129 175.748 181.819 177.763H197.218C196.908 175.787 196.056 174.212 194.661 173.03C193.267 171.849 191.562 171.254 189.548 171.254C187.533 171.254 185.77 171.836 184.376 172.998Z" fill="white"/>
<path d="M238.532 188.454V196.125H207.792V190.023L223.481 175.205C225.147 173.617 226.271 172.255 226.852 171.112C227.433 169.969 227.724 168.839 227.724 167.715C227.724 166.088 227.175 164.836 226.071 163.964C224.967 163.092 223.346 162.66 221.215 162.66C219.433 162.66 217.825 163.002 216.392 163.674C214.959 164.352 213.758 165.372 212.789 166.728L205.932 162.311C207.52 159.948 209.709 158.095 212.499 156.758C215.288 155.422 218.484 154.757 222.087 154.757C225.109 154.757 227.749 155.248 230.016 156.235C232.282 157.223 234.045 158.618 235.304 160.419C236.563 162.221 237.189 164.345 237.189 166.786C237.189 168.994 236.724 171.067 235.794 173.004C234.865 174.941 233.063 177.149 230.39 179.628L221.034 188.461H238.526L238.532 188.454Z" fill="white"/>
<path d="M270.809 157.249C273.463 158.45 275.51 160.155 276.937 162.363C278.37 164.571 279.087 167.186 279.087 170.208C279.087 173.229 278.37 175.799 276.937 178.027C275.503 180.254 273.463 181.959 270.809 183.141C268.156 184.322 265.024 184.916 261.428 184.916H253.234V196.131H243.82V155.454H261.428C265.031 155.454 268.156 156.055 270.809 157.256V157.249ZM267.349 175.405C268.821 174.185 269.557 172.448 269.557 170.201C269.557 167.954 268.821 166.166 267.349 164.945C265.876 163.725 263.726 163.118 260.898 163.118H253.228V177.239H260.898C263.726 177.239 265.876 176.626 267.349 175.412V175.405Z" fill="white"/>
<path d="M297.019 165.56C298.859 164.785 300.977 164.397 303.385 164.397V172.765C302.378 172.688 301.7 172.649 301.351 172.649C298.756 172.649 296.722 173.372 295.25 174.832C293.778 176.284 293.042 178.46 293.042 181.366V196.126H283.976V164.862H292.635V168.988C293.72 167.477 295.185 166.334 297.019 165.56Z" fill="white"/>
<path d="M313.348 194.524C310.733 193.148 308.693 191.244 307.22 188.803C305.748 186.362 305.012 183.592 305.012 180.493C305.012 177.394 305.748 174.624 307.22 172.183C308.693 169.743 310.739 167.838 313.348 166.456C315.963 165.081 318.914 164.39 322.206 164.39C325.499 164.39 328.444 165.081 331.039 166.456C333.635 167.832 335.669 169.736 337.141 172.183C338.613 174.624 339.349 177.394 339.349 180.493C339.349 183.592 338.613 186.362 337.141 188.803C335.669 191.244 333.635 193.155 331.039 194.524C328.444 195.899 325.499 196.59 322.206 196.59C318.914 196.59 315.963 195.905 313.348 194.524ZM327.934 186.795C329.425 185.226 330.168 183.128 330.168 180.493C330.168 177.859 329.425 175.76 327.934 174.185C326.442 172.616 324.537 171.835 322.206 171.835C319.876 171.835 317.964 172.616 316.454 174.185C314.943 175.754 314.187 177.859 314.187 180.493C314.187 183.128 314.943 185.226 316.454 186.795C317.964 188.364 319.882 189.152 322.206 189.152C324.531 189.152 326.436 188.364 327.934 186.795Z" fill="white"/>
<path d="M370.648 166.398C373.03 167.735 374.896 169.614 376.259 172.035C377.615 174.456 378.293 177.278 378.293 180.493C378.293 183.709 377.615 186.53 376.259 188.945C374.903 191.366 373.037 193.245 370.648 194.582C368.265 195.918 365.618 196.583 362.713 196.583C358.722 196.583 355.584 195.324 353.299 192.806V207.392H344.233V164.855H352.892V168.458C355.139 165.746 358.412 164.39 362.713 164.39C365.618 164.39 368.265 165.062 370.648 166.398ZM366.871 186.795C368.362 185.226 369.105 183.128 369.105 180.493C369.105 177.859 368.356 175.76 366.871 174.185C365.379 172.616 363.468 171.835 361.144 171.835C358.819 171.835 356.914 172.616 355.416 174.185C353.925 175.754 353.182 177.859 353.182 180.493C353.182 183.128 353.925 185.226 355.416 186.795C356.908 188.364 358.819 189.152 361.144 189.152C363.468 189.152 365.373 188.364 366.871 186.795Z" fill="white"/>
<path d="M413.623 183.051H389.972C390.398 184.988 391.405 186.518 392.993 187.642C394.582 188.765 396.558 189.327 398.921 189.327C400.548 189.327 401.988 189.088 403.253 188.604C404.512 188.119 405.681 187.358 406.766 186.312L411.589 191.541C408.645 194.912 404.344 196.597 398.688 196.597C395.163 196.597 392.044 195.913 389.333 194.531C386.621 193.156 384.529 191.251 383.057 188.81C381.584 186.37 380.848 183.6 380.848 180.501C380.848 177.401 381.572 174.683 383.031 172.217C384.484 169.757 386.479 167.839 389.016 166.464C391.554 165.088 394.388 164.397 397.533 164.397C400.677 164.397 403.363 165.056 405.842 166.373C408.322 167.69 410.265 169.576 411.679 172.036C413.093 174.496 413.803 177.356 413.803 180.61C413.803 180.726 413.745 181.54 413.629 183.051H413.623ZM392.412 172.998C391.018 174.16 390.165 175.748 389.856 177.763H405.255C404.945 175.787 404.093 174.212 402.698 173.03C401.303 171.849 399.599 171.254 397.584 171.254C395.57 171.254 393.807 171.836 392.412 172.998Z" fill="white"/>
<path d="M418.678 153.006H427.743V196.124H418.678V153.006Z" fill="white"/>
<path fill-rule="evenodd" clip-rule="evenodd" d="M430.663 225.965H0V224.465H430.663V225.965Z" fill="white"/>
<path d="M150.657 125.792C150.786 124.307 151.154 122.797 151.006 121.344C150.663 118.006 149.96 114.706 149.624 111.375C149.45 109.677 149.533 107.875 149.902 106.209C150.463 103.678 152.646 102.671 154.841 104.027C156.591 105.105 158.237 106.539 159.516 108.146C162.815 112.266 165.869 116.579 169.065 120.782C170.027 122.048 171.112 123.21 172.138 124.424C172.326 124.378 172.519 124.333 172.707 124.288C172.868 123.274 173.133 122.261 173.172 121.241C173.604 109.864 169.917 99.9463 162.654 91.2362C158.508 86.2645 154.105 81.6738 148.223 78.7037C146.912 78.0386 146.002 78.2 144.814 79.0265C138.861 83.1588 132.907 87.3105 126.78 91.1716C124.882 92.3661 122.467 92.8632 120.214 93.3281C118.315 93.722 116.753 92.676 115.532 91.191C111 85.6898 112.737 77.5867 119.264 74.2485C124.72 71.4592 130.628 70.9492 136.62 71.3947C139.235 71.5884 141.798 72.3632 144.413 72.615C145.33 72.7054 146.505 72.2599 147.241 71.6658C153.524 66.6038 160.374 62.5425 168.135 60.2956C180.558 56.6927 193.174 55.2981 205.952 58.2875C208.554 58.8945 211.008 60.1406 213.578 60.9412C214.398 61.1995 215.515 61.2899 216.244 60.9412C225.051 56.7186 234.375 56.2924 243.873 56.9768C251.504 57.5321 258.962 58.8945 266.097 61.7742C272.153 64.2213 277.706 67.5077 282.697 71.7175C283.756 72.6085 284.698 72.7829 286.093 72.4536C294.39 70.523 302.654 70.3099 310.525 74.1388C316.801 77.1863 318.803 84.1208 315.355 89.9706C313.489 93.1409 310.693 94.4387 307.284 93.0569C303.804 91.6494 300.395 89.9254 297.237 87.9045C293.002 85.1927 289.005 82.1064 284.97 79.0911C283.872 78.2711 283 78.1096 281.735 78.7489C277.06 81.1314 273.16 84.4437 269.732 88.3629C264.799 94.0061 260.46 99.9915 258.368 107.339C256.986 112.182 256.56 117.121 256.754 122.125C256.779 122.816 257.018 123.494 257.264 124.669C258.232 123.649 258.975 122.997 259.562 122.222C263.191 117.45 266.723 112.595 270.435 107.888C271.604 106.409 273.102 105.099 274.678 104.059C277.047 102.497 279.591 103.465 279.998 106.261C280.379 108.876 280.146 111.614 279.933 114.28C279.746 116.663 279.113 119.013 278.907 121.395C278.784 122.816 279.107 124.269 279.229 125.709C279.475 125.76 279.714 125.818 279.959 125.87C280.611 124.934 281.405 124.062 281.896 123.042C285.325 115.985 287.765 108.618 288.773 100.805C289.024 98.8551 289.948 97.9253 291.439 98.1448C292.944 98.3644 293.544 99.4491 293.286 101.444C292.266 109.179 289.954 116.54 286.706 123.61C285.893 125.386 284.802 127.097 283.562 128.614C280.96 131.817 277.086 131.268 275.33 127.555C274.129 125.018 274.09 122.325 274.49 119.62C274.949 116.534 275.498 113.46 275.975 110.38C276.092 109.625 276.092 108.857 275.775 107.875C275.284 108.476 274.755 109.05 274.303 109.683C270.745 114.59 267.233 119.523 263.637 124.398C262.72 125.644 261.635 126.806 260.453 127.807C257.348 130.422 253.887 129.357 252.822 125.45C251.743 121.492 252.182 117.457 252.583 113.46C253.654 102.878 258.697 94.161 265.528 86.3032C269.215 82.0612 273.251 78.2517 278.222 75.5334C278.526 75.372 278.778 75.1202 279.049 74.9071C270.481 63.3819 232.974 56.6282 220.002 64.3956C220.977 65.1704 221.881 65.9 222.798 66.6102C235.162 76.1533 241.813 88.5824 241.877 104.343C241.91 111.704 241.309 118.974 238.636 125.922C238.1 127.31 237.442 128.685 236.622 129.925C233.794 134.193 228.97 134.367 226.446 129.938C224.451 126.445 222.979 122.558 221.9 118.671C220.48 113.544 219.679 108.243 218.582 103.026C218.401 102.148 218.123 101.283 217.807 100.443C217.31 99.1327 216.509 98.1448 214.934 98.1448C213.365 98.1448 212.422 99.0617 212.047 100.411C211.337 103.007 210.84 105.66 210.181 108.269C208.683 114.183 207.237 120.117 205.565 125.986C205.1 127.607 204.073 129.137 203.04 130.512C200.348 134.089 195.912 134.115 193.62 130.319C191.941 127.542 190.63 124.411 189.823 121.273C188.119 114.622 187.841 107.843 188.229 100.941C189.068 85.7286 196.525 74.4939 208.335 65.6288C208.806 65.2737 209.258 64.9057 209.742 64.5247C200.128 56.2408 159.832 63.2786 150.625 74.9007C151.251 75.3268 151.858 75.7465 152.478 76.1662C164.281 84.1338 172.726 94.5936 176.342 108.566C177.614 113.48 177.788 118.516 177.368 123.565C177.31 124.275 177.136 124.992 176.91 125.67C175.735 129.24 172.649 130.351 169.762 127.923C167.774 126.251 166.114 124.127 164.532 122.035C161.53 118.064 158.689 113.97 155.777 109.928C155.261 109.212 154.705 108.527 153.769 107.94C153.769 108.773 153.679 109.618 153.782 110.438C154.311 114.597 155.022 118.735 155.377 122.9C155.506 124.378 155.028 126.012 154.447 127.42C152.891 131.152 148.856 131.855 146.454 128.601C144.484 125.941 142.922 122.9 141.63 119.833C139.158 113.964 137.453 107.849 136.678 101.496C136.439 99.5718 136.956 98.4741 138.312 98.2546C139.777 98.0157 140.701 98.939 140.972 100.928C141.986 108.482 144.265 115.649 147.577 122.493C148.158 123.701 148.991 124.785 149.714 125.928C150.031 125.876 150.347 125.831 150.663 125.78L150.657 125.792ZM192.445 105.267C192.406 111.491 192.961 117.212 194.692 122.751C195.234 124.495 196.112 126.167 197.061 127.736C197.778 128.924 198.908 128.847 199.676 127.691C200.406 126.6 201.181 125.457 201.523 124.217C202.969 119.032 204.261 113.809 205.61 108.598C206.585 104.847 207.45 101.057 208.593 97.3507C209.142 95.5751 210.556 94.1223 212.486 93.9738C217.323 93.6122 219.996 93.2119 222.094 99.307C222.346 100.043 222.611 100.779 222.778 101.535C223.979 107.094 224.993 112.698 226.394 118.206C227.169 121.253 228.396 124.23 229.765 127.071C230.733 129.079 232.012 128.989 233.251 127.135C233.781 126.348 234.207 125.463 234.51 124.566C237.442 116.004 237.945 107.197 236.925 98.2869C235.337 84.3856 227.35 74.7328 216.089 67.3011C215.198 66.7136 214.501 66.8104 213.636 67.3528C206.043 72.1178 200.096 78.4067 196.132 86.4646C193.155 92.5146 192.277 99.0229 192.425 105.267H192.445ZM140.694 76.7989C140.643 76.6052 140.584 76.4115 140.533 76.2178C139.674 76.0693 138.809 75.7788 137.957 75.7917C134.257 75.8433 130.518 75.6755 126.877 76.2049C124.488 76.5536 122.041 77.6383 119.988 78.9555C117.076 80.8215 116.52 84.095 118.051 87.2136C119.071 89.3056 119.955 89.848 122.021 88.7051C126.619 86.1612 131.087 83.3783 135.542 80.5955C137.35 79.4656 138.983 78.0709 140.701 76.7989H140.694ZM289.483 76.2243L289.25 76.7796C292.04 78.807 294.732 80.9893 297.644 82.8231C301.027 84.9538 304.546 86.8908 308.117 88.6858C309.97 89.6155 310.693 89.1313 311.655 87.2394C313.663 83.2879 311.92 79.1944 307.142 77.393C301.395 75.2364 295.436 75.4043 289.476 76.2243H289.483Z" fill="white"/>
<path d="M290.702 40.9128C297.113 40.8224 302.265 45.878 302.33 52.3283C302.395 58.4751 297.223 63.8406 291.16 63.9116C284.484 63.9891 279.221 58.9529 279.17 52.4316C279.118 46.0588 284.174 41.0097 290.695 40.9128H290.702ZM297.81 52.5543C297.901 48.5898 294.653 45.1936 290.76 45.1807C287.008 45.1678 283.741 48.3897 283.683 52.1604C283.618 56.1829 286.582 59.3209 290.54 59.4178C294.511 59.5146 297.726 56.48 297.81 52.5543Z" fill="white"/>
<path d="M203.492 41.835C203.583 35.275 208.677 30.4002 215.347 30.497C221.565 30.5939 226.472 35.8367 226.388 42.2999C226.304 48.6533 221.087 53.541 214.514 53.4313C208.29 53.328 203.402 48.182 203.492 41.835ZM222.12 41.8931C222.049 37.9739 218.692 34.752 214.734 34.8101C210.976 34.8618 207.618 38.3032 207.657 42.061C207.702 45.8834 211.215 49.2344 215.082 49.144C218.918 49.0536 222.185 45.6897 222.114 41.8931H222.12Z" fill="white"/>
<path d="M150.449 52.7793C150.32 59.0294 145.187 63.943 138.911 63.8267C132.751 63.7105 127.405 58.261 127.586 52.2692C127.786 45.7479 133.01 40.6923 139.544 41.0087C146.433 41.3445 150.113 46.187 150.443 52.7793H150.449ZM131.944 52.2757C131.841 56.931 135.566 59.7848 138.879 59.914C142.527 60.056 146.782 55.6138 146.84 52.0239C146.885 49.0409 142.488 45.0894 139.144 45.1152C135.14 45.141 131.918 48.35 131.944 52.2692V52.2757Z" fill="white"/>
<path d="M271.136 15.2395C270.606 16.5567 270.367 17.4219 269.935 18.1903C267.804 21.9674 265.628 25.7123 263.465 29.4701C262.368 31.3749 260.812 32.3111 258.752 31.1424C256.66 29.9544 256.757 28.1271 257.848 26.2418C260.101 22.329 262.226 18.3323 264.718 14.5745C265.396 13.5543 267.197 12.7731 268.456 12.8183C269.386 12.8506 270.258 14.3937 271.136 15.246V15.2395Z" fill="white"/>
<path d="M192.968 2.59108C193.769 1.90667 194.725 0.518478 195.99 0.131075C197.792 -0.424202 199.16 0.854227 199.509 2.65565C200.439 7.44008 201.272 12.2503 202.008 17.067C202.286 18.8814 201.44 20.3212 199.541 20.6957C197.701 21.0573 196.184 20.2502 195.809 18.3907C194.809 13.4384 194.002 8.44732 192.956 2.59108H192.968Z" fill="white"/>
<path d="M172.411 29.0444C171.875 29.632 171.203 31.0008 170.254 31.2332C169.169 31.498 167.213 31.1493 166.716 30.368C163.927 26.0549 161.318 21.6063 159.019 17.0155C158.567 16.1116 159.375 13.9099 160.291 13.1867C161.015 12.6185 163.526 12.9284 163.998 13.6581C166.935 18.1907 169.525 22.9493 172.211 27.6433C172.333 27.8628 172.294 28.1727 172.411 29.0444Z" fill="white"/>
<path d="M231.381 20.7793C228.534 20.7212 227.113 19.1909 227.429 17.0989C228.159 12.2758 228.992 7.46552 229.922 2.6811C230.296 0.750539 231.684 -0.288992 233.718 0.0725836C235.668 0.41479 236.495 1.87401 236.217 3.66897C235.468 8.57608 234.667 13.4896 233.583 18.3322C233.337 19.4427 231.865 20.2756 231.387 20.7857L231.381 20.7793Z" fill="white"/>
<path d="M12.9392 257.642H4.2193L2.41438 261.745H0L7.43066 245.336H9.75128L17.2054 261.745H14.7441L12.9392 257.642ZM12.1188 255.767L8.57925 247.727L5.03972 255.767H12.1188Z" fill="white"/>
<path d="M33.2851 261.932C31.6442 261.932 30.1597 261.573 28.8314 260.854C27.5187 260.119 26.4873 259.119 25.7372 257.853C24.9871 256.572 24.6121 255.134 24.6121 253.54C24.6121 251.946 24.9871 250.516 25.7372 249.251C26.4873 247.969 27.5265 246.969 28.8548 246.25C30.1831 245.516 31.6677 245.149 33.3085 245.149C34.5899 245.149 35.7619 245.367 36.8246 245.805C37.8872 246.227 38.7936 246.86 39.5437 247.704L38.0201 249.18C36.7855 247.883 35.2463 247.235 33.4023 247.235C32.1834 247.235 31.0817 247.508 30.0971 248.055C29.1126 248.602 28.3391 249.36 27.7765 250.329C27.2296 251.282 26.9561 252.353 26.9561 253.54C26.9561 254.728 27.2296 255.806 27.7765 256.775C28.3391 257.728 29.1126 258.478 30.0971 259.025C31.0817 259.572 32.1834 259.846 33.4023 259.846C35.2306 259.846 36.7699 259.189 38.0201 257.877L39.5437 259.354C38.7936 260.197 37.8794 260.838 36.8011 261.276C35.7385 261.713 34.5665 261.932 33.2851 261.932Z" fill="white"/>
<path d="M47.6008 261.932C46.3663 261.932 45.1708 261.745 44.0144 261.369C42.8737 260.979 41.9751 260.479 41.3188 259.869L42.1861 258.041C42.8112 258.603 43.6081 259.064 44.577 259.424C45.5615 259.768 46.5695 259.94 47.6008 259.94C48.9604 259.94 49.9762 259.713 50.6481 259.26C51.3201 258.791 51.6561 258.174 51.6561 257.408C51.6561 256.845 51.4685 256.392 51.0935 256.048C50.7341 255.689 50.2809 255.416 49.7339 255.228C49.2026 255.041 48.4447 254.83 47.4602 254.595C46.2257 254.298 45.2255 254.001 44.4598 253.704C43.7097 253.407 43.0612 252.954 42.5142 252.345C41.9829 251.72 41.7173 250.884 41.7173 249.837C41.7173 248.962 41.9439 248.172 42.397 247.469C42.8659 246.766 43.5691 246.203 44.5067 245.781C45.4443 245.36 46.6085 245.149 47.9993 245.149C48.9682 245.149 49.9215 245.274 50.8591 245.524C51.7967 245.774 52.6015 246.133 53.2735 246.602L52.4999 248.477C51.8123 248.04 51.0779 247.711 50.2965 247.493C49.5152 247.258 48.7494 247.141 47.9993 247.141C46.671 247.141 45.6709 247.383 44.9989 247.868C44.3426 248.352 44.0144 248.977 44.0144 249.743C44.0144 250.306 44.202 250.767 44.577 251.126C44.9521 251.47 45.4131 251.743 45.96 251.946C46.5226 252.134 47.2805 252.337 48.2337 252.556C49.4683 252.853 50.4606 253.15 51.2107 253.447C51.9608 253.743 52.6015 254.197 53.1328 254.806C53.6798 255.416 53.9532 256.236 53.9532 257.267C53.9532 258.127 53.7188 258.916 53.25 259.635C52.7812 260.338 52.0702 260.901 51.1169 261.323C50.1637 261.729 48.9917 261.932 47.6008 261.932Z" fill="white"/>
<path d="M68.3479 261.745L64.8084 256.705C64.3709 256.736 64.0271 256.752 63.777 256.752H59.7218V261.745H57.3778V245.336H63.777C65.9023 245.336 67.5744 245.844 68.7933 246.86C70.0122 247.876 70.6217 249.274 70.6217 251.056C70.6217 252.321 70.3091 253.4 69.6841 254.29C69.059 255.181 68.1682 255.83 67.0118 256.236L70.903 261.745H68.3479ZM63.7067 254.759C65.1913 254.759 66.3242 254.439 67.1056 253.798C67.887 253.157 68.2776 252.243 68.2776 251.056C68.2776 249.868 67.887 248.962 67.1056 248.337C66.3242 247.696 65.1913 247.375 63.7067 247.375H59.7218V254.759H63.7067Z" fill="white"/>
<path d="M80.7039 245.336H83.0479V261.745H80.7039V245.336Z" fill="white"/>
<path d="M94.2659 249.204C95.8442 249.204 97.0944 249.665 98.0164 250.587C98.954 251.493 99.4228 252.829 99.4228 254.595V261.745H97.1725V254.853C97.1725 253.65 96.8834 252.743 96.3052 252.134C95.727 251.524 94.8988 251.22 93.8205 251.22C92.6016 251.22 91.6406 251.579 90.9373 252.298C90.2341 253.001 89.8825 254.017 89.8825 255.345V261.745H87.6322V249.321H89.7887V251.196C90.2419 250.556 90.8514 250.063 91.6171 249.719C92.3985 249.376 93.2814 249.204 94.2659 249.204Z" fill="white"/>
<path d="M103.587 249.321H105.838V261.745H103.587V249.321ZM104.713 246.93C104.275 246.93 103.908 246.789 103.611 246.508C103.33 246.227 103.189 245.883 103.189 245.477C103.189 245.07 103.33 244.727 103.611 244.445C103.908 244.148 104.275 244 104.713 244C105.15 244 105.509 244.141 105.791 244.422C106.088 244.688 106.236 245.024 106.236 245.43C106.236 245.852 106.088 246.211 105.791 246.508C105.509 246.789 105.15 246.93 104.713 246.93Z" fill="white"/>
<path d="M117.12 261.018C116.791 261.299 116.385 261.518 115.901 261.674C115.416 261.815 114.916 261.885 114.4 261.885C113.15 261.885 112.181 261.549 111.494 260.877C110.806 260.205 110.462 259.244 110.462 257.994V251.173H108.353V249.321H110.462V246.602H112.713V249.321H116.276V251.173H112.713V257.9C112.713 258.572 112.877 259.088 113.205 259.447C113.549 259.807 114.033 259.986 114.658 259.986C115.346 259.986 115.932 259.791 116.416 259.4L117.12 261.018Z" fill="white"/>
<path d="M119.84 249.321H122.09V261.745H119.84V249.321ZM120.965 246.93C120.528 246.93 120.16 246.789 119.864 246.508C119.582 246.227 119.442 245.883 119.442 245.477C119.442 245.07 119.582 244.727 119.864 244.445C120.16 244.148 120.528 244 120.965 244C121.403 244 121.762 244.141 122.044 244.422C122.34 244.688 122.489 245.024 122.489 245.43C122.489 245.852 122.34 246.211 122.044 246.508C121.762 246.789 121.403 246.93 120.965 246.93Z" fill="white"/>
<path d="M130.911 249.204C132.63 249.204 133.943 249.626 134.849 250.47C135.771 251.313 136.232 252.571 136.232 254.244V261.745H134.099V260.104C133.724 260.682 133.185 261.127 132.482 261.44C131.794 261.737 130.974 261.885 130.02 261.885C128.629 261.885 127.512 261.549 126.668 260.877C125.84 260.205 125.426 259.322 125.426 258.228C125.426 257.135 125.824 256.259 126.621 255.603C127.418 254.931 128.684 254.595 130.419 254.595H133.982V254.15C133.982 253.181 133.7 252.439 133.138 251.923C132.575 251.407 131.747 251.149 130.653 251.149C129.919 251.149 129.2 251.274 128.497 251.524C127.793 251.759 127.2 252.079 126.715 252.485L125.778 250.798C126.418 250.282 127.184 249.891 128.075 249.626C128.965 249.344 129.911 249.204 130.911 249.204ZM130.395 260.151C131.255 260.151 131.997 259.963 132.622 259.588C133.247 259.197 133.7 258.65 133.982 257.947V256.213H130.513C128.606 256.213 127.653 256.853 127.653 258.135C127.653 258.76 127.895 259.252 128.379 259.611C128.864 259.971 129.536 260.151 130.395 260.151Z" fill="white"/>
<path d="M147.382 261.018C147.054 261.299 146.647 261.518 146.163 261.674C145.678 261.815 145.178 261.885 144.663 261.885C143.412 261.885 142.444 261.549 141.756 260.877C141.068 260.205 140.725 259.244 140.725 257.994V251.173H138.615V249.321H140.725V246.602H142.975V249.321H146.538V251.173H142.975V257.9C142.975 258.572 143.139 259.088 143.467 259.447C143.811 259.807 144.295 259.986 144.92 259.986C145.608 259.986 146.194 259.791 146.678 259.4L147.382 261.018Z" fill="white"/>
<path d="M150.102 249.321H152.353V261.745H150.102V249.321ZM151.227 246.93C150.79 246.93 150.423 246.789 150.126 246.508C149.844 246.227 149.704 245.883 149.704 245.477C149.704 245.07 149.844 244.727 150.126 244.445C150.423 244.148 150.79 244 151.227 244C151.665 244 152.024 244.141 152.306 244.422C152.603 244.688 152.751 245.024 152.751 245.43C152.751 245.852 152.603 246.211 152.306 246.508C152.024 246.789 151.665 246.93 151.227 246.93Z" fill="white"/>
<path d="M167.643 249.321L162.205 261.745H159.907L154.469 249.321H156.813L161.079 259.283L165.439 249.321H167.643Z" fill="white"/>
<path d="M180.628 255.603C180.628 255.775 180.612 256.002 180.581 256.283H170.501C170.642 257.377 171.119 258.26 171.931 258.932C172.759 259.588 173.783 259.916 175.002 259.916C176.486 259.916 177.682 259.416 178.588 258.416L179.831 259.869C179.268 260.526 178.565 261.026 177.721 261.369C176.893 261.713 175.963 261.885 174.932 261.885C173.619 261.885 172.455 261.619 171.439 261.088C170.423 260.541 169.634 259.783 169.071 258.814C168.524 257.846 168.251 256.752 168.251 255.533C168.251 254.329 168.517 253.243 169.048 252.275C169.595 251.306 170.337 250.556 171.275 250.024C172.228 249.477 173.298 249.204 174.486 249.204C175.674 249.204 176.729 249.477 177.651 250.024C178.588 250.556 179.315 251.306 179.831 252.275C180.362 253.243 180.628 254.353 180.628 255.603ZM174.486 251.102C173.408 251.102 172.501 251.431 171.767 252.087C171.048 252.743 170.626 253.603 170.501 254.665H178.471C178.346 253.618 177.916 252.767 177.182 252.11C176.463 251.438 175.564 251.102 174.486 251.102Z" fill="white"/>
<path d="M195.368 261.885C194.134 261.885 193.024 261.612 192.04 261.065C191.055 260.518 190.282 259.768 189.719 258.814C189.172 257.846 188.899 256.752 188.899 255.533C188.899 254.314 189.172 253.228 189.719 252.275C190.282 251.306 191.055 250.556 192.04 250.024C193.024 249.477 194.134 249.204 195.368 249.204C196.603 249.204 197.705 249.477 198.674 250.024C199.658 250.556 200.424 251.306 200.971 252.275C201.533 253.228 201.815 254.314 201.815 255.533C201.815 256.752 201.533 257.846 200.971 258.814C200.424 259.768 199.658 260.518 198.674 261.065C197.705 261.612 196.603 261.885 195.368 261.885ZM195.368 259.916C196.165 259.916 196.876 259.736 197.501 259.377C198.142 259.002 198.642 258.486 199.002 257.83C199.361 257.158 199.541 256.392 199.541 255.533C199.541 254.673 199.361 253.915 199.002 253.259C198.642 252.587 198.142 252.071 197.501 251.712C196.876 251.353 196.165 251.173 195.368 251.173C194.571 251.173 193.853 251.353 193.212 251.712C192.587 252.071 192.087 252.587 191.712 253.259C191.352 253.915 191.173 254.673 191.173 255.533C191.173 256.392 191.352 257.158 191.712 257.83C192.087 258.486 192.587 259.002 193.212 259.377C193.853 259.736 194.571 259.916 195.368 259.916Z" fill="white"/>
<path d="M209.474 246.063C208.13 246.063 207.458 246.789 207.458 248.243V249.321H211.068V251.173H207.505V261.745H205.255V251.173H203.145V249.321H205.255V248.219C205.255 246.985 205.614 246.008 206.333 245.289C207.052 244.57 208.06 244.211 209.357 244.211C209.857 244.211 210.326 244.273 210.763 244.398C211.201 244.524 211.576 244.703 211.888 244.938L211.209 246.649C210.693 246.258 210.115 246.063 209.474 246.063Z" fill="white"/>
<path d="M219.298 245.336H223.095V261.745H219.298V245.336Z" fill="white"/>
<path d="M239.577 244.352V261.745H236.084V260.291C235.178 261.385 233.865 261.932 232.146 261.932C230.959 261.932 229.88 261.666 228.911 261.135C227.958 260.604 227.208 259.846 226.661 258.861C226.114 257.877 225.841 256.736 225.841 255.439C225.841 254.142 226.114 253.001 226.661 252.017C227.208 251.032 227.958 250.274 228.911 249.743C229.88 249.212 230.959 248.946 232.146 248.946C233.756 248.946 235.014 249.454 235.92 250.47V244.352H239.577ZM232.779 258.932C233.701 258.932 234.467 258.619 235.076 257.994C235.686 257.353 235.991 256.502 235.991 255.439C235.991 254.376 235.686 253.532 235.076 252.907C234.467 252.267 233.701 251.946 232.779 251.946C231.842 251.946 231.068 252.267 230.459 252.907C229.849 253.532 229.544 254.376 229.544 255.439C229.544 256.502 229.849 257.353 230.459 257.994C231.068 258.619 231.842 258.932 232.779 258.932Z" fill="white"/>
<path d="M255.315 255.486C255.315 255.533 255.291 255.861 255.244 256.47H245.704C245.876 257.252 246.282 257.869 246.923 258.322C247.564 258.775 248.361 259.002 249.314 259.002C249.97 259.002 250.548 258.908 251.048 258.721C251.564 258.518 252.041 258.205 252.478 257.783L254.424 259.893C253.236 261.252 251.502 261.932 249.22 261.932C247.798 261.932 246.54 261.659 245.446 261.112C244.352 260.549 243.508 259.776 242.914 258.791C242.321 257.806 242.024 256.689 242.024 255.439C242.024 254.204 242.313 253.095 242.891 252.11C243.485 251.11 244.29 250.337 245.305 249.79C246.337 249.227 247.485 248.946 248.751 248.946C249.986 248.946 251.103 249.212 252.103 249.743C253.103 250.274 253.885 251.04 254.447 252.04C255.025 253.025 255.315 254.173 255.315 255.486ZM248.775 251.712C247.946 251.712 247.251 251.946 246.688 252.415C246.126 252.884 245.782 253.525 245.657 254.337H251.869C251.744 253.54 251.4 252.907 250.837 252.439C250.275 251.954 249.587 251.712 248.775 251.712Z" fill="white"/>
<path d="M262.492 248.946C264.446 248.946 265.946 249.415 266.993 250.352C268.04 251.274 268.563 252.673 268.563 254.548V261.745H265.141V260.174C264.454 261.346 263.172 261.932 261.297 261.932C260.328 261.932 259.484 261.768 258.765 261.44C258.062 261.112 257.523 260.658 257.148 260.08C256.773 259.502 256.585 258.846 256.585 258.111C256.585 256.939 257.023 256.017 257.898 255.345C258.789 254.673 260.156 254.337 262 254.337H264.907C264.907 253.54 264.664 252.931 264.18 252.509C263.696 252.071 262.969 251.853 262 251.853C261.328 251.853 260.664 251.962 260.008 252.181C259.367 252.384 258.82 252.665 258.367 253.025L257.054 250.47C257.742 249.985 258.562 249.61 259.515 249.344C260.484 249.079 261.477 248.946 262.492 248.946ZM262.211 259.471C262.836 259.471 263.391 259.33 263.875 259.049C264.36 258.752 264.704 258.322 264.907 257.76V256.47H262.399C260.898 256.47 260.148 256.963 260.148 257.947C260.148 258.416 260.328 258.791 260.687 259.072C261.062 259.338 261.57 259.471 262.211 259.471Z" fill="white"/>
<path d="M276.116 261.932C275.069 261.932 274.045 261.807 273.045 261.557C272.045 261.291 271.248 260.963 270.654 260.572L271.873 257.947C272.435 258.307 273.115 258.603 273.912 258.838C274.709 259.057 275.491 259.166 276.256 259.166C277.803 259.166 278.577 258.783 278.577 258.017C278.577 257.658 278.366 257.4 277.944 257.244C277.522 257.088 276.874 256.955 275.998 256.845C274.967 256.689 274.115 256.509 273.443 256.306C272.771 256.103 272.185 255.744 271.685 255.228C271.201 254.712 270.959 253.978 270.959 253.025C270.959 252.228 271.185 251.524 271.639 250.915C272.107 250.29 272.779 249.805 273.654 249.462C274.545 249.118 275.592 248.946 276.795 248.946C277.686 248.946 278.569 249.048 279.444 249.251C280.335 249.438 281.069 249.704 281.648 250.048L280.429 252.65C279.319 252.024 278.108 251.712 276.795 251.712C276.014 251.712 275.428 251.821 275.037 252.04C274.647 252.259 274.451 252.54 274.451 252.884C274.451 253.275 274.662 253.548 275.084 253.704C275.506 253.861 276.178 254.009 277.1 254.15C278.132 254.322 278.975 254.509 279.632 254.712C280.288 254.9 280.858 255.251 281.343 255.767C281.827 256.283 282.07 257.002 282.07 257.924C282.07 258.705 281.835 259.4 281.366 260.01C280.898 260.619 280.21 261.096 279.304 261.44C278.413 261.768 277.35 261.932 276.116 261.932Z" fill="white"/>
<path d="M295.583 258.65V261.745H283.183V259.283L289.512 253.306C290.184 252.665 290.637 252.118 290.871 251.665C291.106 251.196 291.223 250.735 291.223 250.282C291.223 249.626 290.996 249.126 290.543 248.782C290.105 248.422 289.457 248.243 288.597 248.243C287.879 248.243 287.23 248.383 286.652 248.665C286.074 248.93 285.589 249.337 285.199 249.884L282.433 248.102C283.073 247.149 283.956 246.407 285.081 245.875C286.206 245.328 287.496 245.055 288.949 245.055C290.168 245.055 291.231 245.258 292.137 245.664C293.059 246.055 293.77 246.618 294.27 247.352C294.786 248.071 295.044 248.923 295.044 249.907C295.044 250.798 294.856 251.634 294.481 252.415C294.106 253.197 293.379 254.087 292.301 255.087L288.527 258.65H295.583Z" fill="white"/>
<path d="M298.181 245.336H301.978V261.745H298.181V245.336Z" fill="white"/>
<path d="M309.271 248.43H304.021V245.336H318.319V248.43H313.069V261.745H309.271V248.43Z" fill="white"/>
<path d="M339.175 262.002L336.995 259.822C335.542 261.229 333.713 261.932 331.51 261.932C330.416 261.932 329.431 261.752 328.556 261.393C327.681 261.033 326.994 260.533 326.493 259.893C326.009 259.236 325.767 258.494 325.767 257.666C325.767 256.666 326.072 255.783 326.681 255.017C327.306 254.236 328.33 253.439 329.752 252.626C329.033 251.907 328.525 251.259 328.228 250.681C327.931 250.102 327.783 249.501 327.783 248.876C327.783 247.766 328.181 246.875 328.978 246.203C329.791 245.531 330.869 245.195 332.213 245.195C333.463 245.195 334.455 245.5 335.19 246.11C335.924 246.719 336.292 247.555 336.292 248.618C336.292 249.446 336.018 250.188 335.471 250.845C334.94 251.501 334.049 252.189 332.799 252.907L336.854 256.939C337.323 256.048 337.659 255.056 337.862 253.962L339.667 254.548C339.386 255.986 338.909 257.236 338.237 258.299L340.441 260.502L339.175 262.002ZM332.213 246.836C331.479 246.836 330.9 247.024 330.478 247.399C330.072 247.758 329.869 248.235 329.869 248.829C329.869 249.251 329.978 249.657 330.197 250.048C330.432 250.438 330.877 250.97 331.533 251.642C332.611 251.032 333.354 250.509 333.76 250.071C334.182 249.634 334.393 249.157 334.393 248.641C334.393 248.094 334.198 247.657 333.807 247.329C333.432 247 332.901 246.836 332.213 246.836ZM331.65 260.057C333.276 260.057 334.612 259.541 335.659 258.51L330.994 253.868C329.869 254.494 329.08 255.08 328.627 255.627C328.189 256.158 327.97 256.759 327.97 257.431C327.97 258.213 328.306 258.846 328.978 259.33C329.666 259.815 330.557 260.057 331.65 260.057Z" fill="white"/>
<path d="M349.022 245.336H352.82V261.745H349.022V245.336Z" fill="white"/>
<path d="M369.301 244.352V261.745H365.809V260.291C364.902 261.385 363.59 261.932 361.871 261.932C360.683 261.932 359.605 261.666 358.636 261.135C357.683 260.604 356.933 259.846 356.386 258.861C355.839 257.877 355.565 256.736 355.565 255.439C355.565 254.142 355.839 253.001 356.386 252.017C356.933 251.032 357.683 250.274 358.636 249.743C359.605 249.212 360.683 248.946 361.871 248.946C363.48 248.946 364.738 249.454 365.645 250.47V244.352H369.301ZM362.504 258.932C363.426 258.932 364.191 258.619 364.801 257.994C365.41 257.353 365.715 256.502 365.715 255.439C365.715 254.376 365.41 253.532 364.801 252.907C364.191 252.267 363.426 251.946 362.504 251.946C361.566 251.946 360.792 252.267 360.183 252.907C359.574 253.532 359.269 254.376 359.269 255.439C359.269 256.502 359.574 257.353 360.183 257.994C360.792 258.619 361.566 258.932 362.504 258.932Z" fill="white"/>
<path d="M385.039 255.486C385.039 255.533 385.015 255.861 384.969 256.47H375.428C375.6 257.252 376.006 257.869 376.647 258.322C377.288 258.775 378.085 259.002 379.038 259.002C379.694 259.002 380.273 258.908 380.773 258.721C381.288 258.518 381.765 258.205 382.203 257.783L384.148 259.893C382.96 261.252 381.226 261.932 378.944 261.932C377.522 261.932 376.264 261.659 375.17 261.112C374.077 260.549 373.233 259.776 372.639 258.791C372.045 257.806 371.748 256.689 371.748 255.439C371.748 254.204 372.037 253.095 372.615 252.11C373.209 251.11 374.014 250.337 375.03 249.79C376.061 249.227 377.21 248.946 378.476 248.946C379.71 248.946 380.827 249.212 381.828 249.743C382.828 250.274 383.609 251.04 384.172 252.04C384.75 253.025 385.039 254.173 385.039 255.486ZM378.499 251.712C377.671 251.712 376.975 251.946 376.413 252.415C375.85 252.884 375.506 253.525 375.381 254.337H381.593C381.468 253.54 381.124 252.907 380.562 252.439C379.999 251.954 379.312 251.712 378.499 251.712Z" fill="white"/>
<path d="M392.217 248.946C394.17 248.946 395.67 249.415 396.717 250.352C397.764 251.274 398.288 252.673 398.288 254.548V261.745H394.865V260.174C394.178 261.346 392.896 261.932 391.021 261.932C390.052 261.932 389.208 261.768 388.49 261.44C387.786 261.112 387.247 260.658 386.872 260.08C386.497 259.502 386.31 258.846 386.31 258.111C386.31 256.939 386.747 256.017 387.622 255.345C388.513 254.673 389.88 254.337 391.724 254.337H394.631C394.631 253.54 394.389 252.931 393.904 252.509C393.42 252.071 392.693 251.853 391.724 251.853C391.052 251.853 390.388 251.962 389.732 252.181C389.091 252.384 388.544 252.665 388.091 253.025L386.778 250.47C387.466 249.985 388.286 249.61 389.24 249.344C390.209 249.079 391.201 248.946 392.217 248.946ZM391.935 259.471C392.56 259.471 393.115 259.33 393.6 259.049C394.084 258.752 394.428 258.322 394.631 257.76V256.47H392.123C390.623 256.47 389.873 256.963 389.873 257.947C389.873 258.416 390.052 258.791 390.412 259.072C390.787 259.338 391.295 259.471 391.935 259.471Z" fill="white"/>
<path d="M412.31 261.745L409.145 257.174H408.958H405.653V261.745H401.855V245.336H408.958C410.411 245.336 411.669 245.578 412.732 246.063C413.81 246.547 414.638 247.235 415.216 248.126C415.794 249.016 416.084 250.071 416.084 251.29C416.084 252.509 415.787 253.564 415.193 254.454C414.615 255.33 413.786 256.002 412.708 256.47L416.388 261.745H412.31ZM412.239 251.29C412.239 250.368 411.942 249.665 411.349 249.18C410.755 248.68 409.887 248.43 408.747 248.43H405.653V254.15H408.747C409.887 254.15 410.755 253.9 411.349 253.4C411.942 252.9 412.239 252.196 412.239 251.29Z" fill="white"/>
<path d="M426.851 261.745L424.085 257.877L421.225 261.745H417.24L422.093 255.392L417.404 249.133H421.507L424.179 252.814L426.921 249.133H430.812L426.124 255.298L431 261.745H426.851Z" fill="white"/>
</svg>
