<svg width="41" height="40" viewBox="0 0 41 40" fill="none" xmlns="http://www.w3.org/2000/svg">
<path d="M40.0638 27.3346C39.9002 28.1852 39.3783 28.8244 38.8337 29.4598C37.2821 31.2681 35.7868 33.1272 34.1882 34.8924C32.4895 36.7688 30.3236 37.8635 27.8205 38.2539C27.103 38.3658 26.3683 38.4112 25.6406 38.4143C22.1852 38.4308 18.7299 38.4214 15.2745 38.4206C15.1313 38.4206 14.9858 38.4261 14.8457 38.4034C14.4083 38.3329 14.1368 38.0067 14.1587 37.5943C14.1798 37.1999 14.4686 36.9096 14.8927 36.8666C15.0218 36.8533 15.1532 36.8596 15.2839 36.8596C18.7651 36.8596 22.247 36.8541 25.7282 36.8611C27.9449 36.8658 29.9864 36.3032 31.7657 34.9644C32.3956 34.4903 32.9856 33.9386 33.5028 33.3432C35.0646 31.5435 36.5802 29.7039 38.1154 27.8808C38.4166 27.5232 38.5857 27.1367 38.4394 26.6594C38.1952 25.8636 37.3056 25.542 36.6178 26.0123C36.4683 26.114 36.3353 26.2423 36.2062 26.3698C34.4261 28.1453 32.6343 29.9097 30.8745 31.7047C29.8182 32.7821 28.5732 33.3299 27.0623 33.2688C26.9324 33.2634 26.801 33.2774 26.6711 33.2665C26.2845 33.2336 25.9778 33.333 25.6453 33.5826C24.8018 34.2156 23.8769 34.1694 22.9536 33.7094C21.3926 32.9308 19.8237 32.1679 18.2713 31.3729C17.7917 31.1272 17.3136 30.9919 16.7752 31.0255C16.4646 31.0451 16.1477 31.0365 15.8386 31.0005C15.4724 30.9582 15.2064 30.6351 15.1939 30.2751C15.1814 29.9238 15.4341 29.5537 15.798 29.5216C16.769 29.4363 17.7408 29.3557 18.6649 29.826C20.3355 30.6757 22.0185 31.5005 23.6977 32.3314C24.2157 32.5873 24.6085 32.5302 24.9011 32.1757C25.2454 31.7587 25.1594 31.2156 24.6703 30.8557C23.4325 29.9449 22.1883 29.042 20.9458 28.1382C20.1876 27.5866 19.4419 27.0162 18.6633 26.4935C16.9638 25.3534 15.1227 25.1124 13.1814 25.7501C11.5249 26.2947 9.88017 26.8737 8.23074 27.4387C8.17127 27.459 8.11494 27.4895 8.02261 27.5302C8.17754 28.4191 8.3309 29.3002 8.48504 30.1804C8.84497 32.2289 9.22603 34.2735 9.55858 36.3267C9.80114 37.8267 8.90523 39.0129 7.39821 39.2774C6.12827 39.5004 4.85831 39.7218 3.58915 39.9464C2.99839 40.0512 2.61577 39.8063 2.5117 39.2242C2.19089 37.4331 1.87948 35.6405 1.56336 33.8479C1.06493 31.0192 0.565728 28.1899 0.0649507 25.3612C0.0563436 25.3135 0.021909 25.2705 0 25.2251C0 25.0686 0 24.9129 0 24.7564C0.182314 24.3425 0.52581 24.193 0.952253 24.1234C2.18542 23.9223 3.41467 23.6938 4.64627 23.4818C6.14155 23.2235 7.37316 24.071 7.66894 25.5537C7.69397 25.6781 7.72527 25.801 7.75969 25.9497C8.65092 25.6437 9.5093 25.3487 10.3919 25.0459C10.3184 24.6406 10.2315 24.2509 10.1775 23.8566C9.85984 21.5287 10.2839 19.3324 11.3598 17.2494C12.9467 14.1775 14.5218 11.1 16.1125 8.02965C16.24 7.78396 16.2416 7.59851 16.1156 7.35126C15.3457 5.84736 14.589 4.33642 13.8379 2.82313C13.4271 1.99607 13.5421 1.17996 14.1305 0.591543C14.7001 0.0203441 15.5499 -0.115805 16.2933 0.266038C16.7095 0.479651 17.1101 0.724562 17.5186 0.954607C17.8746 1.1557 18.2056 1.10719 18.5452 0.889662C19.0311 0.579024 19.535 0.294989 20.0311 0C20.3183 0 20.6046 0 20.8918 0C21.3754 0.261343 21.8668 0.509385 22.3394 0.789507C22.6969 1.00155 23.06 1.07589 23.3871 0.807504C23.9012 0.388103 24.4645 0.105633 25.1187 0.00156493H25.2752C26.0138 0.0766815 26.6273 0.426443 27.193 0.877925C27.5889 1.19404 27.9872 1.18152 28.4215 0.938958C29.0075 0.611105 29.6092 0.312986 30.2047 0.00156493C30.4136 0.00156493 30.6217 0.00156493 30.8307 0.00156493C30.8612 0.0234739 30.8886 0.0547725 30.9222 0.065727C32.2141 0.485911 32.6922 1.58684 32.099 2.80905C31.3784 4.29417 30.657 5.7785 29.9121 7.2511C29.747 7.57817 29.7634 7.82386 29.9277 8.14624C31.5865 11.3997 33.2281 14.6626 34.8682 17.9255C35.0137 18.2142 35.1248 18.5225 35.2297 18.8292C35.3893 19.2932 35.2179 19.7009 34.8126 19.8699C34.4151 20.0358 34.0098 19.848 33.7907 19.4075C32.0388 15.8817 30.2814 12.359 28.5396 8.82855C28.3995 8.5453 28.2313 8.47722 27.9379 8.478C24.6398 8.48739 21.3417 8.48739 18.0436 8.478C17.7471 8.47722 17.5843 8.5539 17.4427 8.83168C15.8793 11.9005 14.3011 14.9623 12.7236 18.0249C11.7182 19.9779 11.3943 22.0287 11.8207 24.1891C11.8403 24.2893 11.8739 24.3879 11.8997 24.4818C12.5891 24.308 13.2557 24.0944 13.9396 23.9755C16.1086 23.5976 18.0741 24.1281 19.8433 25.4051C21.7439 26.7767 23.6312 28.1672 25.5271 29.5443C26.2572 30.074 26.6617 30.7759 26.6797 31.6836C27.8643 31.8134 28.8596 31.5185 29.6945 30.6734C31.5161 28.8299 33.3549 27.0036 35.1913 25.1742C36.1851 24.1844 37.401 23.9512 38.5419 24.5373C39.232 24.8925 39.7022 25.445 39.9245 26.1969C39.9605 26.319 40.0168 26.4348 40.0638 26.5537V27.3346ZM22.9677 6.92168C24.6359 6.92168 26.3033 6.9162 27.9715 6.92716C28.2384 6.92872 28.3855 6.8583 28.5075 6.60322C29.2078 5.13845 29.9308 3.68384 30.646 2.22611C30.6804 2.15647 30.7399 2.08527 30.7407 2.01485C30.7407 1.89669 30.7407 1.73551 30.6703 1.67213C30.6014 1.61031 30.4191 1.60405 30.3275 1.65178C29.923 1.8607 29.5498 2.13456 29.1343 2.31297C28.7352 2.48433 28.3057 2.6283 27.8776 2.67525C27.1288 2.75741 26.5381 2.34818 25.9637 1.92565C25.3628 1.48277 25.078 1.49607 24.5013 1.94286C23.4731 2.73941 22.3902 2.75428 21.3394 1.98824C20.5483 1.41078 20.3824 1.41626 19.6039 2.04067C18.7001 2.76601 17.7205 2.84974 16.697 2.2848C16.3895 2.115 16.0953 1.91704 15.7776 1.7715C15.6235 1.70108 15.4271 1.72142 15.2494 1.70108C15.2635 1.87948 15.2275 2.08292 15.3003 2.23237C16.0092 3.67915 16.7432 5.11341 17.4529 6.55862C17.5843 6.82622 17.7314 6.93342 18.0428 6.93029C19.6844 6.91229 21.3269 6.92168 22.9685 6.92168H22.9677ZM3.93423 38.2664C4.02422 38.2664 4.07664 38.2743 4.12593 38.2657C5.13923 38.088 6.15409 37.9167 7.16425 37.7257C7.84186 37.5974 8.12666 37.1647 8.00773 36.4801C7.57581 34.009 7.14155 31.538 6.70728 29.067C6.52966 28.0553 6.34969 27.0443 6.17207 26.0334C6.04218 25.2924 5.67365 24.916 5.05003 25.006C3.94441 25.1664 2.8466 25.3824 1.69403 25.5842C2.44206 29.8197 3.18542 34.0247 3.93423 38.2672V38.2664Z" fill="white"/>
<path d="M35.0577 21.3278C35.4693 21.3371 35.8324 21.712 35.8214 22.1165C35.8105 22.5281 35.4372 22.8872 35.0296 22.8778C34.6086 22.8684 34.2651 22.5093 34.2737 22.0883C34.2823 21.6689 34.6438 21.3192 35.0585 21.3285L35.0577 21.3278Z" fill="white"/>
<path d="M12.7511 37.624C12.7605 38.0301 12.3998 38.4041 11.9898 38.4143C11.5829 38.4236 11.2089 38.0645 11.1995 37.6537C11.1901 37.246 11.5485 36.8751 11.96 36.8658C12.3693 36.8571 12.7417 37.214 12.7511 37.624Z" fill="white"/>
<path d="M6.37937 35.563C6.37468 35.9817 6.01866 36.3267 5.59769 36.322C5.17281 36.3166 4.83634 35.9699 4.84104 35.5435C4.84573 35.1264 5.2049 34.7728 5.61725 34.779C6.02883 34.7853 6.38407 35.1507 6.37937 35.563Z" fill="white"/>
</svg>
