<svg width="40" height="40" viewBox="0 0 40 40" fill="none" xmlns="http://www.w3.org/2000/svg">
<g clip-path="url(#clip0_113_358)">
<path d="M31.4944 0C31.6656 0.171176 31.8835 0.316466 31.9996 0.518537C33.7172 3.4995 35.4273 6.48464 37.1182 9.48146C37.2443 9.70524 37.3094 10.066 37.215 10.2814C37.1324 10.4701 36.7925 10.6288 36.5537 10.6488C35.9475 10.6997 35.3346 10.6655 34.6599 10.6655C34.6599 10.8141 34.6599 10.9461 34.6599 11.0772C34.6599 12.0073 34.6633 12.9384 34.6582 13.8686C34.6557 14.3596 34.3986 14.6593 33.9969 14.6618C33.5936 14.6643 33.3306 14.3646 33.3289 13.8761C33.3247 12.6261 33.3239 11.3761 33.3289 10.1269C33.3306 9.58083 33.5727 9.34118 34.1163 9.3345C34.5564 9.32866 34.9973 9.33367 35.5116 9.33367C34.108 6.87709 32.7369 4.47896 31.3274 2.01236C29.9204 4.47311 28.5535 6.86373 27.1415 9.33367C27.6075 9.33367 28.0125 9.33283 28.4174 9.33367C29.1205 9.33534 29.3318 9.54409 29.3251 10.258C29.3067 12.0908 29.3593 13.9279 29.2441 15.754C28.8842 21.4529 26.8034 26.4796 23.1168 30.8292C20.0991 34.3896 16.3742 36.9472 11.9729 38.5137C11.9086 38.5362 11.8476 38.5671 11.6973 38.6314H22.6609C22.6609 38.3567 22.6609 38.0711 22.6609 37.7856C22.6609 36.994 22.6551 36.2024 22.6634 35.4108C22.6676 34.9549 22.939 34.6652 23.3314 34.6677C23.7222 34.6702 23.9886 34.9608 23.9919 35.4192C23.9986 36.4855 23.9944 37.5518 23.9944 38.6406H27.9949V38.2131C27.9949 35.5745 27.9949 32.9359 27.9949 30.2973C27.9949 30.1586 27.9807 30.015 28.0108 29.8823C28.0859 29.5458 28.3047 29.3437 28.6537 29.3395C29.0044 29.3353 29.2249 29.5357 29.3084 29.8689C29.3409 30.0008 29.3267 30.1453 29.3267 30.2839C29.3276 32.9083 29.3267 35.5336 29.3267 38.158V38.6373H33.3264C33.3264 38.4661 33.3264 38.3041 33.3264 38.1413C33.3264 32.8783 33.3264 27.6144 33.3264 22.3514C33.3264 22.2128 33.3139 22.0716 33.3348 21.9355C33.3899 21.574 33.607 21.3627 33.9744 21.3385C34.3176 21.316 34.6081 21.579 34.6516 21.9405C34.6683 22.0775 34.6591 22.2178 34.6591 22.3564C34.6591 27.606 34.6591 32.8549 34.6591 38.1045C34.6591 38.2699 34.6591 38.436 34.6591 38.6331H38.6587C38.6587 38.4611 38.6587 38.2857 38.6587 38.1112C38.6587 28.8619 38.6587 19.6134 38.6587 10.3641C38.6587 9.65097 38.8717 9.32866 39.3359 9.33701C39.7877 9.34452 39.9914 9.65765 39.9914 10.3449C39.9914 19.899 39.9914 29.4539 39.9914 39.008C39.9914 39.8079 39.806 39.9975 39.0211 39.9975C26.3283 39.9975 13.6354 39.9975 0.941646 39.9975C0.816395 39.9975 0.68864 40.01 0.567564 39.9866C0.213523 39.9148 -0.00274288 39.6986 -0.000237872 39.3262C0.00226714 38.9537 0.218533 38.7275 0.57842 38.6774C0.82391 38.6431 1.07775 38.6623 1.32742 38.6648C3.62034 38.6915 5.90908 38.6673 8.1661 38.1822C15.4515 36.6166 20.9859 32.6094 24.7484 26.1932C26.9428 22.4507 27.9732 18.3684 27.9941 14.0314C27.9991 12.9242 27.9941 11.8161 27.9941 10.6655C27.3653 10.6655 26.7725 10.6688 26.1788 10.6655C25.4081 10.6605 25.1242 10.1812 25.5058 9.51152C27.2225 6.49883 28.9418 3.48697 30.6728 0.481797C30.7822 0.291416 30.9951 0.159486 31.1604 0.000835003C31.2715 0.000835003 31.3825 0.000835003 31.4936 0.000835003L31.4944 0Z" fill="#233E8B"/>
<path d="M17.3297 21.3493H13.33V21.8528C13.33 25.961 13.33 30.0693 13.33 34.1783C13.33 34.2752 13.33 34.3729 13.33 34.4697C13.3258 35.0208 13.0736 35.3373 12.6486 35.3273C12.237 35.3173 11.9982 35.0133 11.9982 34.4814C11.9965 32.3163 11.9982 30.1511 11.9982 27.9859C11.9982 25.6262 11.9982 23.2665 11.9982 20.9076C11.9982 20.2037 12.2069 20 12.9217 19.9991C14.5591 19.9983 16.1974 19.9966 17.8348 19.9991C18.4302 20 18.6623 20.2346 18.6632 20.835C18.6648 24.2768 18.664 27.7196 18.664 31.1615C18.664 31.2166 18.6665 31.2725 18.6615 31.3276C18.6289 31.7226 18.3592 31.9923 17.9985 31.9931C17.6361 31.9931 17.3505 31.7251 17.3372 31.3301C17.3205 30.8308 17.3313 30.3306 17.3313 29.8313C17.3313 27.1668 17.3313 24.5015 17.3313 21.837C17.3313 21.6867 17.3313 21.5355 17.3313 21.3493H17.3297Z" fill="#233E8B"/>
<path d="M6.66333 26.6826H2.66366C2.66366 26.8479 2.66366 26.9965 2.66366 27.1443C2.66366 30.2113 2.66366 33.2783 2.66366 36.3461C2.66366 36.4713 2.67118 36.5974 2.65615 36.7201C2.61189 37.0817 2.32298 37.3464 1.98063 37.3238C1.61406 37.3005 1.3978 37.09 1.33851 36.7293C1.32098 36.6208 1.331 36.5081 1.331 36.397C1.331 33.0244 1.331 29.6518 1.331 26.2793C1.331 25.5336 1.52806 25.3324 2.25618 25.3315C3.88026 25.3307 5.50351 25.3299 7.12759 25.3315C7.76052 25.3315 7.99516 25.5561 7.99516 26.1699C7.99683 29.3896 7.996 32.6094 7.996 35.8292C7.996 35.8709 7.99683 35.9127 7.99516 35.9544C7.97094 36.3795 7.70625 36.66 7.32966 36.66C6.95308 36.66 6.67418 36.3786 6.6675 35.9544C6.65581 35.2188 6.66333 34.4832 6.66333 33.7475C6.66333 31.5548 6.66333 29.3621 6.66333 27.1694C6.66333 27.0191 6.66333 26.8688 6.66333 26.6826Z" fill="#233E8B"/>
<path d="M23.9955 15.9987C23.9955 18.8126 23.9955 21.5606 23.9955 24.3078C23.9955 25.0134 23.7751 25.3415 23.3108 25.3282C22.8624 25.3148 22.6628 25.0033 22.6628 24.3136C22.6628 21.4128 22.6628 18.5129 22.6628 15.6121C22.6628 14.8681 22.8599 14.6668 23.5897 14.666C24.3253 14.6652 25.061 14.6643 25.7966 14.666C26.3527 14.6677 26.6658 14.9148 26.6583 15.3407C26.6516 15.7649 26.3427 15.9962 25.7766 15.9978C25.1971 15.9995 24.6176 15.9978 23.9955 15.9978V15.9987Z" fill="#233E8B"/>
<path d="M34.0139 17.328C33.654 17.3397 33.3425 17.0458 33.3308 16.6851C33.3191 16.3235 33.6106 16.0137 33.9738 16.002C34.3345 15.9904 34.6451 16.2834 34.6568 16.645C34.6685 17.0041 34.3737 17.3172 34.0139 17.3289V17.328Z" fill="#233E8B"/>
</g>
<defs>
<clipPath id="clip0_113_358">
<rect width="39.9942" height="40" fill="white"/>
</clipPath>
</defs>
</svg>
