<svg width="40" height="40" viewBox="0 0 40 40" fill="none" xmlns="http://www.w3.org/2000/svg">
<path d="M9.33339 21.3333H9.23607C9.71285 20.6987 10 19.8853 10 18.9999C10 16.9785 8.50479 15.3333 6.66669 15.3333C4.8286 15.3333 3.33336 16.9785 3.33336 18.9999C3.33336 19.8853 3.62056 20.6987 4.09732 21.3333H4C1.79406 21.3333 0 23.1273 0 25.3333V29.3333C0 30.436 0.897296 31.3333 2 31.3333C2.23452 31.3333 2.45744 31.2853 2.66667 31.2106V37.6666C2.66667 38.9532 3.71337 39.9999 5 39.9999C5.65328 39.9999 6.2426 39.7285 6.66667 39.2945C7.09078 39.7285 7.68008 39.9999 8.33334 39.9999C9.61997 39.9999 10.6667 38.9532 10.6667 37.6666V31.2106C10.8759 31.2853 11.0988 31.3333 11.3333 31.3333C12.436 31.3333 13.3333 30.436 13.3333 29.3333V25.3333C13.3333 23.1273 11.5393 21.3333 9.33339 21.3333ZM4.66672 18.9999C4.66672 17.7133 5.56401 16.6666 6.66672 16.6666C7.76942 16.6666 8.66672 17.7133 8.66672 18.9999C8.66672 20.2866 7.76942 21.3333 6.66672 21.3333C5.56401 21.3333 4.66672 20.2866 4.66672 18.9999ZM12.0001 29.3329C12.0001 29.7007 11.7012 29.9995 11.3334 29.9995C10.9655 29.9995 10.6667 29.7007 10.6667 29.3329V24.6662H9.33339V37.6658C9.33339 38.217 8.88458 38.6658 8.33339 38.6658C7.78219 38.6658 7.33338 38.217 7.33338 37.6658V29.9995H6.00005V37.6658C6.00005 38.217 5.55124 38.6658 5.00005 38.6658C4.44886 38.6658 4.00005 38.217 4.00005 37.6658V24.6662H2.66671V29.3329C2.66671 29.7007 2.3679 29.9995 2.00005 29.9995C1.63219 29.9995 1.33338 29.7007 1.33338 29.3329V25.3329C1.33338 23.8623 2.5295 22.6662 4.00005 22.6662H9.33339C10.8039 22.6662 12.0001 23.8623 12.0001 25.3329V29.3329Z" fill="white"/>
<path d="M26.667 8.80606C25.7605 7.68461 24.4182 7.11348 23.1804 7.40727C21.3396 7.8418 20.6691 10.0266 20.667 11.3879C20.6631 13.9192 22.9977 16.3192 26.4756 17.3611C26.5384 17.3799 26.6024 17.3891 26.667 17.3891C26.7316 17.3891 26.7956 17.3799 26.8583 17.3611C30.3363 16.3197 32.6711 13.9191 32.667 11.3885C32.6649 10.0266 31.9943 7.84232 30.153 7.40628C28.9191 7.11729 27.5735 7.68545 26.667 8.80598L26.667 8.80606ZM31.3337 11.3909C31.3363 13.2543 29.4277 15.1403 26.667 16.0248C23.9063 15.1403 21.9977 13.2543 22.0003 11.3903C22.0009 10.6284 22.3664 8.97032 23.4864 8.70579C23.6009 8.67841 23.7176 8.66501 23.8358 8.66501C24.6798 8.66501 25.5897 9.3296 26.0631 10.3391C26.1723 10.5737 26.4083 10.7231 26.6664 10.7231C26.9244 10.7231 27.1604 10.5731 27.2697 10.3391C27.8095 9.18913 28.917 8.48437 29.8456 8.70578C30.9676 8.97007 31.3331 10.6281 31.3337 11.3909Z" fill="white"/>
<path d="M37.2215 8.96314C36.9742 8.59171 36.3596 8.59171 36.1122 8.96314L33.4456 12.9631C33.3095 13.1679 33.2962 13.4304 33.4122 13.6471C33.528 13.8637 33.7539 13.9998 34 13.9998H36V17.3331C36 19.9057 33.906 21.9998 31.3333 21.9998H22C19.4274 21.9998 17.3333 19.9057 17.3333 17.3331V15.3331H16V17.3331C16 20.6417 18.6914 23.3331 22 23.3331H31.3333C34.642 23.3331 37.3333 20.6417 37.3333 17.3331V13.9998H39.3334C39.5795 13.9998 39.8054 13.8643 39.9214 13.6477C40.0375 13.431 40.0241 13.1676 39.8881 12.9637L37.2215 8.96314ZM35.2452 12.6664L36.6667 10.5351L38.0881 12.6664H35.2452Z" fill="white"/>
<path d="M16.667 14C16.8896 14 17.0976 13.8887 17.2217 13.7033L19.8884 9.70328C20.0244 9.49852 20.0378 9.23602 19.9217 9.01935C19.8056 8.80268 19.5797 8.66667 19.3336 8.66667H17.3336V6C17.3336 3.42736 19.4276 1.33333 22.0003 1.33333H31.3336C33.9063 1.33333 36.0003 3.42736 36.0003 6V7.33334H37.3336V6C37.3336 2.69135 34.6423 0 31.3336 0H22.0003C18.6916 0 16.0003 2.69135 16.0003 6V8.66667H14.0003C13.7541 8.66667 13.5283 8.80209 13.4122 9.01876C13.2961 9.23543 13.3095 9.49882 13.4455 9.70269L16.1122 13.7027C16.2363 13.8887 16.4443 14 16.667 14ZM18.0884 10L16.667 12.1313L15.2455 10H18.0884Z" fill="white"/>
<path d="M26.0003 31.3334H14.667V32.6668H26.667C27.0357 32.6668 27.3337 32.3688 27.3337 32.0001V24.6667H26.0003V31.3334Z" fill="white"/>
<path d="M6 5.33342V14.0001H7.33333V6.00008H14.6667V4.66675H6.66667C6.29792 4.66675 6 4.96467 6 5.33342Z" fill="white"/>
</svg>
