<svg width="44" height="52" viewBox="0 0 44 52" fill="none" xmlns="http://www.w3.org/2000/svg">
<g clip-path="url(#clip0_113_351)">
<path d="M43.35 6.39512C43.1798 6.99598 42.7691 7.18821 42.1683 7.18191C40.3709 7.1609 38.5747 7.17455 36.6902 7.17455C36.6902 7.81008 36.6744 8.41303 36.7059 9.01389C36.7112 9.11158 36.9149 9.21768 37.0452 9.28596C38.9381 10.2765 39.0967 12.8228 37.3005 13.9668C36.8288 14.2672 36.6313 14.5624 36.6618 15.1244C36.7017 15.8355 36.145 16.2725 35.5662 16.0267C35.3319 15.9269 35.1575 15.6843 34.8603 15.4216C33.4632 16.5519 31.8455 17.1727 29.9095 16.1181C29.9862 16.9248 30.0261 17.5667 30.1238 18.2001C30.1437 18.3303 30.357 18.4795 30.5114 18.5331C31.6795 18.9407 32.8529 19.3367 34.0304 19.718C35.2783 20.1224 35.9391 20.9785 36.1145 22.2674C36.4044 24.4125 36.7175 26.5543 37.0315 28.6951C37.2595 30.253 36.3151 31.6427 34.8508 31.8791C33.2783 32.1333 31.9537 31.1616 31.7037 29.546C31.4558 27.942 31.2373 26.3327 30.9915 24.7286C30.9662 24.5648 30.8433 24.4156 30.7372 24.2003C29.1574 27.1699 27.6489 30.0177 26.1279 32.8581C25.4839 34.0619 24.2759 34.6281 23.07 34.3256C21.3158 33.8865 20.4838 32.0345 21.3378 30.3958C22.4586 28.2455 23.5931 26.1005 24.7654 23.9776C25.0816 23.4051 25.1625 22.8567 25.0848 22.2317C24.9661 21.279 24.8946 20.3209 24.8001 19.365C24.7801 19.1623 24.7486 18.9617 24.7119 18.6717C23.8179 19.2778 23.0059 19.8451 22.175 20.384C21.8126 20.6182 21.4071 20.7852 21.029 20.9974C20.9019 21.0689 20.7947 21.1813 20.6876 21.2853C20.2685 21.6939 19.905 22.1823 19.427 22.5006C18.3976 23.1866 17.2915 23.758 16.2505 24.4282C15.3177 25.0291 14.3628 25.194 13.3113 24.8337C13.0193 24.7339 12.7115 24.6772 12.3407 24.5837C12.409 25.2864 12.4552 25.9272 12.5487 26.5596C12.5655 26.6762 12.7588 26.8106 12.8974 26.859C14.0981 27.2812 15.3019 27.693 16.5099 28.0922C17.7169 28.4914 18.3535 29.3254 18.5226 30.5754C18.8094 32.6858 19.0951 34.7962 19.4375 36.8981C19.8346 39.331 17.7495 40.7333 15.9669 40.1398C14.8922 39.7816 14.2777 39.0064 14.1128 37.8834C13.8796 36.2941 13.659 34.7037 13.4174 33.1165C13.3901 32.9369 13.2567 32.774 13.1485 32.5555C11.5749 35.5157 10.0675 38.3635 8.54752 41.2039C7.84897 42.5086 6.54536 43.0485 5.24596 42.6031C3.64927 42.0569 2.94547 40.2942 3.75012 38.7543C4.91296 36.5273 6.12203 34.3235 7.27858 32.0933C7.4498 31.7635 7.53174 31.337 7.50863 30.9652C7.42774 29.6805 7.28173 28.4 7.15358 27.0449C6.95714 27.1615 6.81008 27.2382 6.67352 27.3306C5.83316 27.8957 5.00961 28.4861 4.15349 29.026C2.88559 29.8254 1.28156 29.4693 0.460104 28.2403C-0.344542 27.0354 -0.0735252 25.4209 1.13975 24.5669C2.80891 23.3914 4.51799 22.2695 6.19556 21.1056C6.38465 20.9743 6.55797 20.7306 6.60944 20.509C6.99916 18.8388 8.41832 17.9574 10.0938 18.3871C11.2587 18.6864 12.4247 18.9837 13.5802 19.3178C13.9384 19.4218 14.2021 19.3545 14.5099 19.1781C15.5498 18.5782 16.6076 18.0089 17.656 17.4228C17.7411 17.3755 17.8041 17.2883 17.8745 17.2158C18.2947 16.7851 18.6623 16.2799 19.1445 15.9353C20.6634 14.8502 22.2328 13.8334 23.7644 12.7661C23.9618 12.6285 24.1383 12.3638 24.1919 12.1285C24.5511 10.5328 26.0018 9.6179 27.6048 10.0255C28.8044 10.3301 29.9946 10.6757 31.1984 10.9614C31.4516 11.0213 31.7877 10.973 32.0167 10.848C32.9505 10.3385 33.8655 9.79333 34.7647 9.22503C34.9044 9.1368 34.9926 8.86158 34.9937 8.6725C35.0084 6.17452 35.0115 3.6755 34.9968 1.17753C34.9937 0.660708 35.1208 0.252082 35.5987 0.0020752C35.7731 0.0020752 35.9485 0.0020752 36.1229 0.0020752C36.2941 0.191156 36.5651 0.356077 36.6145 0.57247C36.6986 0.940128 36.9034 0.935926 37.1786 0.934875C38.8341 0.929623 40.4907 0.951683 42.1462 0.92227C42.7491 0.911766 43.1578 1.09664 43.3542 1.67859V1.88868C42.9855 2.45068 42.6399 3.02947 42.2407 3.56941C41.9886 3.90975 41.9519 4.16186 42.2271 4.51796C42.6368 5.04739 42.9823 5.62829 43.3542 6.18713V6.39722L43.35 6.39512ZM28.1521 15.3324C28.1195 14.4888 28.546 14.1348 29.358 14.3397C30.0849 14.5235 30.815 14.6958 31.5335 14.9101C31.9873 15.0456 32.3812 14.992 32.7804 14.7494C33.9128 14.0582 35.0546 13.3838 36.1891 12.6978C36.8603 12.2923 37.0557 11.7157 36.7196 11.1726C36.3929 10.6442 35.8109 10.5518 35.1607 10.9362C34.2447 11.4783 33.3508 12.0623 32.4106 12.5571C32.0923 12.7251 31.6354 12.7871 31.2835 12.7083C29.9914 12.4205 28.7162 12.0528 27.4346 11.7157C26.2959 11.4173 25.755 11.8722 25.8663 13.0487C26.1804 16.3513 26.5092 19.6529 26.8033 22.9576C26.8348 23.3137 26.756 23.7297 26.5922 24.0458C25.402 26.3379 24.1772 28.6111 22.9639 30.8906C22.882 31.045 22.7885 31.1963 22.7328 31.3601C22.5626 31.857 22.7769 32.3749 23.2318 32.607C23.6877 32.8402 24.2171 32.7047 24.5249 32.2646C24.6247 32.1228 24.7035 31.9652 24.7854 31.8108C26.0333 29.4704 27.2739 27.1268 28.5303 24.7906C28.8002 24.2895 28.9914 23.8084 28.9147 23.2055C28.8286 22.5311 29.3738 22.1225 30.0271 22.3158C30.6616 22.5027 31.2856 22.7286 31.9138 22.9387C32.3014 23.0689 32.5104 23.3399 32.5577 23.7454C32.586 23.9881 32.626 24.2297 32.6606 24.4713C32.8991 26.1121 33.1323 27.7539 33.3781 29.3937C33.4443 29.8349 33.7132 30.1143 34.1523 30.2109C34.5661 30.3023 34.9706 30.2046 35.1575 29.8359C35.3099 29.5345 35.3781 29.1353 35.334 28.7991C35.0609 26.7045 34.729 24.6183 34.4548 22.5248C34.3687 21.8693 34.0777 21.4869 33.4474 21.2863C32.0514 20.8441 30.67 20.3588 29.2792 19.9008C28.8443 19.7579 28.5334 19.5216 28.4882 19.0362C28.3748 17.802 28.2634 16.5666 28.1521 15.3324ZM18.9029 20.8756C18.4501 20.322 18.0383 19.8188 17.5961 19.2768C16.7032 19.8115 15.7599 20.3672 14.8261 20.9397C14.4763 21.154 14.1412 21.2065 13.7346 21.093C12.3754 20.7128 11.0087 20.3588 9.63999 20.0132C8.78072 19.7968 8.18197 20.3136 8.26705 21.1939C8.59164 24.5816 8.93409 27.9672 9.24607 31.3559C9.27444 31.6658 9.20721 32.024 9.06855 32.3013C8.48975 33.4547 7.86578 34.585 7.25862 35.7237C6.58528 36.9853 5.90354 38.2427 5.24386 39.5116C4.89406 40.185 5.19449 40.8678 5.88148 41.0432C6.36994 41.1682 6.78277 40.9455 7.0937 40.3635C8.42462 37.8719 9.76395 35.3844 11.0655 32.877C11.2524 32.5167 11.3165 32.0545 11.3134 31.6396C11.306 30.878 11.7861 30.4588 12.5235 30.6847C12.9563 30.8181 13.3733 31.0198 13.8145 31.1059C14.6822 31.274 14.9805 31.8013 15.0729 32.6396C15.2589 34.3203 15.5309 35.9926 15.7841 37.6649C15.8797 38.2984 16.324 38.6408 16.907 38.5841C17.5814 38.5179 17.8902 37.9685 17.76 37.0725C17.4564 34.9831 17.1392 32.8969 16.8597 30.8044C16.7768 30.1847 16.4795 29.8433 15.8954 29.6553C14.5025 29.2067 13.1254 28.7088 11.7314 28.2624C11.1905 28.089 10.9331 27.7655 10.8879 27.2098C10.7934 26.0449 10.6663 24.882 10.5686 23.716C10.4972 22.8641 10.9678 22.4775 11.8018 22.6897C12.5792 22.8872 13.3481 23.1172 14.1296 23.2885C14.3838 23.3441 14.7179 23.3473 14.9301 23.2265C16.2778 22.4607 17.6024 21.6529 18.905 20.8766L18.9029 20.8756ZM24.3242 14.4258C22.7507 15.4941 21.279 16.4878 19.8147 17.491C19.2359 17.8881 19.1056 18.4637 19.4502 18.9743C19.7852 19.4701 20.3893 19.5615 20.9691 19.1749C22.07 18.4417 23.1635 17.6959 24.2528 16.9437C24.3673 16.865 24.5102 16.7084 24.5039 16.595C24.4682 15.9048 24.3936 15.2168 24.3232 14.4248L24.3242 14.4258ZM6.74285 22.8242C6.59474 22.903 6.50125 22.9408 6.42036 22.9954C5.02116 23.944 3.62091 24.8904 2.22801 25.8474C1.67968 26.2234 1.53892 26.8043 1.84565 27.2928C2.17129 27.8096 2.7795 27.9273 3.35304 27.547C4.47072 26.8054 5.58105 26.0512 6.67772 25.2801C6.81218 25.1856 6.92353 24.9492 6.91617 24.7843C6.88991 24.1582 6.81008 23.5353 6.7418 22.8242H6.74285ZM36.708 2.63871V5.45391H40.9361C39.8468 4.49485 39.8951 3.58096 40.9308 2.63871H36.708Z" fill="#233E8B"/>
<path d="M10.8911 50.3208C10.8911 48.6937 10.89 47.1411 10.8911 45.5875C10.8911 44.6221 11.1442 44.3648 12.0938 44.3648C14.6601 44.3637 17.2263 44.3648 19.7926 44.3648C19.9796 44.3648 20.1655 44.3648 20.4029 44.3648V40.1829C20.4029 38.4528 20.426 38.4297 22.1614 38.4297C24.5186 38.4297 26.8747 38.4297 29.232 38.4297H29.9221C29.9221 38.1923 29.9221 38.0085 29.9221 37.8236C29.9221 36.374 29.9179 34.9244 29.9242 33.4747C29.9273 32.7772 30.2131 32.4894 30.9127 32.4884C33.9674 32.4842 37.0231 32.4852 40.0779 32.4884C40.7092 32.4884 41.0737 32.7919 41.0831 33.3004C41.0936 33.8319 40.7155 34.1607 40.0631 34.1617C37.479 34.1659 34.896 34.1638 32.3119 34.1638C32.1028 34.1638 31.8948 34.1638 31.5986 34.1638C31.5986 34.3687 31.5986 34.5515 31.5986 34.7342C31.5986 36.1492 31.6007 37.5631 31.5986 38.9781C31.5965 39.8258 31.3192 40.1041 30.462 40.1052C27.8958 40.1083 25.3295 40.1062 22.7633 40.1062C22.5574 40.1062 22.3504 40.1062 22.0805 40.1062C22.0805 40.4277 22.0805 40.7018 22.0805 40.9771C22.0805 42.2166 22.0805 43.4572 22.0805 44.6967C22.0805 45.8627 21.9051 46.0423 20.7611 46.0423C18.2474 46.0423 15.7337 46.0423 13.2199 46.0423C13.0308 46.0423 12.8418 46.0423 12.597 46.0423C12.5865 46.2661 12.5708 46.452 12.5697 46.6369C12.5676 48.0687 12.5718 49.5015 12.5665 50.9332C12.5634 51.7274 12.2882 51.9973 11.4919 51.9984C8.47189 52.0005 5.45185 52.0005 2.4318 51.9984C1.75111 51.9984 1.37295 51.6591 1.40866 51.1003C1.44018 50.6076 1.78893 50.325 2.39819 50.325C4.9991 50.3219 7.60002 50.3229 10.202 50.3229C10.4079 50.3229 10.6148 50.3229 10.8911 50.3229V50.3208Z" fill="#233E8B"/>
<path d="M27.7519 9.74504C25.5743 9.74504 23.778 7.94772 23.7843 5.77223C23.7906 3.59675 25.6037 1.79838 27.7718 1.81729C29.9337 1.83619 31.7037 3.60936 31.711 5.76593C31.7184 7.94667 29.9295 9.74399 27.7519 9.74504ZM30.0345 5.77328C30.0292 4.53585 29.0061 3.51061 27.7655 3.49696C26.5123 3.4833 25.4545 4.53795 25.4629 5.79219C25.4713 7.03172 26.4966 8.06011 27.7319 8.06852C28.9904 8.07692 30.0387 7.03067 30.0334 5.77433L30.0345 5.77328Z" fill="#233E8B"/>
<path d="M6.21655 14.1275C6.2218 11.9331 7.99602 10.1642 10.1862 10.1736C12.369 10.1831 14.1306 11.9699 14.1201 14.1653C14.1096 16.3251 12.3417 18.0877 10.1757 18.0972C8.00232 18.1066 6.21235 16.3125 6.2176 14.1275H6.21655ZM12.4426 14.1097C12.4342 12.8649 11.4163 11.8533 10.1704 11.8512C8.90466 11.8491 7.88362 12.8838 7.89517 14.1569C7.90673 15.408 8.91936 16.4175 10.1652 16.4196C11.4247 16.4217 12.452 15.3797 12.4436 14.1097H12.4426Z" fill="#233E8B"/>
<path d="M19.3062 5.13671C18.843 4.80371 18.6529 4.4224 18.8714 3.96125C19.1056 3.46649 19.5426 3.43603 20.0342 3.52847C20.6161 3.63771 21.2076 3.69444 21.7948 3.77637C22.5584 3.88247 22.8568 4.36462 22.5847 5.07368C22.3536 5.67559 22.0973 6.26699 21.862 6.86785C21.6939 7.29538 21.4366 7.60106 20.9355 7.55169C20.4113 7.50022 20.196 7.15042 20.1592 6.59578C19.9649 6.70398 19.8031 6.79116 19.6455 6.88255C17.7589 7.97187 15.8723 9.06119 13.9857 10.1505C13.8502 10.2293 13.7157 10.3123 13.5739 10.3774C13.118 10.5875 12.6737 10.4551 12.4457 10.0486C12.2199 9.64629 12.3386 9.19565 12.7714 8.92148C13.1832 8.66097 13.6128 8.42777 14.0351 8.18301C15.7683 7.18088 17.5016 6.1798 19.3062 5.13776V5.13671Z" fill="#233E8B"/>
<path d="M13.5004 2.94127C13.3491 2.64189 13.1411 2.38453 13.0907 2.09881C13.0077 1.63241 13.4237 1.20487 13.9237 1.24899C14.7389 1.32147 15.553 1.43387 16.3576 1.58198C16.8639 1.67547 17.1087 2.16498 16.9228 2.68601C16.6643 3.40767 16.3986 4.13248 16.0456 4.81002C15.9217 5.04847 15.5477 5.25226 15.2641 5.29112C14.9017 5.3405 14.6149 5.08314 14.5078 4.69762C14.4805 4.59993 14.451 4.50434 14.408 4.35938C13.4836 4.89195 12.596 5.40247 11.7083 5.91404C10.5455 6.58528 9.38367 7.25862 8.22082 7.92986C8.11473 7.99078 8.01073 8.05486 7.90044 8.10633C7.43509 8.32273 6.9939 8.20718 6.7586 7.81221C6.51699 7.40568 6.64095 6.91932 7.09789 6.64621C8.07166 6.06636 9.05803 5.50752 10.0392 4.94027C11.2146 4.26063 12.3901 3.58204 13.4993 2.94022L13.5004 2.94127Z" fill="#233E8B"/>
</g>
<defs>
<clipPath id="clip0_113_351">
<rect width="43.35" height="51.9984" fill="white"/>
</clipPath>
</defs>
</svg>
