<svg width="56" height="57" viewBox="0 0 56 57" fill="none" xmlns="http://www.w3.org/2000/svg">
<path d="M40.6388 0.0012174C41.4317 0.199461 42.2527 0.325946 43.014 0.608108C46.5714 1.92649 48.6098 4.63866 49.747 8.12919C50.2262 9.60203 50.3575 11.1308 50.2919 12.7192C50.501 12.7289 50.6786 12.7447 50.855 12.7447C52.1369 12.7472 53.4175 12.7411 54.6994 12.7484C55.4644 12.752 55.94 13.1765 55.946 13.8357C55.9509 14.4997 55.4778 14.9364 54.7201 14.94C53.274 14.9473 51.8279 14.9509 50.3819 14.9351C50.0535 14.9315 49.91 15.0203 49.8175 15.3572C49.1863 17.6509 47.9701 19.5896 46.2528 21.2388C41.2906 26.0075 36.3479 30.797 31.3967 35.5767C30.6329 36.3138 30.1428 36.3138 29.3839 35.5792C27.0938 33.3657 24.8073 31.1497 22.5111 28.9423C22.1486 28.5932 21.909 28.1688 22.1255 27.7236C22.2812 27.405 22.6534 27.0353 22.9696 26.9939C23.315 26.9477 23.793 27.1617 24.0666 27.4196C26.0405 29.2743 27.9792 31.168 29.9227 33.0531C30.0662 33.1917 30.172 33.3705 30.3167 33.5578C30.7692 33.1261 31.1401 32.7758 31.5074 32.4207C35.9843 28.097 40.4612 23.7746 44.9344 19.4485C46.2212 18.2043 47.1236 16.7254 47.6539 14.9424C46.5678 14.9424 45.5304 14.9315 44.4942 14.9558C44.3531 14.9595 44.1804 15.1164 44.0819 15.2465C43.3083 16.2669 42.5531 17.3007 41.7844 18.3259C41.0717 19.2758 40.3213 19.26 39.639 18.287C39.1173 17.5427 38.5967 16.7972 38.036 15.9944C37.4486 17.1657 36.8855 18.27 36.3419 19.3853C36.1047 19.8705 35.8213 20.2865 35.2254 20.3035C34.627 20.3205 34.3242 19.9228 34.0675 19.4436C32.9632 17.3809 31.8455 15.3243 30.7315 13.2665C30.6366 13.0914 30.532 12.9223 30.3946 12.6839C30.2705 12.8943 30.1708 13.0536 30.0808 13.2178C28.9558 15.2903 27.8259 17.3615 26.7119 19.44C26.4552 19.9204 26.1524 20.3169 25.5565 20.3023C24.9605 20.2877 24.6784 19.8717 24.4412 19.3853C23.9061 18.2846 23.3478 17.1961 22.7434 15.9944C22.4162 16.4627 22.1316 16.8713 21.847 17.2788C21.5855 17.6534 21.3301 18.034 21.0613 18.4038C20.469 19.2174 19.6821 19.2332 19.0765 18.4317C18.3042 17.4101 17.5367 16.3849 16.7876 15.345C16.5735 15.0482 16.3485 14.9205 15.9739 14.9315C15.0605 14.9595 14.1459 14.9412 13.1438 14.9412C13.2119 15.1857 13.252 15.3888 13.3238 15.5797C13.8808 17.0562 14.7054 18.3588 15.8523 19.4509C16.1831 19.7659 16.5212 20.0761 16.8326 20.4118C17.2594 20.8727 17.2509 21.5246 16.8399 21.9454C16.4324 22.3626 15.8219 22.4039 15.3512 22.0001C13.2934 20.2366 11.7366 18.1326 10.9899 15.4885C10.9412 15.3158 10.8853 15.1455 10.8232 14.9412C9.38445 14.9412 7.95905 14.9412 6.53243 14.9412C6.33054 14.9412 6.12986 14.9485 5.92796 14.9376C5.28337 14.9023 4.84189 14.4693 4.82973 13.8697C4.81635 13.2507 5.26999 12.763 5.93404 12.7532C7.23296 12.7338 8.5331 12.7472 9.83323 12.7459C10.0327 12.7459 10.2309 12.7459 10.4109 12.7459C10.4949 11.7109 10.4803 10.6991 10.6712 9.72609C11.5226 5.39271 13.7032 2.07851 18.0305 0.519326C18.7286 0.26757 19.4815 0.170271 20.2088 0.0012174C20.9044 0.0012174 21.6001 0.0012174 22.2958 0.0012174C22.3992 0.0316228 22.5013 0.079054 22.6071 0.0912161C24.4546 0.30527 26.167 0.915818 27.6921 1.96906C28.6347 2.61974 29.4958 3.39203 30.4335 4.14244C30.7083 3.89433 31.0221 3.61824 31.3274 3.33365C32.9669 1.80852 34.8642 0.766219 37.0546 0.277301C37.5143 0.175139 37.9777 0.0924324 38.4398 0C39.172 0 39.9042 0 40.6363 0L40.6388 0.0012174ZM40.7482 16.0382C41.332 15.2538 41.9073 14.5824 42.3658 13.8393C42.8863 12.994 43.554 12.6584 44.5489 12.7265C45.7091 12.8055 46.8779 12.7447 48.0698 12.7447C48.2109 11.0104 47.9567 9.40257 47.334 7.85433C45.8636 4.1923 42.9009 2.11015 39.251 2.21839C36.956 2.2865 34.9408 3.11838 33.1979 4.61068C32.6835 5.05095 32.2019 5.53135 31.6692 5.94608C30.7984 6.62351 29.9896 6.62108 29.1102 5.94851C28.6602 5.60554 28.2516 5.20906 27.832 4.82717C26.859 3.94298 25.7632 3.26311 24.5312 2.80582C21.0857 1.52393 17.5319 2.32541 15.2466 4.92082C13.972 6.36811 13.1547 8.05256 12.8531 9.95715C12.7096 10.862 12.6938 11.7863 12.6159 12.7459C14.0778 12.7459 15.3755 12.7678 16.6732 12.7362C17.3032 12.7216 17.7508 12.9369 18.1132 13.4501C18.7225 14.3149 19.3708 15.1528 20.0288 16.0382C20.6478 15.1504 21.2328 14.3112 21.819 13.4732C22.5561 12.4212 23.4451 12.493 24.0277 13.6508C24.2502 14.0911 24.4692 14.5338 24.6905 14.974C24.9897 15.5712 25.2901 16.1672 25.6234 16.83C26.8627 14.5399 28.0582 12.3397 29.2416 10.1335C29.4958 9.66041 29.7779 9.24203 30.3775 9.23838C30.9759 9.23473 31.2678 9.64095 31.5232 10.1177C32.619 12.1646 33.7294 14.2042 34.8362 16.245C34.9262 16.4116 35.0283 16.5722 35.1658 16.8045C35.7289 15.6855 36.2446 14.6591 36.7627 13.6326C37.3428 12.4845 38.2282 12.4273 38.9725 13.4915C39.5478 14.3124 40.1182 15.137 40.7458 16.0394L40.7482 16.0382Z" fill="white"/>
<path d="M0 41.8489C0.0522973 41.5825 0.0912182 41.3125 0.161759 41.051C0.501083 39.7886 1.6273 38.902 2.94446 38.8874C4.44527 38.8716 5.94607 38.8704 7.44688 38.8874C8.53783 38.9008 9.38918 39.3982 9.93283 40.3359C10.1274 40.6728 10.3366 40.7847 10.6723 40.6849C11.2439 40.5147 11.8897 40.4417 12.364 40.1194C16.0249 37.6286 19.9581 37.4291 24.0774 38.6125C25.6926 39.0759 27.3028 39.5611 28.9155 40.0306C30.4613 40.4806 31.4538 41.4876 31.9329 43.0578C32.1373 42.9653 32.3185 42.8912 32.4936 42.8048C35.359 41.3855 38.2269 39.971 41.0862 38.5383C42.0859 38.0372 43.1233 37.8049 44.2179 38.0652C45.7844 38.4386 46.7878 39.4334 47.1381 41.0048C47.4981 42.6224 46.9374 43.9675 45.7005 45.0183C45.0888 45.5376 44.4077 45.9767 43.7533 46.4437C40.0901 49.0574 36.4244 51.6674 32.76 54.2798C31.4197 55.2357 29.9615 55.9205 28.3378 56.2355H26.6898C25.8592 56.0336 25.02 55.8584 24.1978 55.6237C21.0369 54.7225 17.882 53.7933 14.7211 52.8909C13.3103 52.4883 11.8666 52.3071 10.3853 52.3144C10.3585 52.4165 10.3378 52.4834 10.3245 52.5516C9.99608 54.1253 8.91486 55.0314 7.31432 55.0436C5.83175 55.0545 4.34919 55.0618 2.86784 55.0338C1.57622 55.0095 0.480406 54.1095 0.153244 52.8629C0.0936498 52.6342 0.0510822 52.402 0.0012174 52.1709C0.0012174 48.729 0.0012174 45.2883 0.0012174 41.8464L0 41.8489ZM10.3743 49.989C11.818 50.1957 13.2227 50.2663 14.5557 50.6129C17.7543 51.4448 20.9153 52.4178 24.0993 53.3105C25.082 53.5866 26.0757 53.8699 27.0839 54.0025C28.7757 54.2251 30.1731 53.4175 31.4878 52.4847C35.6497 49.5329 39.8031 46.5666 43.9528 43.5966C44.2313 43.3971 44.5001 43.1563 44.6959 42.879C45.1046 42.3001 45.1836 41.6616 44.8273 41.0182C44.4794 40.3894 43.9139 40.1194 43.2231 40.1899C42.8327 40.2301 42.4289 40.3395 42.0774 40.5122C38.7474 42.1468 35.4259 43.7972 32.1093 45.4586C31.8831 45.5717 31.6617 45.7748 31.534 45.9913C30.5793 47.6149 28.8182 48.4517 26.9988 47.9798C24.8607 47.424 22.7493 46.7648 20.627 46.1433C20.1089 45.9913 19.8304 45.6203 19.828 45.0889C19.8255 44.606 20.0651 44.2108 20.5334 44.0867C20.8301 44.0076 21.1901 44.0478 21.4942 44.1317C23.4292 44.6729 25.3544 45.2494 27.2882 45.7967C28.4157 46.1166 29.4494 45.5924 29.7547 44.578C30.0721 43.5236 29.4932 42.5093 28.3548 42.1639C26.8516 41.709 25.352 41.2322 23.833 40.8382C22.7226 40.5499 21.589 40.3201 20.4507 40.1741C18.2347 39.8895 16.1489 40.348 14.265 41.5606C13.1388 42.2855 11.9761 42.8571 10.609 42.8985C10.5397 42.9009 10.4704 42.9361 10.378 42.9641V49.9853L10.3743 49.989ZM8.15108 47.0032C8.15108 45.3394 8.15472 43.6768 8.14864 42.013C8.14621 41.3332 7.8981 41.0839 7.22797 41.0814C5.89378 41.0766 4.55959 41.0766 3.22541 41.0814C2.50662 41.0839 2.25608 41.3149 2.25486 42.0252C2.24878 45.3151 2.24878 48.6049 2.25486 51.8948C2.25608 52.6209 2.49081 52.8483 3.20959 52.8507C4.52554 52.8568 5.84148 52.8556 7.15742 52.8507C7.94432 52.8483 8.14864 52.6379 8.14986 51.8279C8.15229 50.2188 8.14986 48.611 8.14986 47.002L8.15108 47.0032Z" fill="white"/>
<path d="M20.6904 24.5906C20.7001 25.189 20.2392 25.6816 19.6517 25.701C19.0363 25.7217 18.5292 25.2389 18.5194 24.6235C18.5109 24.0263 18.9706 23.5362 19.5605 23.5119C20.1723 23.4875 20.6806 23.9728 20.6904 24.5906Z" fill="white"/>
</svg>
