<svg width="41" height="40" viewBox="0 0 41 40" fill="none" xmlns="http://www.w3.org/2000/svg">
<path d="M40.0745 4.76657C39.8217 5.38489 39.6612 6.06426 39.2988 6.6098C38.0841 8.43659 35.6867 8.95864 33.7676 7.88714C33.6776 7.83705 33.5891 7.78226 33.4576 7.70478C32.9465 8.21744 32.4354 8.73088 31.9236 9.24354C31.8038 9.36329 31.6887 9.48852 31.5604 9.5981C31.2144 9.89552 30.7691 9.88847 30.4677 9.58792C30.1656 9.28737 30.1476 8.83576 30.4623 8.49999C30.8802 8.05385 31.3201 7.62729 31.7568 7.19916C31.9517 7.00818 32.1615 6.83364 32.3752 6.64267C31.8813 5.85137 31.6105 5.05225 31.6222 4.16938C31.6496 2.15787 33.1031 0.438305 35.0856 0.0735726C35.1592 0.0602669 35.2288 0.025046 35.3008 0C35.6664 0 36.0311 0 36.3966 0C36.4553 0.0234806 36.5117 0.0579189 36.5719 0.0688765C37.7303 0.275506 38.6836 0.842172 39.3027 1.83227C39.651 2.38876 39.824 3.05561 40.0752 3.67237V4.76578L40.0745 4.76657ZM35.844 1.56459C34.3828 1.56616 33.186 2.76289 33.1876 4.2226C33.1892 5.68075 34.3898 6.87591 35.8511 6.87434C37.3124 6.87278 38.5091 5.67527 38.5075 4.21556C38.506 2.75584 37.3077 1.56303 35.844 1.56459Z" fill="white"/>
<path d="M0.000783452 35.2334C0.06966 34.9861 0.129142 34.7348 0.208976 34.4906C1.03784 31.9524 3.9377 30.8112 6.28028 32.0987C6.38203 32.1551 6.483 32.2138 6.61997 32.2921C7.21638 31.6949 7.79635 31.0797 8.41859 30.5115C8.60878 30.3377 8.91325 30.2234 9.1731 30.2093C9.47208 30.1929 9.69124 30.4183 9.79299 30.7197C9.901 31.0413 9.80316 31.3129 9.57931 31.5407C9.06822 32.0612 8.55165 32.577 8.02959 33.0865C7.92784 33.1859 7.794 33.2524 7.67973 33.3307C8.2057 34.1596 8.46633 34.9649 8.45146 35.8494C8.41546 38.0041 6.73033 39.8027 4.57559 39.9851C2.4279 40.1667 0.468047 38.6663 0.0735728 36.5413C0.0602671 36.4677 0.025046 36.398 0 36.3268C0 35.9621 0 35.5974 0 35.2334H0.000783452ZM4.21321 38.4354C5.67683 38.4416 6.88139 37.2512 6.88687 35.7938C6.89235 34.3318 5.70188 33.1311 4.2406 33.1256C2.77697 33.1202 1.57242 34.3091 1.56694 35.7664C1.56146 37.2269 2.7535 38.4299 4.21321 38.4354Z" fill="white"/>
<path d="M40.0743 36.3268C39.892 37.0172 39.6869 37.6934 39.247 38.2797C37.8977 40.0767 35.4487 40.5291 33.5592 39.3198C31.6863 38.12 31.0766 35.6741 32.1637 33.7197C32.2201 33.618 32.2772 33.517 32.3516 33.3847C31.7309 32.7695 31.1087 32.159 30.495 31.5407C30.2696 31.3137 30.1248 31.0132 30.2962 30.7291C30.4293 30.5083 30.6782 30.2571 30.9067 30.2219C31.1392 30.1859 31.4656 30.3377 31.655 30.5115C32.2678 31.0742 32.8368 31.6855 33.373 32.2271C33.9929 32.015 34.5392 31.7489 35.1144 31.6456C37.4453 31.2269 39.5726 32.7343 40.0039 35.0581C40.0149 35.1192 40.0493 35.1755 40.0736 35.2334V36.3268H40.0743ZM38.5074 35.7907C38.5121 34.3294 37.3201 33.1296 35.8588 33.1249C34.3952 33.1202 33.1922 34.3106 33.1875 35.768C33.1828 37.2285 34.3764 38.4299 35.8361 38.4346C37.2989 38.4393 38.5027 37.2481 38.5074 35.7907Z" fill="white"/>
<path d="M4.77517 0.00170898C5.3841 0.245907 6.05408 0.398532 6.59179 0.750741C8.45615 1.9733 8.98603 4.38867 7.884 6.32974C7.83939 6.40801 7.79086 6.48393 7.71494 6.60916C8.22995 7.1179 8.74496 7.62665 9.25996 8.13618C9.3805 8.25515 9.50573 8.3702 9.61531 8.49856C9.91586 8.84764 9.90881 9.28595 9.60748 9.58885C9.30693 9.89018 8.85297 9.91132 8.51798 9.59511C7.98732 9.09576 7.47857 8.5737 6.96591 8.05556C6.85633 7.9452 6.77024 7.81215 6.66536 7.67987C5.86389 8.17766 5.06241 8.44925 4.17876 8.43673C2.16334 8.40934 0.441427 6.95902 0.0751292 4.98038C0.0618235 4.90681 0.0266024 4.83715 0.0015564 4.76593C0.0015564 4.4012 0.0015564 4.03646 0.0015564 3.67251C0.0266024 3.60129 0.0610408 3.53163 0.0751292 3.45884C0.295064 2.32238 0.857817 1.3808 1.83618 0.771874C2.39345 0.425143 3.06108 0.252952 3.6794 0.00170898C4.04492 0.00170898 4.40965 0.00170898 4.77517 0.00170898ZM6.88686 4.22587C6.8892 2.7646 5.69561 1.56787 4.23276 1.56474C2.76992 1.56239 1.56928 2.75442 1.56693 4.21335C1.56458 5.67306 2.75974 6.87214 4.22024 6.87527C5.68308 6.87762 6.88373 5.6848 6.88686 4.22587Z" fill="white"/>
<path d="M11.0383 26.7163C11.079 26.4353 11.0939 26.2005 11.1495 25.9767C11.5463 24.3847 12.5513 23.4024 14.1565 23.0518C15.1866 22.8271 16.2228 22.6291 17.256 22.4178C17.3429 22.3998 17.4274 22.3669 17.5041 22.3442C17.598 21.9779 17.4939 21.7423 17.1957 21.5021C16.1579 20.6646 15.5779 19.5594 15.5716 18.2218C15.5669 17.173 15.5216 16.0921 15.7485 15.0817C16.2268 12.9512 18.3815 11.5533 20.5347 11.8124C22.752 12.0801 24.4512 13.8865 24.5068 16.0913C24.5303 17.0384 24.5295 17.9956 24.4152 18.9333C24.2884 19.9774 23.7202 20.8336 22.8992 21.4911C22.6143 21.7196 22.4515 21.9427 22.5853 22.3638C23.2835 22.5078 24.0176 22.6589 24.7518 22.8115C25.2104 22.907 25.673 22.9892 26.127 23.1042C27.7103 23.5034 28.7826 24.7283 28.9814 26.343C28.9947 26.4526 29.019 26.5606 29.0495 26.7367C29.8768 25.6472 30.4474 24.5029 30.8247 23.2647C32.6076 17.4149 29.3579 11.2003 23.53 9.30309C23.4063 9.26317 23.2796 9.22638 23.1653 9.1669C22.8311 8.99314 22.6831 8.64093 22.7771 8.27464C22.8671 7.92556 23.1919 7.67588 23.5699 7.72284C23.8376 7.7565 24.1053 7.83868 24.3573 7.93808C29.1497 9.8314 32.0339 13.2995 32.7642 18.4018C33.7136 25.0312 29.0174 31.3944 22.4022 32.5888C15.4762 33.8396 8.91489 29.444 7.46144 22.5798C6.11521 16.2244 9.93317 9.72104 16.1414 7.7972C16.8553 7.5757 17.4055 7.95139 17.3155 8.59945C17.2607 8.99079 16.9899 9.16846 16.6455 9.27648C15.1576 9.74296 13.8364 10.5037 12.6499 11.5103C8.30674 15.1952 7.48648 21.8527 10.8137 26.4541C10.8716 26.534 10.942 26.6052 11.0391 26.7179L11.0383 26.7163ZM17.6168 23.9253C16.4162 24.1851 15.2069 24.3863 14.036 24.7212C13.2447 24.9474 12.7704 25.59 12.6718 26.4212C12.6076 26.9605 12.6546 27.5123 12.6178 28.0563C12.5966 28.367 12.7187 28.5572 12.9489 28.745C16.9006 31.9642 22.626 32.0809 26.7453 29.0495C27.2673 28.6652 27.5687 28.2715 27.4583 27.6062C27.4121 27.3276 27.4583 27.0349 27.4474 26.7492C27.4035 25.637 26.7382 24.8347 25.6487 24.596C24.6954 24.387 23.7366 24.2047 22.7833 23.9941C22.518 23.9354 22.4045 24.0082 22.2895 24.2587C21.9537 24.9858 21.3745 25.4507 20.5879 25.6253C19.3254 25.9055 18.2743 25.3169 17.616 23.926L17.6168 23.9253ZM22.9923 17.1495C22.9774 17.1487 22.9626 17.148 22.9477 17.1472C22.9477 16.7958 22.9618 16.4435 22.9453 16.0929C22.8726 14.5573 21.5882 13.3535 20.0345 13.3551C18.4825 13.3566 17.1957 14.5635 17.1339 16.1023C17.1065 16.7911 17.1081 17.483 17.1315 18.1717C17.1793 19.6056 18.2899 20.8055 19.6729 20.9456C21.2039 21.1005 22.5321 20.2059 22.8624 18.7384C22.9782 18.2249 22.954 17.6802 22.9931 17.1495H22.9923ZM19.1117 22.4984C19.107 23.0275 18.963 23.6122 19.5524 23.9847C19.8952 24.2008 20.2552 24.1859 20.5777 23.9495C21.1092 23.559 20.9792 23.0001 20.955 22.4992H19.1117V22.4984Z" fill="white"/>
<path d="M20.0343 8.74786C19.6024 8.74629 19.2456 8.37774 19.2581 7.94737C19.2698 7.53187 19.6235 7.1907 20.0398 7.19227C20.4717 7.19383 20.8293 7.56238 20.816 7.99197C20.8035 8.40748 20.4498 8.74942 20.0335 8.74786H20.0343Z" fill="white"/>
</svg>
