<svg width="38" height="40" viewBox="0 0 38 40" fill="none" xmlns="http://www.w3.org/2000/svg">
<path d="M32.6954 1.44037H30.7563V0H29.87L29.8697 1.44037H26.2132V0H25.3269V1.44037H21.6705V0H20.7841V1.44037H17.1277L17.1274 0H16.241V1.44037H12.5846V0H11.6982V1.44037H8.04179V0H7.15544L7.15513 1.44037H3V40H34.9114V1.44037H32.6954ZM7.15519 2.32703V3.7674H8.04154L8.04185 2.32703H11.6983V3.7674H12.5846V2.32703H16.2411V3.7674H17.1274V2.32703H20.7839V3.7674H21.6702L21.6705 2.32703H25.327V3.7674H26.2133V2.32703H29.8697V3.7674H30.7561L30.7564 2.32703H31.8088V36.4237L6.10238 36.4233V2.32752L7.15519 2.32703ZM34.025 39.1138H3.88649V2.32703H5.21621V37.3101H32.6955V2.32782H34.0252L34.025 39.1138Z" fill="white"/>
<path d="M9.38471 14.3009L11.9362 12.9597L14.4874 14.3009L14.0001 11.4606L16.0638 9.44885L13.2118 9.03365L11.9362 6.44971L10.6606 9.03365L7.80859 9.44885L9.87223 11.4606L9.38471 14.3009ZM9.71335 10.0675L11.2496 9.84401L11.9365 8.45216L12.6235 9.84401L14.1597 10.0675L13.0482 11.1511L13.3107 12.6802L11.9368 11.9577L10.563 12.6802L10.8254 11.1511L9.71335 10.0675Z" fill="white"/>
<path d="M9.38471 23.9242L11.9362 22.5834L14.4874 23.9242L14.0001 21.0846L16.0638 19.0719L13.2118 18.6576L11.9362 16.0728L10.6606 18.6576L7.80859 19.0719L9.87223 21.0846L9.38471 23.9242ZM9.71335 19.6909L11.2496 19.468L11.9365 18.0762L12.6235 19.468L14.1597 19.6909L13.0482 20.7751L13.3107 22.3036L11.9368 21.5817L10.563 22.3036L10.8254 20.7751L9.71335 19.6909Z" fill="white"/>
<path d="M9.38471 33.5474L11.9362 32.2063L14.4874 33.5474L14.0001 30.7071L16.0638 28.6945L13.2118 28.2802L11.9362 25.6953L10.6606 28.2802L7.80859 28.6945L9.87223 30.7071L9.38471 33.5474ZM9.71335 29.3141L11.2496 29.0912L11.9365 27.699L12.6235 29.0912L14.1597 29.3141L13.0482 30.3986L13.3107 31.9271L11.9368 31.2046L10.563 31.9271L10.8254 30.3986L9.71335 29.3141Z" fill="white"/>
<path d="M18.5132 8.86426H29.6671V9.75061H18.5132V8.86426Z" fill="white"/>
<path d="M18.5132 11.1912H26.0106V12.0775H18.5132V11.1912Z" fill="white"/>
<path d="M18.5132 18.4875H29.6671V19.3739H18.5132V18.4875Z" fill="white"/>
<path d="M18.5132 20.8145H26.0106V21.7008H18.5132V20.8145Z" fill="white"/>
<path d="M18.5132 28.1118H29.6671V28.9982H18.5132V28.1118Z" fill="white"/>
<path d="M18.5132 30.4387H26.0106V31.3251H18.5132V30.4387Z" fill="white"/>
</svg>
