<svg width="323" height="65" viewBox="0 0 323 65" fill="none" xmlns="http://www.w3.org/2000/svg">
<g clip-path="url(#clip0_453_944)">
<path d="M18.3771 61.3884C18.4402 60.6637 18.6198 59.9263 18.5473 59.2174C18.3803 57.5883 18.0368 55.9782 17.873 54.3523C17.7879 53.5236 17.8289 52.6444 18.0085 51.8315C18.2826 50.5963 19.3476 50.1048 20.419 50.7665C21.2729 51.2927 22.0764 51.9922 22.7003 52.7768C24.3104 54.7871 25.8008 56.8919 27.3606 58.9432C27.83 59.5608 28.3594 60.128 28.8604 60.7204C28.9518 60.6983 29.0463 60.6763 29.1377 60.6542C29.2165 60.1595 29.3457 59.6648 29.3646 59.167C29.5757 53.6149 27.7765 48.7751 24.2316 44.5244C22.2087 42.0981 20.0598 39.8578 17.1892 38.4084C16.5496 38.0838 16.1053 38.1626 15.5255 38.5659C12.6203 40.5825 9.71512 42.6086 6.72485 44.4929C5.79847 45.0758 4.62 45.3184 3.52031 45.5453C2.59393 45.7375 1.83139 45.2271 1.23586 44.5023C-0.976123 41.8177 -0.128507 37.8632 3.05712 36.2342C5.71969 34.873 8.60283 34.624 11.5269 34.8415C12.8031 34.936 14.054 35.3141 15.3302 35.437C15.7776 35.4811 16.3511 35.2637 16.7103 34.9738C19.7762 32.5034 23.1193 30.5215 26.9068 29.4249C32.9693 27.6667 39.1263 26.9861 45.362 28.445C46.6319 28.7412 47.8293 29.3493 49.0833 29.74C49.4835 29.8661 50.0286 29.9102 50.3847 29.74C54.6826 27.6793 59.2326 27.4713 63.8677 27.8053C67.5921 28.0763 71.2315 28.7412 74.7133 30.1465C77.6689 31.3407 80.3788 32.9446 82.8145 34.999C83.3312 35.4338 83.7913 35.5189 84.4719 35.3582C88.5209 34.4161 92.5541 34.3121 96.3952 36.1806C99.4579 37.6679 100.435 41.052 98.7521 43.9068C97.8415 45.4539 96.4771 46.0873 94.8134 45.413C93.115 44.7261 91.4513 43.8847 89.9105 42.8985C87.8434 41.5751 85.893 40.0689 83.9236 38.5974C83.388 38.1972 82.9626 38.1185 82.345 38.4304C80.0637 39.5931 78.1605 41.2096 76.4873 43.1222C74.08 45.8762 71.9625 48.7971 70.9416 52.3829C70.2673 54.7461 70.0593 57.1566 70.1539 59.5986C70.1665 59.9358 70.2831 60.2666 70.4028 60.8401C70.8754 60.3423 71.2378 60.024 71.5245 59.6459C73.2954 57.3173 75.019 54.9478 76.8308 52.6507C77.4011 51.9292 78.1321 51.2895 78.901 50.7822C80.0574 50.0197 81.2989 50.4923 81.4974 51.8567C81.6833 53.1328 81.5698 54.4689 81.4659 55.7702C81.3745 56.9329 81.0657 58.0799 80.9649 59.2426C80.905 59.9358 81.0625 60.6448 81.1224 61.3474C81.2421 61.3726 81.3587 61.401 81.4785 61.4262C81.7967 60.9693 82.1843 60.5439 82.4238 60.0461C84.0969 56.6021 85.288 53.0068 85.7795 49.1941C85.9024 48.2425 86.353 47.7888 87.0809 47.8959C87.8151 48.0031 88.1081 48.5324 87.9821 49.5061C87.4842 53.2809 86.3562 56.873 84.7712 60.3234C84.3742 61.1899 83.8417 62.0249 83.2367 62.7654C81.9669 64.3282 80.0763 64.0604 79.2192 62.2486C78.6331 61.0103 78.6142 59.6963 78.8096 58.3761C79.0333 56.8699 79.3011 55.37 79.5343 53.867C79.591 53.4984 79.591 53.1234 79.4366 52.6444C79.1972 52.9375 78.9388 53.2179 78.7182 53.5267C76.982 55.9214 75.2679 58.3288 73.5128 60.7078C73.0654 61.3159 72.536 61.8831 71.9594 62.3715C70.4438 63.6476 68.7548 63.1277 68.2349 61.2214C67.7087 59.2898 67.923 57.3205 68.1184 55.37C68.6414 50.2056 71.1023 45.9518 74.436 42.1171C76.2352 40.0469 78.2046 38.1878 80.6309 36.8612C80.7789 36.7825 80.9018 36.6596 81.0342 36.5556C76.8528 30.9311 58.5489 27.6352 52.2186 31.4258C52.6944 31.8039 53.1355 32.16 53.5829 32.5066C59.617 37.1637 62.8625 43.2293 62.894 50.9209C62.9098 54.513 62.6168 58.061 61.3123 61.4514C61.0507 62.1289 60.7293 62.8 60.3292 63.405C58.949 65.4878 56.5952 65.5729 55.3632 63.4113C54.3896 61.7066 53.6712 59.8097 53.1449 57.9129C52.4517 55.411 52.061 52.824 51.5253 50.2781C51.4371 49.8495 51.3016 49.4273 51.1472 49.0177C50.9046 48.378 50.5139 47.8959 49.745 47.8959C48.9794 47.8959 48.5193 48.3434 48.3366 49.0019C47.99 50.2686 47.7473 51.5637 47.4259 52.8366C46.6949 55.7229 45.9891 58.6187 45.173 61.4829C44.9461 62.2738 44.4451 63.0206 43.941 63.6917C42.627 65.4374 40.4623 65.45 39.3437 63.5972C38.5244 62.2423 37.8848 60.7141 37.4909 59.1827C36.6591 55.9372 36.5236 52.6287 36.7126 49.2603C37.1223 41.8366 40.7616 36.3539 46.5248 32.0276C46.7548 31.8543 46.9753 31.6747 47.2117 31.4888C42.5199 27.4461 22.8547 30.8807 18.3614 36.5524C18.667 36.7604 18.9632 36.9652 19.2657 37.17C25.0257 41.0583 29.1471 46.1629 30.9117 52.9816C31.5324 55.3795 31.6175 57.8372 31.4127 60.3013C31.3843 60.6479 31.2993 60.9977 31.189 61.3285C30.6155 63.071 29.1093 63.613 27.7009 62.4282C26.7304 61.6121 25.9206 60.5754 25.1486 59.5545C23.6834 57.6167 22.2969 55.619 20.8759 53.6465C20.6238 53.2967 20.3528 52.9627 19.8959 52.676C19.8959 53.0824 19.8518 53.4952 19.9022 53.8954C20.1606 55.9246 20.5072 57.9444 20.6805 59.9767C20.7435 60.6983 20.5103 61.4955 20.2268 62.1824C19.4674 64.0037 17.498 64.3471 16.3259 62.7591C15.3648 61.4609 14.6023 59.9767 13.9721 58.48C12.7653 55.6158 11.9334 52.6318 11.5553 49.5313C11.4387 48.5923 11.6908 48.0566 12.3525 47.9495C13.0678 47.8329 13.5183 48.2835 13.6507 49.254C14.1454 52.9406 15.2577 56.4382 16.8741 59.7782C17.1577 60.3675 17.5642 60.8968 17.9171 61.4546C18.0715 61.4293 18.2259 61.4073 18.3803 61.3821L18.3771 61.3884ZM38.7702 51.3714C38.7513 54.409 39.0223 57.2007 39.8668 59.9043C40.1314 60.755 40.56 61.5711 41.0232 62.3368C41.3729 62.9166 41.9243 62.8788 42.2993 62.3148C42.6554 61.7823 43.0335 61.2245 43.2005 60.6195C43.9063 58.0893 44.5365 55.5402 45.195 52.9974C45.6708 51.1666 46.0931 49.317 46.6508 47.5084C46.9186 46.6418 47.6087 45.9329 48.5508 45.8604C50.9109 45.6839 52.2154 45.4886 53.2395 48.4631C53.3624 48.8223 53.4915 49.1815 53.5735 49.5502C54.1596 52.2632 54.6543 54.9982 55.338 57.686C55.7161 59.1733 56.3148 60.6259 56.9828 62.0123C57.4555 62.9922 58.0794 62.9481 58.6843 62.0438C58.9427 61.6594 59.1507 61.2277 59.2988 60.7897C60.7293 56.6115 60.9751 52.3136 60.4772 47.9653C59.7021 41.1812 55.8044 36.4705 50.3091 32.8437C49.8742 32.557 49.5339 32.6043 49.1117 32.869C45.4062 35.1944 42.5041 38.2634 40.5694 42.1958C39.1168 45.1483 38.6883 48.3245 38.7608 51.3714H38.7702ZM13.5152 37.4788C13.49 37.3843 13.4616 37.2898 13.4364 37.1952C13.0173 37.1228 12.5951 36.981 12.1792 36.9873C10.3737 37.0125 8.54926 36.9306 6.77211 37.1889C5.60626 37.3591 4.41204 37.8884 3.41003 38.5312C1.98894 39.4419 1.71796 41.0394 2.46474 42.5613C2.96259 43.5823 3.39427 43.8469 4.40258 43.2892C6.64607 42.0477 8.82655 40.6897 11.0007 39.3316C11.883 38.7802 12.6802 38.0996 13.5183 37.4788H13.5152ZM86.1261 37.1984L86.0127 37.4694C87.3739 38.4588 88.6879 39.5238 90.109 40.4187C91.7601 41.4585 93.4774 42.4038 95.2198 43.2798C96.1242 43.7335 96.4771 43.4972 96.9466 42.5739C97.9265 40.6455 97.0758 38.6478 94.744 37.7687C91.9397 36.7163 89.0313 36.7982 86.123 37.1984H86.1261Z" fill="#00B92B"/>
<path d="M86.7211 19.9654C89.85 19.9213 92.3645 22.3885 92.396 25.5363C92.4275 28.5361 89.9036 31.1545 86.9448 31.1892C83.6867 31.227 81.1187 28.7692 81.0935 25.5868C81.0682 22.4767 83.5355 20.0127 86.7179 19.9654H86.7211ZM90.1903 25.6466C90.2344 23.7119 88.6495 22.0545 86.7494 22.0482C84.9187 22.0419 83.3243 23.6142 83.296 25.4544C83.2645 27.4175 84.7108 28.9488 86.6423 28.9961C88.5802 29.0434 90.1493 27.5624 90.1903 25.6466Z" fill="#00B92B"/>
<path d="M44.1615 20.416C44.2056 17.2146 46.6917 14.8356 49.9467 14.8829C52.9811 14.9302 55.3758 17.4887 55.3348 20.6429C55.2939 23.7434 52.7479 26.1287 49.5402 26.0751C46.5027 26.0247 44.1174 23.5134 44.1615 20.416ZM53.252 20.4444C53.2174 18.5317 51.5789 16.9594 49.6473 16.9877C47.8135 17.013 46.175 18.6924 46.1939 20.5263C46.2159 22.3917 47.93 24.027 49.8175 23.9829C51.6892 23.9388 53.2836 22.2971 53.2489 20.4444H53.252Z" fill="#00B92B"/>
<path d="M18.2757 25.7569C18.2127 28.8071 15.7077 31.205 12.6449 31.1483C9.63892 31.0915 7.02991 28.4321 7.11814 25.508C7.21582 22.3255 9.76495 19.8583 12.9537 20.0127C16.3158 20.1766 18.1119 22.5398 18.2726 25.7569H18.2757ZM9.24505 25.5112C9.19463 27.783 11.0127 29.1758 12.6292 29.2388C14.4095 29.3081 16.486 27.1402 16.5143 25.3883C16.5364 23.9325 14.3906 22.0041 12.7584 22.0167C10.8048 22.0294 9.23244 23.5954 9.24505 25.508V25.5112Z" fill="#00B92B"/>
<path d="M77.1733 7.4371C76.9149 8.0799 76.7984 8.50213 76.5872 8.8771C75.5474 10.7204 74.4855 12.548 73.43 14.3818C72.8943 15.3114 72.1349 15.7683 71.1298 15.1979C70.1088 14.6182 70.1561 13.7264 70.6886 12.8064C71.7883 10.8969 72.825 8.94642 74.0413 7.11255C74.3721 6.6147 75.2512 6.23343 75.8657 6.25549C76.3194 6.27124 76.7448 7.02433 77.1733 7.44025V7.4371Z" fill="#FFDD00"/>
<path d="M39.0266 1.26449C39.4173 0.930484 39.8836 0.253025 40.5012 0.0639665C41.3803 -0.207017 42.0483 0.416875 42.2185 1.296C42.6722 3.63087 43.0787 5.97834 43.4379 8.32896C43.5734 9.21438 43.1606 9.91705 42.2343 10.0998C41.3362 10.2763 40.5958 9.88239 40.413 8.97491C39.9246 6.55812 39.5307 4.12242 39.0203 1.26449H39.0266Z" fill="#FFDD00"/>
<path d="M28.9945 14.1741C28.7329 14.4608 28.4052 15.1288 27.942 15.2423C27.4127 15.3714 26.4579 15.2013 26.2153 14.82C24.8541 12.7152 23.5811 10.5442 22.4593 8.30382C22.2388 7.86269 22.6327 6.7882 23.0801 6.4353C23.433 6.15801 24.6587 6.30926 24.8887 6.66532C26.3224 8.8773 27.586 11.1996 28.8968 13.4903C28.9566 13.5975 28.9377 13.7487 28.9945 14.1741Z" fill="#FFDD00"/>
<path d="M57.7724 10.1406C56.3828 10.1122 55.6896 9.36546 55.844 8.34455C56.2 5.99077 56.6065 3.6433 57.0602 1.30843C57.243 0.366291 57.9204 -0.141015 58.913 0.0354394C59.8646 0.202441 60.2679 0.91456 60.1324 1.79053C59.7669 4.18527 59.3762 6.58316 58.8468 8.94638C58.7271 9.48835 58.0087 9.89483 57.7755 10.1438L57.7724 10.1406Z" fill="#FFDD00"/>
<path d="M127.174 12.5536C128.47 13.1397 129.465 13.9715 130.165 15.0492C130.864 16.1268 131.214 17.4029 131.214 18.8776C131.214 20.3522 130.864 21.6063 130.165 22.6934C129.465 23.7805 128.466 24.6124 127.174 25.189C125.879 25.7656 124.351 26.0555 122.593 26.0555H118.594V31.5287H114V11.6776H122.593C124.351 11.6776 125.876 11.9707 127.174 12.5567V12.5536ZM125.486 21.4141C126.204 20.8186 126.563 19.971 126.563 18.8744C126.563 17.7779 126.204 16.9051 125.486 16.3095C124.767 15.714 123.718 15.4178 122.338 15.4178H118.594V22.309H122.338C123.718 22.309 124.767 22.0097 125.486 21.4173V21.4141Z" fill="#00249C"/>
<path d="M133.88 10.4832H138.304V31.5254H133.88V10.4832Z" fill="#00249C"/>
<path d="M156.708 25.1451H145.166C145.374 26.0904 145.865 26.8372 146.641 27.3854C147.416 27.9337 148.38 28.2078 149.533 28.2078C150.327 28.2078 151.03 28.0912 151.647 27.8549C152.262 27.6186 152.832 27.2468 153.362 26.7363L155.715 29.2886C154.279 30.9334 152.18 31.7558 149.42 31.7558C147.699 31.7558 146.177 31.4218 144.854 30.7475C143.531 30.0764 142.51 29.1468 141.791 27.9558C141.073 26.7647 140.714 25.4129 140.714 23.9004C140.714 22.388 141.067 21.0614 141.779 19.8578C142.488 18.6572 143.461 17.7214 144.7 17.0502C145.938 16.3791 147.321 16.0419 148.853 16.0419C150.384 16.0419 151.698 16.3633 152.908 17.0061C154.118 17.6489 155.066 18.569 155.756 19.7695C156.446 20.9701 156.793 22.3659 156.793 23.954C156.793 24.0107 156.765 24.4078 156.708 25.1451ZM146.357 20.239C145.676 20.8062 145.26 21.5813 145.109 22.5644H152.624C152.473 21.6002 152.057 20.8314 151.377 20.2548C150.696 19.6782 149.864 19.3883 148.881 19.3883C147.898 19.3883 147.038 19.6718 146.357 20.239Z" fill="#00249C"/>
<path d="M174.715 10.4832V31.5254H170.49V29.7672C169.393 31.0906 167.805 31.7523 165.726 31.7523C164.289 31.7523 162.991 31.4309 161.825 30.7881C160.662 30.1453 159.751 29.2283 159.09 28.0373C158.428 26.8462 158.097 25.4661 158.097 23.8969C158.097 22.3277 158.428 20.9476 159.09 19.7565C159.751 18.5655 160.665 17.6485 161.825 17.0057C162.987 16.3629 164.289 16.0415 165.726 16.0415C167.673 16.0415 169.195 16.656 170.291 17.8848V10.4832H174.715ZM169.271 26.9722C170.008 26.2066 170.377 25.1825 170.377 23.8969C170.377 22.6113 170.008 21.5872 169.271 20.8184C168.533 20.0527 167.607 19.6714 166.491 19.6714C165.376 19.6714 164.421 20.0527 163.684 20.8184C162.947 21.5841 162.578 22.6113 162.578 23.8969C162.578 25.1825 162.947 26.2066 163.684 26.9722C164.421 27.7379 165.357 28.1224 166.491 28.1224C167.626 28.1224 168.533 27.7379 169.271 26.9722Z" fill="#00249C"/>
<path d="M193.972 16.2688V28.9735C193.972 31.7716 193.244 33.8512 191.788 35.2124C190.332 36.5737 188.205 37.2543 185.407 37.2543C183.933 37.2543 182.534 37.0747 181.21 36.7155C179.887 36.3562 178.79 35.8363 177.921 35.1557L179.679 31.9795C180.322 32.5089 181.135 32.9311 182.118 33.2399C183.101 33.5519 184.084 33.7094 185.067 33.7094C186.598 33.7094 187.726 33.3628 188.454 32.6728C189.182 31.9827 189.544 30.9397 189.544 29.5407V28.8884C188.391 30.1551 186.784 30.7885 184.723 30.7885C183.324 30.7885 182.045 30.4828 180.879 29.8652C179.717 29.2508 178.796 28.3874 178.116 27.272C177.435 26.1565 177.095 24.871 177.095 23.4152C177.095 21.9595 177.435 20.6739 178.116 19.5584C178.796 18.443 179.717 17.5796 180.879 16.9652C182.042 16.3507 183.321 16.0419 184.723 16.0419C186.935 16.0419 188.618 16.7698 189.771 18.2256V16.2688H193.968H193.972ZM188.483 26.1219C189.229 25.4318 189.604 24.5306 189.604 23.4152C189.604 22.2998 189.229 21.3986 188.483 20.7085C187.736 20.0185 186.775 19.6719 185.606 19.6719C184.437 19.6719 183.469 20.0185 182.713 20.7085C181.957 21.3986 181.579 22.3029 181.579 23.4152C181.579 24.5275 181.957 25.435 182.713 26.1219C183.469 26.812 184.434 27.1586 185.606 27.1586C186.778 27.1586 187.736 26.8151 188.483 26.1219Z" fill="#00249C"/>
<path d="M212.376 25.1451H200.834C201.042 26.0904 201.534 26.8372 202.309 27.3854C203.084 27.9337 204.048 28.2078 205.202 28.2078C205.996 28.2078 206.698 28.0912 207.316 27.8549C207.93 27.6186 208.501 27.2468 209.03 26.7363L211.384 29.2886C209.947 30.9334 207.848 31.7558 205.088 31.7558C203.368 31.7558 201.846 31.4218 200.522 30.7475C199.199 30.0764 198.178 29.1468 197.46 27.9558C196.741 26.7647 196.382 25.4129 196.382 23.9004C196.382 22.388 196.735 21.0614 197.447 19.8578C198.156 18.6572 199.13 17.7214 200.368 17.0502C201.606 16.3791 202.99 16.0419 204.521 16.0419C206.052 16.0419 207.366 16.3633 208.576 17.0061C209.786 17.6489 210.735 18.569 211.425 19.7695C212.115 20.9701 212.461 22.3659 212.461 23.954C212.461 24.0107 212.433 24.4078 212.376 25.1451ZM202.025 20.239C201.345 20.8062 200.929 21.5813 200.778 22.5644H208.293C208.141 21.6002 207.726 20.8314 207.045 20.2548C206.364 19.6782 205.533 19.3883 204.549 19.3883C203.566 19.3883 202.706 19.6718 202.025 20.239Z" fill="#00249C"/>
<path d="M228.455 27.7824V31.5258H213.453V28.5481L221.11 21.3167C221.923 20.5415 222.471 19.8767 222.755 19.3189C223.039 18.7612 223.18 18.2098 223.18 17.6615C223.18 16.8675 222.913 16.2562 222.374 15.8308C221.835 15.4054 221.044 15.1943 220.004 15.1943C219.135 15.1943 218.35 15.3613 217.65 15.689C216.951 16.0199 216.365 16.5177 215.892 17.1794L212.546 15.0242C213.321 13.8709 214.389 12.9666 215.75 12.3143C217.112 11.6621 218.671 11.3375 220.43 11.3375C221.904 11.3375 223.193 11.577 224.299 12.0591C225.405 12.5412 226.265 13.2218 226.88 14.1009C227.494 14.98 227.8 16.0167 227.8 17.2078C227.8 18.2854 227.573 19.2969 227.119 20.2422C226.665 21.1875 225.786 22.2651 224.482 23.4751L219.916 27.7856H228.452L228.455 27.7824Z" fill="#00B92B"/>
<path d="M244.206 12.5536C245.501 13.1397 246.5 13.9715 247.196 15.0492C247.896 16.1268 248.246 17.4029 248.246 18.8776C248.246 20.3522 247.896 21.6063 247.196 22.6934C246.497 23.7805 245.501 24.6124 244.206 25.189C242.911 25.7656 241.383 26.0555 239.628 26.0555H235.629V31.5287H231.035V11.6776H239.628C241.386 11.6776 242.911 11.9707 244.206 12.5567V12.5536ZM242.517 21.4141C243.236 20.8186 243.595 19.971 243.595 18.8744C243.595 17.7779 243.236 16.9051 242.517 16.3095C241.799 15.714 240.75 15.4178 239.369 15.4178H235.626V22.309H239.369C240.75 22.309 241.799 22.0097 242.517 21.4173V21.4141Z" fill="#00249C"/>
<path d="M256.997 16.6091C257.895 16.231 258.928 16.0419 260.104 16.0419V20.1256C259.612 20.0878 259.281 20.0689 259.111 20.0689C257.844 20.0689 256.852 20.4218 256.133 21.1339C255.415 21.8429 255.056 22.9047 255.056 24.3227V31.5258H250.632V16.2688H254.857V18.2823C255.387 17.5449 256.102 16.9872 256.997 16.6091Z" fill="#00249C"/>
<path d="M264.966 30.7444C263.689 30.0732 262.694 29.1437 261.975 27.9526C261.257 26.7616 260.898 25.4098 260.898 23.8973C260.898 22.3849 261.257 21.0331 261.975 19.842C262.694 18.651 263.693 17.7214 264.966 17.0471C266.242 16.376 267.682 16.0388 269.289 16.0388C270.896 16.0388 272.333 16.376 273.599 17.0471C274.866 17.7183 275.859 18.6478 276.577 19.842C277.295 21.0331 277.655 22.3849 277.655 23.8973C277.655 25.4098 277.295 26.7616 276.577 27.9526C275.859 29.1437 274.866 30.0764 273.599 30.7444C272.333 31.4155 270.896 31.7527 269.289 31.7527C267.682 31.7527 266.242 31.4187 264.966 30.7444ZM272.084 26.9727C272.812 26.207 273.174 25.1829 273.174 23.8973C273.174 22.6117 272.812 21.5877 272.084 20.8188C271.356 20.0531 270.426 19.6719 269.289 19.6719C268.151 19.6719 267.219 20.0531 266.481 20.8188C265.744 21.5845 265.375 22.6117 265.375 23.8973C265.375 25.1829 265.744 26.207 266.481 26.9727C267.219 27.7384 268.154 28.1228 269.289 28.1228C270.423 28.1228 271.353 27.7384 272.084 26.9727Z" fill="#00249C"/>
<path d="M292.929 17.0188C294.092 17.671 295.002 18.588 295.667 19.7696C296.329 20.9512 296.66 22.3282 296.66 23.8973C296.66 25.4665 296.329 26.8435 295.667 28.022C295.005 29.2036 294.095 30.1205 292.929 30.7728C291.766 31.425 290.474 31.7496 289.056 31.7496C287.109 31.7496 285.578 31.1351 284.462 29.9062V37.0243H280.038V16.2657H284.264V18.0239C285.36 16.7005 286.958 16.0388 289.056 16.0388C290.474 16.0388 291.766 16.3665 292.929 17.0188ZM291.086 26.9727C291.814 26.207 292.176 25.1829 292.176 23.8973C292.176 22.6117 291.81 21.5877 291.086 20.8188C290.358 20.0531 289.425 19.6719 288.291 19.6719C287.156 19.6719 286.227 20.0531 285.496 20.8188C284.768 21.5845 284.406 22.6117 284.406 23.8973C284.406 25.1829 284.768 26.207 285.496 26.9727C286.224 27.7384 287.156 28.1228 288.291 28.1228C289.425 28.1228 290.355 27.7384 291.086 26.9727Z" fill="#00249C"/>
<path d="M313.902 25.1451H302.36C302.568 26.0904 303.059 26.8372 303.834 27.3854C304.61 27.9337 305.574 28.2078 306.727 28.2078C307.521 28.2078 308.224 28.0912 308.841 27.8549C309.456 27.6186 310.026 27.2468 310.555 26.7363L312.909 29.2886C311.472 30.9334 309.374 31.7558 306.614 31.7558C304.893 31.7558 303.371 31.4218 302.048 30.7475C300.724 30.0764 299.704 29.1468 298.985 27.9558C298.267 26.7647 297.907 25.4129 297.907 23.9004C297.907 22.388 298.26 21.0614 298.973 19.8578C299.681 18.6572 300.655 17.7214 301.893 17.0502C303.132 16.3791 304.515 16.0419 306.05 16.0419C307.584 16.0419 308.895 16.3633 310.105 17.0061C311.315 17.6489 312.263 18.569 312.953 19.7695C313.643 20.9701 313.99 22.3659 313.99 23.954C313.99 24.0107 313.962 24.4078 313.905 25.1451H313.902ZM303.551 20.239C302.87 20.8062 302.454 21.5813 302.303 22.5644H309.818C309.667 21.6002 309.251 20.8314 308.57 20.2548C307.89 19.6782 307.058 19.3883 306.075 19.3883C305.092 19.3883 304.231 19.6718 303.551 20.239Z" fill="#00249C"/>
<path d="M316.369 10.4832H320.793V31.5254H316.369V10.4832Z" fill="#00249C"/>
<path fill-rule="evenodd" clip-rule="evenodd" d="M322.17 43.5341H112V42.6605H322.17V43.5341Z" fill="black"/>
<path d="M118.497 59.6408H114.253L113.374 61.6376H112.199L115.816 53.6504H116.945L120.574 61.6376H119.376L118.497 59.6408ZM118.098 58.728L116.375 54.8142L114.652 58.728H118.098Z" fill="black"/>
<path d="M128.401 61.7289C127.602 61.7289 126.88 61.554 126.233 61.204C125.594 60.8465 125.092 60.3597 124.727 59.7435C124.362 59.1198 124.179 58.4199 124.179 57.644C124.179 56.8681 124.362 56.1721 124.727 55.5559C125.092 54.9322 125.598 54.4453 126.245 54.0954C126.891 53.7379 127.614 53.5591 128.413 53.5591C129.036 53.5591 129.607 53.6656 130.124 53.8786C130.641 54.084 131.083 54.3921 131.448 54.8028L130.706 55.5217C130.105 54.8903 129.356 54.5746 128.458 54.5746C127.865 54.5746 127.329 54.7077 126.849 54.974C126.37 55.2402 125.994 55.6092 125.72 56.0808C125.453 56.5448 125.32 57.0659 125.32 57.644C125.32 58.2221 125.453 58.747 125.72 59.2186C125.994 59.6827 126.37 60.0478 126.849 60.314C127.329 60.5803 127.865 60.7134 128.458 60.7134C129.348 60.7134 130.098 60.3939 130.706 59.7549L131.448 60.4738C131.083 60.8846 130.638 61.1964 130.113 61.4094C129.595 61.6224 129.025 61.7289 128.401 61.7289Z" fill="black"/>
<path d="M135.37 61.7289C134.769 61.7289 134.187 61.6376 133.624 61.4551C133.069 61.2649 132.631 61.0215 132.312 60.7248L132.734 59.8348C133.038 60.1086 133.426 60.3331 133.898 60.508C134.377 60.6754 134.868 60.759 135.37 60.759C136.032 60.759 136.526 60.6487 136.853 60.4281C137.18 60.1999 137.344 59.8995 137.344 59.5267C137.344 59.2529 137.252 59.0323 137.07 58.8649C136.895 58.69 136.674 58.5568 136.408 58.4656C136.149 58.3743 135.781 58.2716 135.301 58.1575C134.7 58.0129 134.214 57.8684 133.841 57.7239C133.476 57.5794 133.16 57.3588 132.894 57.0621C132.635 56.7578 132.506 56.3508 132.506 55.8412C132.506 55.4152 132.616 55.031 132.837 54.6887C133.065 54.3464 133.407 54.0726 133.864 53.8672C134.32 53.6618 134.887 53.5591 135.564 53.5591C136.035 53.5591 136.499 53.62 136.956 53.7417C137.412 53.8634 137.804 54.0383 138.131 54.2665L137.755 55.1794C137.42 54.9664 137.062 54.8066 136.682 54.7001C136.302 54.586 135.929 54.529 135.564 54.529C134.917 54.529 134.43 54.6469 134.103 54.8827C133.784 55.1185 133.624 55.4228 133.624 55.7955C133.624 56.0694 133.715 56.2938 133.898 56.4687C134.08 56.6361 134.305 56.7692 134.571 56.8681C134.845 56.9594 135.214 57.0583 135.678 57.1648C136.279 57.3093 136.762 57.4538 137.127 57.5984C137.492 57.7429 137.804 57.9635 138.063 58.2602C138.329 58.5568 138.462 58.9562 138.462 59.4583C138.462 59.8766 138.348 60.2608 138.12 60.6107C137.891 60.953 137.545 61.2269 137.081 61.4323C136.617 61.63 136.047 61.7289 135.37 61.7289Z" fill="black"/>
<path d="M145.469 61.6376L143.746 59.1844C143.533 59.1996 143.366 59.2072 143.244 59.2072H141.27V61.6376H140.129V53.6504H143.244C144.279 53.6504 145.092 53.8976 145.686 54.3921C146.279 54.8865 146.576 55.5673 146.576 56.4345C146.576 57.0507 146.424 57.5756 146.119 58.0091C145.815 58.4427 145.382 58.7584 144.819 58.9562L146.713 61.6376H145.469ZM143.21 58.2374C143.932 58.2374 144.484 58.0814 144.864 57.7695C145.245 57.4576 145.435 57.0126 145.435 56.4345C145.435 55.8564 145.245 55.4152 144.864 55.1109C144.484 54.799 143.932 54.6431 143.21 54.6431H141.27V58.2374H143.21Z" fill="black"/>
<path d="M151.484 53.6504H152.625V61.6376H151.484V53.6504Z" fill="black"/>
<path d="M158.085 55.5331C158.854 55.5331 159.462 55.7575 159.911 56.2063C160.367 56.6475 160.596 57.2979 160.596 58.1575V61.6376H159.5V58.283C159.5 57.6973 159.359 57.2561 159.078 56.9594C158.797 56.6627 158.393 56.5144 157.868 56.5144C157.275 56.5144 156.807 56.6893 156.465 57.0393C156.123 57.3816 155.952 57.876 155.952 58.5226V61.6376H154.856V55.5901H155.906V56.503C156.127 56.1911 156.423 55.9515 156.796 55.7841C157.176 55.6168 157.606 55.5331 158.085 55.5331Z" fill="black"/>
<path d="M162.623 55.5901H163.718V61.6376H162.623V55.5901ZM163.17 54.4263C162.957 54.4263 162.779 54.3578 162.634 54.2209C162.497 54.084 162.429 53.9166 162.429 53.7189C162.429 53.5211 162.497 53.3537 162.634 53.2168C162.779 53.0723 162.957 53 163.17 53C163.383 53 163.558 53.0685 163.695 53.2054C163.84 53.3347 163.912 53.4983 163.912 53.696C163.912 53.9014 163.84 54.0764 163.695 54.2209C163.558 54.3578 163.383 54.4263 163.17 54.4263Z" fill="black"/>
<path d="M169.21 61.2839C169.05 61.4208 168.852 61.5273 168.617 61.6034C168.381 61.6719 168.137 61.7061 167.886 61.7061C167.278 61.7061 166.806 61.5426 166.471 61.2155C166.137 60.8884 165.969 60.4205 165.969 59.812V56.4916H164.942V55.5901H165.969V54.2665H167.065V55.5901H168.799V56.4916H167.065V59.7663C167.065 60.0934 167.145 60.3445 167.304 60.5194C167.472 60.6944 167.708 60.7819 168.012 60.7819C168.347 60.7819 168.632 60.6868 168.868 60.4966L169.21 61.2839Z" fill="black"/>
<path d="M170.534 55.5901H171.63V61.6376H170.534V55.5901ZM171.082 54.4263C170.869 54.4263 170.69 54.3578 170.546 54.2209C170.409 54.084 170.34 53.9166 170.34 53.7189C170.34 53.5211 170.409 53.3537 170.546 53.2168C170.69 53.0723 170.869 53 171.082 53C171.295 53 171.47 53.0685 171.607 53.2054C171.751 53.3347 171.824 53.4983 171.824 53.696C171.824 53.9014 171.751 54.0764 171.607 54.2209C171.47 54.3578 171.295 54.4263 171.082 54.4263Z" fill="black"/>
<path d="M175.923 55.5331C176.76 55.5331 177.399 55.7385 177.84 56.1493C178.289 56.56 178.513 57.1724 178.513 57.9863V61.6376H177.475V60.8389C177.293 61.1204 177.03 61.3372 176.688 61.4893C176.353 61.6338 175.954 61.7061 175.49 61.7061C174.813 61.7061 174.269 61.5426 173.858 61.2155C173.455 60.8884 173.253 60.4586 173.253 59.9261C173.253 59.3936 173.447 58.9676 173.835 58.6481C174.223 58.321 174.839 58.1575 175.684 58.1575H177.418V57.9407C177.418 57.4691 177.281 57.1077 177.007 56.8567C176.733 56.6057 176.33 56.4802 175.798 56.4802C175.44 56.4802 175.09 56.541 174.748 56.6627C174.406 56.7768 174.117 56.9328 173.881 57.1305L173.424 56.309C173.736 56.058 174.109 55.8678 174.543 55.7385C174.976 55.6016 175.436 55.5331 175.923 55.5331ZM175.672 60.8617C176.091 60.8617 176.452 60.7705 176.756 60.5879C177.061 60.3977 177.281 60.1315 177.418 59.7892V58.9448H175.729C174.801 58.9448 174.337 59.2567 174.337 59.8804C174.337 60.1847 174.455 60.4243 174.691 60.5993C174.927 60.7743 175.254 60.8617 175.672 60.8617Z" fill="black"/>
<path d="M183.941 61.2839C183.781 61.4208 183.583 61.5273 183.348 61.6034C183.112 61.6719 182.868 61.7061 182.617 61.7061C182.009 61.7061 181.537 61.5426 181.202 61.2155C180.868 60.8884 180.7 60.4205 180.7 59.812V56.4916H179.673V55.5901H180.7V54.2665H181.796V55.5901H183.53V56.4916H181.796V59.7663C181.796 60.0934 181.876 60.3445 182.035 60.5194C182.203 60.6944 182.439 60.7819 182.743 60.7819C183.077 60.7819 183.363 60.6868 183.599 60.4966L183.941 61.2839Z" fill="black"/>
<path d="M185.265 55.5901H186.361V61.6376H185.265V55.5901ZM185.813 54.4263C185.6 54.4263 185.421 54.3578 185.277 54.2209C185.14 54.084 185.071 53.9166 185.071 53.7189C185.071 53.5211 185.14 53.3537 185.277 53.2168C185.421 53.0723 185.6 53 185.813 53C186.026 53 186.201 53.0685 186.338 53.2054C186.482 53.3347 186.555 53.4983 186.555 53.696C186.555 53.9014 186.482 54.0764 186.338 54.2209C186.201 54.3578 186.026 54.4263 185.813 54.4263Z" fill="black"/>
<path d="M193.804 55.5901L191.156 61.6376H190.038L187.391 55.5901H188.532L190.609 60.4395L192.731 55.5901H193.804Z" fill="black"/>
<path d="M200.124 58.6481C200.124 58.7318 200.117 58.8421 200.101 58.979H195.195C195.263 59.5115 195.495 59.9413 195.891 60.2684C196.294 60.5879 196.792 60.7476 197.386 60.7476C198.108 60.7476 198.69 60.5042 199.132 60.0174L199.736 60.7248C199.462 61.0443 199.12 61.2877 198.709 61.4551C198.306 61.6224 197.854 61.7061 197.352 61.7061C196.713 61.7061 196.146 61.5768 195.651 61.3181C195.157 61.0519 194.773 60.683 194.499 60.2113C194.233 59.7397 194.1 59.2072 194.1 58.6139C194.1 58.0282 194.229 57.4995 194.488 57.0279C194.754 56.5562 195.115 56.1911 195.572 55.9325C196.036 55.6662 196.557 55.5331 197.135 55.5331C197.713 55.5331 198.226 55.6662 198.675 55.9325C199.132 56.1911 199.485 56.5562 199.736 57.0279C199.995 57.4995 200.124 58.0396 200.124 58.6481ZM197.135 56.4573C196.61 56.4573 196.169 56.6171 195.811 56.9366C195.461 57.2561 195.256 57.6744 195.195 58.1917H199.074C199.014 57.682 198.804 57.2675 198.447 56.948C198.097 56.6209 197.66 56.4573 197.135 56.4573Z" fill="black"/>
<path d="M207.3 61.7061C206.699 61.7061 206.159 61.573 205.679 61.3067C205.2 61.0405 204.824 60.6754 204.55 60.2113C204.284 59.7397 204.15 59.2072 204.15 58.6139C204.15 58.0206 204.284 57.4919 204.55 57.0279C204.824 56.5562 205.2 56.1911 205.679 55.9325C206.159 55.6662 206.699 55.5331 207.3 55.5331C207.901 55.5331 208.437 55.6662 208.909 55.9325C209.388 56.1911 209.761 56.5562 210.027 57.0279C210.301 57.4919 210.438 58.0206 210.438 58.6139C210.438 59.2072 210.301 59.7397 210.027 60.2113C209.761 60.6754 209.388 61.0405 208.909 61.3067C208.437 61.573 207.901 61.7061 207.3 61.7061ZM207.3 60.7476C207.688 60.7476 208.034 60.6602 208.338 60.4852C208.65 60.3026 208.893 60.0516 209.068 59.7321C209.243 59.405 209.331 59.0323 209.331 58.6139C209.331 58.1955 209.243 57.8266 209.068 57.5071C208.893 57.18 208.65 56.929 208.338 56.754C208.034 56.579 207.688 56.4916 207.3 56.4916C206.912 56.4916 206.562 56.579 206.25 56.754C205.946 56.929 205.702 57.18 205.52 57.5071C205.345 57.8266 205.257 58.1955 205.257 58.6139C205.257 59.0323 205.345 59.405 205.52 59.7321C205.702 60.0516 205.946 60.3026 206.25 60.4852C206.562 60.6602 206.912 60.7476 207.3 60.7476Z" fill="black"/>
<path d="M214.166 54.0041C213.512 54.0041 213.185 54.3578 213.185 55.0653V55.5901H214.942V56.4916H213.208V61.6376H212.112V56.4916H211.085V55.5901H212.112V55.0539C212.112 54.4529 212.287 53.9775 212.637 53.6276C212.987 53.2777 213.478 53.1027 214.109 53.1027C214.352 53.1027 214.581 53.1331 214.794 53.194C215.007 53.2548 215.189 53.3423 215.341 53.4564L215.01 54.2894C214.759 54.0992 214.478 54.0041 214.166 54.0041Z" fill="black"/>
<path d="M218.948 53.6504H220.797V61.6376H218.948V53.6504Z" fill="black"/>
<path d="M228.819 53.1712V61.6376H227.119V60.9302C226.678 61.4627 226.039 61.7289 225.202 61.7289C224.624 61.7289 224.099 61.5996 223.628 61.341C223.164 61.0823 222.799 60.7134 222.532 60.2342C222.266 59.7549 222.133 59.1996 222.133 58.5683C222.133 57.9369 222.266 57.3816 222.532 56.9023C222.799 56.4231 223.164 56.0542 223.628 55.7955C224.099 55.5369 224.624 55.4076 225.202 55.4076C225.986 55.4076 226.598 55.6548 227.039 56.1493V53.1712H228.819ZM225.51 60.2684C225.959 60.2684 226.332 60.1163 226.629 59.812C226.925 59.5001 227.074 59.0855 227.074 58.5683C227.074 58.051 226.925 57.6402 226.629 57.3359C226.332 57.0241 225.959 56.8681 225.51 56.8681C225.054 56.8681 224.678 57.0241 224.381 57.3359C224.084 57.6402 223.936 58.051 223.936 58.5683C223.936 59.0855 224.084 59.5001 224.381 59.812C224.678 60.1163 225.054 60.2684 225.51 60.2684Z" fill="black"/>
<path d="M236.48 58.5911C236.48 58.6139 236.469 58.7736 236.446 59.0703H231.802C231.886 59.4507 232.083 59.7511 232.395 59.9717C232.707 60.1923 233.095 60.3026 233.559 60.3026C233.879 60.3026 234.16 60.257 234.404 60.1657C234.655 60.0668 234.887 59.9147 235.1 59.7093L236.047 60.7362C235.468 61.398 234.624 61.7289 233.514 61.7289C232.821 61.7289 232.209 61.5958 231.676 61.3296C231.144 61.0557 230.733 60.6792 230.444 60.1999C230.155 59.7207 230.011 59.1768 230.011 58.5683C230.011 57.9673 230.151 57.4272 230.433 56.948C230.722 56.4611 231.114 56.0846 231.608 55.8184C232.11 55.5445 232.669 55.4076 233.285 55.4076C233.886 55.4076 234.43 55.5369 234.917 55.7955C235.404 56.0542 235.784 56.4269 236.058 56.9138C236.339 57.393 236.48 57.9521 236.48 58.5911ZM233.297 56.754C232.894 56.754 232.555 56.8681 232.281 57.0963C232.007 57.3245 231.84 57.6364 231.779 58.032H234.803C234.742 57.644 234.575 57.3359 234.301 57.1077C234.027 56.8719 233.692 56.754 233.297 56.754Z" fill="black"/>
<path d="M239.974 55.4076C240.925 55.4076 241.655 55.6358 242.165 56.0922C242.675 56.541 242.929 57.2218 242.929 58.1347V61.6376H241.264V60.8731C240.929 61.4437 240.305 61.7289 239.392 61.7289C238.921 61.7289 238.51 61.649 238.16 61.4893C237.818 61.3296 237.555 61.109 237.373 60.8275C237.19 60.546 237.099 60.2266 237.099 59.869C237.099 59.2985 237.312 58.8497 237.738 58.5226C238.171 58.1955 238.837 58.032 239.735 58.032H241.149C241.149 57.644 241.032 57.3473 240.796 57.142C240.56 56.929 240.206 56.8225 239.735 56.8225C239.407 56.8225 239.084 56.8757 238.765 56.9822C238.453 57.0811 238.187 57.218 237.966 57.393L237.327 56.1493C237.662 55.9134 238.061 55.7309 238.525 55.6016C238.997 55.4722 239.48 55.4076 239.974 55.4076ZM239.837 60.5308C240.142 60.5308 240.412 60.4624 240.647 60.3254C240.883 60.1809 241.051 59.9717 241.149 59.6979V59.0703H239.929C239.198 59.0703 238.833 59.3099 238.833 59.7892C238.833 60.0174 238.921 60.1999 239.096 60.3369C239.278 60.4662 239.525 60.5308 239.837 60.5308Z" fill="black"/>
<path d="M246.606 61.7289C246.096 61.7289 245.598 61.6681 245.111 61.5464C244.624 61.417 244.236 61.2573 243.947 61.0671L244.54 59.7892C244.814 59.9641 245.145 60.1086 245.533 60.2228C245.921 60.3292 246.301 60.3825 246.674 60.3825C247.427 60.3825 247.804 60.1961 247.804 59.8234C247.804 59.6484 247.701 59.5229 247.496 59.4468C247.29 59.3708 246.975 59.3061 246.549 59.2529C246.047 59.1768 245.632 59.0893 245.305 58.9904C244.978 58.8915 244.693 58.7166 244.449 58.4656C244.213 58.2145 244.095 57.857 244.095 57.393C244.095 57.005 244.206 56.6627 244.426 56.3661C244.655 56.0618 244.982 55.826 245.408 55.6586C245.841 55.4913 246.351 55.4076 246.937 55.4076C247.37 55.4076 247.8 55.457 248.226 55.5559C248.66 55.6472 249.017 55.7765 249.299 55.9439L248.705 57.2104C248.165 56.9061 247.576 56.754 246.937 56.754C246.556 56.754 246.271 56.8073 246.081 56.9138C245.891 57.0202 245.796 57.1572 245.796 57.3245C245.796 57.5147 245.898 57.6478 246.104 57.7239C246.309 57.8 246.636 57.8722 247.085 57.9407C247.587 58.0244 247.998 58.1156 248.317 58.2145C248.637 58.3058 248.914 58.477 249.15 58.728C249.386 58.979 249.504 59.3289 249.504 59.7777C249.504 60.1581 249.39 60.4966 249.162 60.7933C248.933 61.0899 248.599 61.322 248.158 61.4893C247.724 61.649 247.207 61.7289 246.606 61.7289Z" fill="black"/>
<path d="M256.082 60.1315V61.6376H250.046V60.4395L253.127 57.5299C253.454 57.218 253.674 56.9518 253.788 56.7312C253.902 56.503 253.96 56.2786 253.96 56.058C253.96 55.7385 253.849 55.4951 253.629 55.3277C253.416 55.1528 253.1 55.0653 252.682 55.0653C252.332 55.0653 252.016 55.1337 251.735 55.2707C251.453 55.4 251.217 55.5978 251.027 55.864L249.681 54.9968C249.993 54.5328 250.422 54.1715 250.97 53.9128C251.518 53.6466 252.145 53.5135 252.853 53.5135C253.446 53.5135 253.963 53.6124 254.405 53.8101C254.853 54.0003 255.199 54.2742 255.443 54.6317C255.694 54.9816 255.819 55.3962 255.819 55.8754C255.819 56.309 255.728 56.716 255.546 57.0963C255.363 57.4767 255.009 57.9103 254.484 58.3971L252.647 60.1315H256.082Z" fill="black"/>
<path d="M257.347 53.6504H259.195V61.6376H257.347V53.6504Z" fill="black"/>
<path d="M262.745 55.1566H260.189V53.6504H267.15V55.1566H264.594V61.6376H262.745V55.1566Z" fill="black"/>
<path d="M277.302 61.7632L276.24 60.702C275.533 61.3866 274.643 61.7289 273.57 61.7289C273.038 61.7289 272.559 61.6414 272.133 61.4665C271.707 61.2915 271.372 61.0481 271.129 60.7362C270.893 60.4167 270.775 60.0554 270.775 59.6522C270.775 59.1654 270.923 58.7356 271.22 58.3629C271.524 57.9825 272.022 57.5946 272.715 57.199C272.365 56.8491 272.117 56.5334 271.973 56.252C271.828 55.9705 271.756 55.6776 271.756 55.3734C271.756 54.8333 271.95 54.3997 272.338 54.0726C272.734 53.7455 273.258 53.5819 273.913 53.5819C274.521 53.5819 275.004 53.7303 275.362 54.0269C275.719 54.3236 275.898 54.7306 275.898 55.2478C275.898 55.651 275.765 56.0123 275.499 56.3318C275.24 56.6513 274.806 56.986 274.198 57.3359L276.172 59.2985C276.4 58.8649 276.564 58.3819 276.663 57.8494L277.541 58.1347C277.404 58.8345 277.172 59.443 276.845 59.9603L277.918 61.0329L277.302 61.7632ZM273.913 54.3807C273.555 54.3807 273.274 54.4719 273.068 54.6545C272.871 54.8295 272.772 55.0615 272.772 55.3505C272.772 55.5559 272.825 55.7537 272.931 55.9439C273.045 56.134 273.262 56.3927 273.582 56.7198C274.107 56.4231 274.468 56.1683 274.666 55.9553C274.871 55.7423 274.974 55.5103 274.974 55.2592C274.974 54.993 274.879 54.78 274.689 54.6203C274.506 54.4605 274.247 54.3807 273.913 54.3807ZM273.639 60.8161C274.43 60.8161 275.08 60.5651 275.59 60.063L273.319 57.8038C272.772 58.108 272.387 58.3933 272.167 58.6595C271.954 58.9182 271.847 59.211 271.847 59.5381C271.847 59.9185 272.011 60.2266 272.338 60.4624C272.673 60.6982 273.106 60.8161 273.639 60.8161Z" fill="black"/>
<path d="M282.095 53.6504H283.944V61.6376H282.095V53.6504Z" fill="black"/>
<path d="M291.966 53.1712V61.6376H290.266V60.9302C289.825 61.4627 289.186 61.7289 288.349 61.7289C287.771 61.7289 287.246 61.5996 286.775 61.341C286.311 61.0823 285.946 60.7134 285.679 60.2342C285.413 59.7549 285.28 59.1996 285.28 58.5683C285.28 57.9369 285.413 57.3816 285.679 56.9023C285.946 56.4231 286.311 56.0542 286.775 55.7955C287.246 55.5369 287.771 55.4076 288.349 55.4076C289.133 55.4076 289.745 55.6548 290.186 56.1493V53.1712H291.966ZM288.657 60.2684C289.106 60.2684 289.479 60.1163 289.776 59.812C290.072 59.5001 290.221 59.0855 290.221 58.5683C290.221 58.051 290.072 57.6402 289.776 57.3359C289.479 57.0241 289.106 56.8681 288.657 56.8681C288.201 56.8681 287.825 57.0241 287.528 57.3359C287.231 57.6402 287.083 58.051 287.083 58.5683C287.083 59.0855 287.231 59.5001 287.528 59.812C287.825 60.1163 288.201 60.2684 288.657 60.2684Z" fill="black"/>
<path d="M299.627 58.5911C299.627 58.6139 299.616 58.7736 299.593 59.0703H294.949C295.033 59.4507 295.23 59.7511 295.542 59.9717C295.854 60.1923 296.242 60.3026 296.706 60.3026C297.026 60.3026 297.307 60.257 297.55 60.1657C297.801 60.0668 298.033 59.9147 298.246 59.7093L299.194 60.7362C298.615 61.398 297.771 61.7289 296.66 61.7289C295.968 61.7289 295.356 61.5958 294.823 61.3296C294.291 61.0557 293.88 60.6792 293.591 60.1999C293.302 59.7207 293.157 59.1768 293.157 58.5683C293.157 57.9673 293.298 57.4272 293.58 56.948C293.869 56.4611 294.26 56.0846 294.755 55.8184C295.257 55.5445 295.816 55.4076 296.432 55.4076C297.033 55.4076 297.577 55.5369 298.064 55.7955C298.551 56.0542 298.931 56.4269 299.205 56.9138C299.486 57.393 299.627 57.9521 299.627 58.5911ZM296.444 56.754C296.04 56.754 295.702 56.8681 295.428 57.0963C295.154 57.3245 294.987 57.6364 294.926 58.032H297.95C297.889 57.644 297.722 57.3359 297.448 57.1077C297.174 56.8719 296.839 56.754 296.444 56.754Z" fill="black"/>
<path d="M303.121 55.4076C304.072 55.4076 304.802 55.6358 305.312 56.0922C305.822 56.541 306.076 57.2218 306.076 58.1347V61.6376H304.41V60.8731C304.076 61.4437 303.452 61.7289 302.539 61.7289C302.068 61.7289 301.657 61.649 301.307 61.4893C300.965 61.3296 300.702 61.109 300.52 60.8275C300.337 60.546 300.246 60.2266 300.246 59.869C300.246 59.2985 300.459 58.8497 300.885 58.5226C301.318 58.1955 301.984 58.032 302.881 58.032H304.296C304.296 57.644 304.178 57.3473 303.943 57.142C303.707 56.929 303.353 56.8225 302.881 56.8225C302.554 56.8225 302.231 56.8757 301.912 56.9822C301.6 57.0811 301.333 57.218 301.113 57.393L300.474 56.1493C300.809 55.9134 301.208 55.7309 301.672 55.6016C302.144 55.4722 302.627 55.4076 303.121 55.4076ZM302.984 60.5308C303.288 60.5308 303.559 60.4624 303.794 60.3254C304.03 60.1809 304.197 59.9717 304.296 59.6979V59.0703H303.075C302.345 59.0703 301.98 59.3099 301.98 59.7892C301.98 60.0174 302.068 60.1999 302.243 60.3369C302.425 60.4662 302.672 60.5308 302.984 60.5308Z" fill="black"/>
<path d="M312.902 61.6376L311.362 59.4126H311.27H309.661V61.6376H307.813V53.6504H311.27C311.978 53.6504 312.59 53.7683 313.107 54.0041C313.632 54.2399 314.035 54.5746 314.317 55.0082C314.598 55.4418 314.739 55.9553 314.739 56.5486C314.739 57.142 314.594 57.6554 314.305 58.089C314.024 58.515 313.621 58.8421 313.096 59.0703L314.887 61.6376H312.902ZM312.868 56.5486C312.868 56.0998 312.723 55.7575 312.434 55.5217C312.145 55.2783 311.723 55.1566 311.168 55.1566H309.661V57.9407H311.168C311.723 57.9407 312.145 57.819 312.434 57.5756C312.723 57.3321 312.868 56.9898 312.868 56.5486Z" fill="black"/>
<path d="M319.98 61.6376L318.634 59.7549L317.242 61.6376H315.302L317.664 58.5454L315.382 55.4989H317.379L318.68 57.2903L320.015 55.4989H321.909L319.627 58.4998L322 61.6376H319.98Z" fill="black"/>
</g>
<defs>
<clipPath id="clip0_453_944">
<rect width="323" height="65" fill="white"/>
</clipPath>
</defs>
</svg>
