<svg width="49" height="56" viewBox="0 0 49 56" fill="none" xmlns="http://www.w3.org/2000/svg">
<path d="M0 42.4415C0.316771 41.2779 0.740795 40.1704 1.52399 39.2239C2.88461 37.5802 4.61313 36.56 6.69335 36.1223C7.94921 35.8579 9.21754 35.6434 10.4572 35.3179C11.2229 35.1171 11.9824 34.8165 12.6783 34.4399C13.8419 33.8088 14.9631 33.0967 16.078 32.3809C16.275 32.2537 16.3823 31.9506 16.4708 31.7062C16.5307 31.5403 16.4659 31.3358 16.4846 31.1512C16.6554 29.4988 16.4222 28.0334 15.1788 26.7314C14.2659 25.7761 13.8718 24.4466 13.5413 23.1484C13.4939 22.9601 13.2957 22.7106 13.1235 22.6695C11.2391 22.2118 10.113 20.9958 9.98203 19.2262C9.8623 17.5962 10.8899 16.1644 12.6334 15.5272C12.6895 15.5072 12.7394 15.4673 12.8392 15.4087C12.7369 15.254 12.6459 15.1056 12.5436 14.9647C10.4036 11.9903 10.5532 8.27136 12.919 5.49775C13.696 4.58609 14.6949 4.02613 15.7937 3.6071C16.0019 3.52728 16.2526 3.46243 16.391 3.30779C18.1008 1.38845 20.3669 0.575326 22.795 0.188716C26.6711 -0.427367 30.1943 0.46059 33.2946 2.91744C33.7024 3.24044 33.9593 3.60585 33.8222 4.14212C33.6413 4.8455 32.8245 5.07497 32.1722 4.56614C30.9326 3.59712 29.5832 2.84884 28.0654 2.4323C25.2631 1.66158 22.5394 1.85987 19.8057 3.17809C20.0501 3.26538 20.2048 3.32774 20.3631 3.37763C22.2488 3.97375 23.7528 5.0837 24.8615 6.72368C25.2968 7.36719 25.2419 7.96457 24.7368 8.31252C24.2305 8.66171 23.673 8.49086 23.2203 7.84609C21.5903 5.52892 19.0599 4.56489 16.6891 5.35931C13.1996 6.52912 11.8552 10.8891 14.1749 13.75C14.4892 13.2998 14.7935 12.867 15.094 12.4318C15.553 11.7658 16.0069 11.0986 16.4646 10.4326C17.1867 9.38006 17.6993 9.33392 18.5797 10.2393C19.7495 11.4416 21.1052 12.3245 22.7925 12.5814C25.4764 12.9893 27.6988 11.9778 29.6829 10.2743C29.7927 10.1795 29.8925 10.0735 30.001 9.97744C30.6457 9.41249 31.2531 9.48981 31.7095 10.2269C32.353 11.2657 32.9716 12.3195 33.6027 13.3659C33.7074 13.5392 33.8234 13.7064 33.9431 13.8897C35.2177 11.7496 35.4784 9.75669 34.5193 7.75505C34.1564 6.9968 34.2886 6.41314 34.866 6.15124C35.4422 5.89059 35.9647 6.15623 36.3239 6.91698C37.2867 8.95604 37.3403 11.0313 36.521 13.1264C36.2279 13.8772 35.8936 14.613 35.5594 15.3987C35.724 15.4636 35.8687 15.5247 36.0171 15.577C37.6022 16.132 38.6373 17.6722 38.4989 19.2723C38.3455 21.0407 37.1183 22.3901 35.3811 22.6383C35.0207 22.6894 34.8997 22.8254 34.8249 23.1534C34.3933 25.0552 33.4792 26.6989 32.166 28.1381C31.9552 28.3689 31.8105 28.738 31.7918 29.0523C31.7419 29.9203 31.7444 30.7945 31.7931 31.6625C31.8068 31.9144 31.9876 32.2512 32.1959 32.3834C33.5416 33.2377 34.9097 34.0595 36.2877 34.8614C36.5995 35.0435 36.9737 35.137 37.3316 35.2181C38.8868 35.566 40.4494 35.8766 42.0021 36.2333C45.1835 36.9641 47.7127 39.5244 48.1854 42.4901C48.2602 42.9565 48.2465 43.4404 48.2465 43.9156C48.2515 47.3577 48.239 50.7997 48.2614 54.2418C48.2652 54.8604 48.1492 55.3755 47.6416 55.7583H41.7951C41.3 55.449 40.957 55.0524 41.179 54.4276C41.3897 53.834 41.8911 53.7392 42.4461 53.7667C42.6942 53.7791 42.9437 53.7692 43.1918 53.7692C44.1995 53.7692 45.2072 53.7692 46.2348 53.7692C46.2473 53.5883 46.261 53.4885 46.261 53.3888C46.261 50.029 46.261 46.6705 46.2585 43.3107C46.2585 43.1249 46.2436 42.9366 46.2074 42.7545C45.6986 40.2478 43.9963 38.8909 41.6828 38.2262C40.2137 37.8046 38.6922 37.5689 37.2019 37.2172C36.7542 37.1112 36.5047 37.2347 36.2216 37.5914C34.4694 39.8001 32.691 41.9875 30.9139 44.175C30.3664 44.8484 29.8974 44.9021 29.204 44.4045C28.8723 44.1663 28.5481 43.9218 28.1939 43.6599C27.7324 44.5042 27.3221 45.2937 26.8707 46.0606C26.6786 46.3874 26.7011 46.6455 26.8607 46.9748C27.8821 49.0799 28.8898 51.1913 29.8812 53.3102C30.0446 53.6594 30.2392 53.7841 30.6295 53.7804C32.9928 53.7604 35.3561 53.7766 37.7194 53.7654C38.2707 53.7629 38.7795 53.8203 39.0065 54.4039C39.2459 55.0188 38.8992 55.4216 38.439 55.7608H0C0 53.8003 0 51.8536 0 49.9068C0.038661 49.8606 0.086052 49.8182 0.114736 49.7671C0.364162 49.3181 0.734559 49.0862 1.24464 49.2184C1.77591 49.3556 2.01287 49.7409 2.00289 50.2872C1.99665 50.6401 2.00289 50.9918 2.00289 51.3447C2.00289 52.1441 2.00289 52.9423 2.00289 53.7642C7.34684 53.7642 12.591 53.7679 17.8352 53.7492C17.9986 53.7492 18.233 53.5571 18.3116 53.395C19.3729 51.2175 20.418 49.0326 21.4469 46.8389C21.5292 46.6643 21.5429 46.3849 21.4594 46.219C21.0304 45.371 20.5589 44.5441 20.0788 43.6662C19.8194 43.8557 19.5887 44.0253 19.3567 44.1937C18.3079 44.9607 17.9487 44.9133 17.1443 43.9156C15.4133 41.7693 13.6735 39.6317 11.9512 37.4779C11.7268 37.1973 11.5297 37.1162 11.1705 37.1985C9.75879 37.524 8.31212 37.7223 6.9303 38.1389C5.93883 38.4382 4.94612 38.8896 4.10306 39.4858C2.67385 40.4984 1.92432 41.9439 1.99541 43.7572C2.02659 44.5641 2.00663 45.3747 1.99541 46.1829C1.98917 46.6505 1.7385 46.9636 1.29826 47.1057C0.845554 47.2529 0.488875 47.082 0.207024 46.7241C0.132196 46.6281 0.0685921 46.5233 0.00124713 46.4211C0.00124713 45.0941 0.00124713 43.7659 0.00124713 42.439L0 42.4415ZM17.6893 12.1686C16.8999 13.321 16.1354 14.4272 15.3871 15.5434C15.2911 15.6868 15.2399 15.8901 15.2412 16.0647C15.2437 17.8256 15.1813 19.5916 15.2911 21.3463C15.5642 25.7324 18.9925 29.1396 23.4872 29.5898C27.6302 30.0051 31.7183 27.1492 32.8207 23.0386C33.3932 20.9023 33.0801 18.7111 33.1325 16.5423C33.1337 16.4837 33.1125 16.4164 33.0826 16.364C32.247 14.9684 31.409 13.5742 30.5672 12.1724C26.504 15.4187 21.3371 15.5371 17.6905 12.1674L17.6893 12.1686ZM24.1232 37.9406C25.7782 36.3019 27.3358 34.6307 29.0369 33.1229C30.0646 32.2125 29.7266 31.1973 29.7615 30.0787C25.9478 32.0841 22.2338 32.0454 18.5411 30.0275C18.2617 31.8895 18.3478 32.1876 19.5837 33.4272C21.0877 34.9338 22.603 36.4303 24.1232 37.9393V37.9406ZM29.8101 42.3716C31.4564 40.3351 33.0814 38.3259 34.7438 36.2682C33.458 35.4912 32.2096 34.738 31.0436 34.0333C29.2377 35.813 27.4842 37.5415 25.6859 39.3137C27.0527 40.3263 28.4109 41.3328 29.8101 42.3704V42.3716ZM22.5793 39.3199C20.7622 37.5203 19.0162 35.7905 17.2391 34.0296C16.0468 34.7492 14.8097 35.4962 13.5264 36.2707C15.1838 38.321 16.8151 40.3376 18.4588 42.3716C19.8693 41.3265 21.2124 40.3313 22.5793 39.3199ZM27.8409 53.7405C27.8147 53.6444 27.806 53.5646 27.7736 53.496C26.8682 51.5942 25.9515 49.6973 25.0586 47.7879C24.7892 47.2117 24.3078 47.5248 23.9212 47.4562C23.6019 47.4001 23.3438 47.4612 23.1804 47.8291C22.719 48.8667 22.2139 49.8843 21.725 50.9107C21.2835 51.8373 20.842 52.7627 20.3756 53.7405H27.8422H27.8409ZM21.6951 42.4564C22.1041 43.2097 22.5419 43.8732 22.8362 44.594C23.1368 45.3323 23.6119 45.593 24.3552 45.457C24.5834 45.4159 24.9251 45.4159 25.0112 45.275C25.5612 44.3621 26.0538 43.4142 26.5763 42.4564C25.8019 41.8828 25.096 41.3452 24.3689 40.8389C24.2604 40.7641 24.0072 40.7691 23.8975 40.8451C23.1704 41.3515 22.4646 41.889 21.6976 42.4552L21.6951 42.4564ZM35.1741 20.6516C36.0982 20.3461 36.5546 19.7437 36.5097 18.9568C36.4661 18.1823 35.9884 17.6398 35.1741 17.4752V20.6529V20.6516ZM13.2121 17.4951C12.4152 17.6884 11.9475 18.2733 11.9475 19.0403C11.9475 19.8123 12.4339 20.4134 13.2121 20.5706V17.4951Z" fill="white"/>
</svg>
