<svg width="41" height="40" viewBox="0 0 41 40" fill="none" xmlns="http://www.w3.org/2000/svg">
<path d="M40.0689 18.4348C39.8146 18.8597 39.4335 18.9756 38.9506 18.974C34.9993 18.9615 31.048 18.967 27.0959 18.967C26.228 18.967 25.9869 18.7228 25.9869 17.8471C25.9869 16.663 25.9869 15.4782 25.9869 14.2941C25.9869 14.154 25.9869 14.0147 25.9869 13.8339C24.9218 13.8339 23.895 13.83 22.8691 13.8417C22.7963 13.8417 22.6922 13.9357 22.6585 14.0108C22.4879 14.3896 22.322 14.7715 22.1866 15.1636C22.1522 15.2637 22.1976 15.4335 22.2688 15.5204C22.4402 15.7317 22.6554 15.907 22.8401 16.1081C23.1727 16.4697 23.1915 16.879 22.8526 17.2233C21.8666 18.2266 20.8703 19.2205 19.8655 20.205C19.5415 20.522 19.1189 20.5016 18.773 20.2027C18.7628 20.1941 18.7542 20.1847 18.7448 20.1753C18.4889 19.9374 18.2181 19.4897 17.9802 19.5062C17.5122 19.539 17.0591 19.8223 16.6091 20.0227C16.5465 20.0501 16.5105 20.1925 16.5058 20.2841C16.4917 20.5564 16.5105 20.8311 16.4972 21.1034C16.4729 21.6027 16.1857 21.9197 15.6864 21.9259C14.291 21.9424 12.8957 21.9432 11.5003 21.9244C11.0034 21.9173 10.6669 21.58 10.7295 21.087C10.8281 20.3099 10.5941 19.8388 9.78878 19.6924C9.59079 19.6564 9.40922 19.532 9.15879 19.4209C8.94671 19.6525 8.73776 19.9022 8.50611 20.1299C8.09916 20.5306 7.67265 20.54 7.27196 20.1448C6.30702 19.1939 5.34756 18.2368 4.39514 17.2726C4.0148 16.8876 3.98272 16.4071 4.41001 16.0792C5.04861 15.5893 5.11748 15.1111 4.7207 14.4224C4.40923 13.8832 4.47419 13.8457 3.83324 13.8449C3.70255 13.8449 3.57186 13.848 3.44195 13.8425C2.94735 13.8214 2.63509 13.5616 2.62883 13.0779C2.61005 11.6724 2.61083 10.2669 2.62726 8.86132C2.63274 8.37689 2.94891 8.02238 3.42316 8.09359C4.31063 8.22663 4.67688 7.82829 4.92496 7.04648C5.04783 6.66066 5.05957 6.43527 4.7434 6.1958C4.5994 6.08702 4.47731 5.94615 4.35601 5.80998C4.04062 5.45781 4.02811 5.0266 4.35993 4.69009C5.33817 3.69776 6.32424 2.71169 7.32048 1.73658C7.66952 1.39458 8.1422 1.36171 8.4255 1.74284C8.94984 2.44874 9.47653 2.47378 10.22 2.07779C10.605 1.87197 10.7662 1.70762 10.7209 1.28659C10.6645 0.767725 10.6896 0.259821 11.2695 0H15.965C16.354 0.236344 16.5214 0.569729 16.5089 1.03459C16.487 1.83988 16.505 1.84066 17.2438 2.14822C17.7566 2.36213 18.2142 2.27109 18.6164 1.8751C19.1439 1.35467 19.5094 1.35702 20.0462 1.89075C20.9329 2.77195 21.818 3.65472 22.7016 4.53905C23.2322 5.06965 23.2298 5.43434 22.7008 5.96728C22.309 6.36171 22.2169 6.80805 22.4246 7.3063C22.4848 7.4503 22.5646 7.59195 22.5905 7.74221C22.6445 8.05759 22.8284 8.10611 23.1156 8.10377C24.7183 8.09124 26.3219 8.09829 27.9254 8.09672C28.0498 8.09672 28.1743 8.0842 28.3198 8.07638C28.1273 7.72655 27.934 7.42056 27.7845 7.09422C27.3267 6.09798 27.3745 5.03913 27.4566 3.98732C27.5905 2.28205 28.8317 0.78729 30.461 0.320081C32.1757 -0.171388 33.9733 0.415558 35.0494 1.78666C36.0738 3.09125 36.0644 4.60087 35.8562 6.1058C35.7607 6.79918 35.3741 7.45265 35.112 8.14446C35.0447 8.09985 35.0533 8.11003 35.0642 8.11237C35.1918 8.13663 35.3201 8.15776 35.4477 8.18359C37.7251 8.65002 39.1893 10.0078 39.8733 12.2147C39.957 12.4855 40.0047 12.7672 40.0697 13.0443V18.434L40.0689 18.4348ZM14.9375 20.3584C14.9375 20.0516 14.9398 19.7809 14.9375 19.5109C14.9328 19.0898 15.1496 18.8457 15.5338 18.6954C16.2702 18.4066 17.0035 18.1077 17.7282 17.7892C18.1132 17.6193 18.4357 17.6647 18.7268 17.9543C18.9185 18.1452 19.1017 18.3448 19.2637 18.5146C19.9156 17.8651 20.5283 17.2531 21.1763 16.6067C21.0644 16.5073 20.9228 16.3914 20.7936 16.2639C20.2325 15.7082 20.2122 15.5196 20.5815 14.8341C20.749 14.5234 20.8875 14.1978 21.0339 13.8903C20.0447 13.8237 19.1173 13.7611 18.1422 13.6954C16.3414 16.6145 12.531 16.994 10.1754 14.9624C7.85029 12.9574 7.69221 9.45374 9.83652 7.28439C10.9165 6.19189 12.2407 5.6472 13.7816 5.70903C15.7279 5.78729 17.1796 6.73344 18.1297 8.23368C19.1463 8.16716 20.0697 8.10611 21.055 8.04116C20.857 7.64908 20.6755 7.27969 20.4845 6.91579C20.2505 6.46893 20.2787 6.18406 20.6371 5.8272C20.8195 5.64564 21.0292 5.49147 21.1834 5.36234C20.5041 4.68539 19.8913 4.0734 19.2245 3.40898C19.0711 3.5835 18.9005 3.79793 18.7088 3.99045C18.4138 4.28549 18.078 4.29331 17.7032 4.12897C16.9902 3.8175 16.271 3.51854 15.5471 3.2329C15.1229 3.06542 14.9484 2.85412 14.9398 2.38926C14.9351 2.12161 14.939 1.85397 14.939 1.58554H12.2806C12.2806 1.87744 12.2868 2.14744 12.279 2.41743C12.2673 2.82595 12.0653 3.08029 11.6741 3.23055C10.9353 3.51385 10.2075 3.8261 9.48044 4.13914C9.10244 4.30192 8.76593 4.2761 8.48185 3.97088C8.29637 3.77211 8.13595 3.55063 8.00056 3.38316C7.30405 4.07966 6.69127 4.69244 6.05815 5.32477C6.20528 5.46642 6.38841 5.6339 6.56058 5.80998C6.93153 6.18954 6.94248 6.45014 6.72179 6.93613C6.41658 7.60838 6.1372 8.29315 5.87425 8.98262C5.70286 9.43261 5.4986 9.6173 5.01809 9.63139C4.75044 9.63922 4.48279 9.63295 4.2128 9.63295V12.2836C4.37167 12.2836 4.50079 12.2836 4.62914 12.2836C4.75983 12.2836 4.89052 12.2797 5.02043 12.2852C5.47434 12.3047 5.70364 12.4973 5.86407 12.9081C6.14737 13.632 6.43928 14.3528 6.75858 15.0618C6.93075 15.4445 6.90101 15.7677 6.61458 16.062C6.41736 16.2639 6.20216 16.4486 6.01433 16.6231C6.67171 17.2789 7.27822 17.8854 7.97394 18.5796C8.11481 18.4011 8.25176 18.1922 8.42315 18.0169C8.8168 17.6146 9.07349 17.6068 9.57748 17.8361C10.238 18.1374 10.9118 18.4129 11.5919 18.6672C12.0755 18.848 12.2712 19.0671 12.2798 19.5797C12.2845 19.8341 12.2798 20.0892 12.2798 20.3568H14.9375V20.3584ZM27.5521 17.372H34.7426C34.7426 16.3241 34.7395 15.3091 34.7442 14.2949C34.7465 13.7486 35.0478 13.4215 35.5275 13.4246C36.001 13.4278 36.2992 13.7596 36.3062 14.3066C36.3125 14.827 36.3078 15.3475 36.3078 15.8679C36.3078 16.3703 36.3078 16.872 36.3078 17.3736H38.4943C38.4943 16.015 38.5069 14.6877 38.4857 13.362C38.4803 13.0435 38.3942 12.7172 38.2932 12.4112C37.7243 10.6863 36.2287 9.66348 34.2746 9.66191C29.3983 9.658 24.5219 9.66035 19.6463 9.66191C19.5164 9.66191 19.385 9.66269 19.2558 9.67678C18.7221 9.73391 18.2807 10.1236 18.1539 10.6425C17.945 11.4947 18.5507 12.264 19.4601 12.268C21.8196 12.2766 24.1799 12.2711 26.5394 12.2719C27.2923 12.2719 27.5521 12.5301 27.5529 13.2783C27.5545 14.6306 27.5529 15.9837 27.5529 17.372H27.5521ZM13.5679 7.24996C13.3825 7.27343 13.1485 7.29143 12.9192 7.33291C11.2068 7.6436 9.97817 9.08123 9.89365 10.8663C9.81617 12.4957 10.9697 14.0703 12.5733 14.5234C14.2308 14.9922 15.9893 14.2737 16.8329 12.7899C16.9354 12.6099 16.9699 12.4699 16.8619 12.2586C16.4275 11.4047 16.426 10.529 16.8619 9.67521C16.9691 9.4647 16.9425 9.32226 16.8345 9.14383C16.1051 7.93003 15.0236 7.32117 13.5679 7.25152V7.24996ZM34.4123 4.91078C34.3982 4.90921 34.3834 4.90765 34.3693 4.90608C34.3693 4.71122 34.3748 4.51557 34.3685 4.3207C34.3223 2.9136 33.2212 1.77336 31.8572 1.71545C30.3796 1.65362 29.1643 2.65143 29.021 4.09375C28.9663 4.64626 28.9717 5.21364 29.0296 5.76616C29.1635 7.03474 30.2059 7.97855 31.5292 8.08655C32.7415 8.18594 33.9506 7.34543 34.2636 6.14258C34.3669 5.74581 34.3654 5.32242 34.4116 4.91078H34.4123Z" fill="white"/>
<path d="M0 35.6182C0.0688683 35.3576 0.124427 35.0923 0.20973 34.8364C0.813893 33.0137 2.0637 31.9032 3.93723 31.4846C3.99827 31.4705 4.06009 31.4603 4.03505 31.465C3.85036 30.7888 3.58349 30.133 3.5068 29.4553C3.37689 28.3049 3.46767 27.1693 4.21974 26.184C5.17686 24.9311 6.80152 24.3935 8.30176 24.8622C9.78712 25.3255 10.8209 26.6708 10.8929 28.2313C10.9446 29.3449 10.9344 30.4453 10.1917 31.4321C11.6489 31.6826 12.7539 32.3759 13.5991 33.5764C14.4326 32.3978 15.5439 31.6755 17.005 31.4368C16.2052 30.306 16.1934 29.0656 16.3578 27.8103C16.5949 25.9962 18.3174 24.6087 20.1737 24.6971C22.0832 24.7879 23.65 26.3398 23.7157 28.2055C23.7549 29.3183 23.776 30.4273 23.0083 31.4274C24.4686 31.6833 25.5947 32.3814 26.4219 33.5796C27.257 32.3924 28.3643 31.6794 29.712 31.4564C29.5226 30.8741 29.2424 30.3122 29.1689 29.7245C28.9967 28.3432 29.0702 26.9909 30.1134 25.8851C31.1598 24.7762 32.7375 24.4005 34.1642 24.9444C35.5579 25.4758 36.5025 26.8195 36.5464 28.3127C36.5785 29.4021 36.5612 30.4781 35.8686 31.3773C36.4047 31.5738 36.9283 31.7013 37.3892 31.9455C38.999 32.7962 39.9021 34.1446 39.9976 35.9696C40.0524 37.0214 40.025 38.0779 40.0172 39.1313C40.0125 39.7081 39.7159 39.9914 39.1368 39.9914C33.9857 39.9937 28.8339 39.9937 23.6829 39.9914C23.1491 39.9914 22.7907 39.676 22.7837 39.2213C22.7766 38.7541 23.1444 38.4348 23.7024 38.4316C24.3277 38.4277 24.953 38.4309 25.5767 38.4309C25.6026 38.3823 25.6354 38.3495 25.6354 38.3174C25.6284 37.4855 25.6714 36.6481 25.5955 35.8217C25.4492 34.2338 24.0836 32.9934 22.4863 32.9707C20.8303 32.9472 19.1736 32.9441 17.5176 32.9723C15.8413 33.0004 14.442 34.4083 14.399 36.076C14.3794 36.8422 14.3958 37.6091 14.3958 38.4309C14.9804 38.4309 15.5486 38.4309 16.1175 38.4309C16.2873 38.4309 16.4587 38.4199 16.6254 38.4418C17.012 38.4927 17.2875 38.8073 17.2985 39.1861C17.3094 39.5821 17.0347 39.9178 16.6364 39.9796C16.5088 39.9992 16.3766 39.9914 16.2459 39.9914C11.1856 39.9914 6.12537 39.9867 1.06589 40C0.58538 40.0015 0.23164 39.8693 0.00155716 39.4451C0.00155716 38.1695 0.00155716 36.8939 0.00155716 35.6182H0ZM12.8087 38.4129C12.8087 37.5614 12.8713 36.7389 12.7962 35.9289C12.6334 34.1814 11.2607 32.9723 9.50695 32.9644C7.94333 32.9566 6.38049 32.9543 4.81686 32.966C3.22037 32.9777 1.85865 34.0742 1.64579 35.6456C1.5237 36.5464 1.62388 37.4777 1.62388 38.4129H12.8087ZM38.4434 38.4097C38.4434 37.5998 38.4755 36.8078 38.4363 36.0205C38.3518 34.3097 36.9557 32.9832 35.2347 32.9668C33.632 32.9519 32.0284 32.9527 30.4257 32.9668C28.9161 32.9801 27.5794 34.0037 27.3188 35.4883C27.1529 36.4345 27.2147 37.4205 27.1732 38.4097H38.4434ZM35.0086 28.8605C34.9992 28.8597 34.9898 28.859 34.9804 28.8582C34.9804 28.6891 34.9843 28.5201 34.9804 28.3511C34.9483 27.2617 34.1258 26.3828 33.0286 26.2631C31.987 26.1496 30.9571 26.8719 30.756 27.9292C30.662 28.4207 30.6636 28.9403 30.6973 29.4428C30.7661 30.4805 31.6278 31.3124 32.6569 31.3953C33.7118 31.4799 34.6744 30.7888 34.9139 29.7495C34.9804 29.4616 34.9796 29.1579 35.0101 28.8621L35.0086 28.8605ZM22.1771 28.8261C22.1693 28.8261 22.1615 28.8253 22.1537 28.8245C22.1537 28.6555 22.1592 28.4864 22.1529 28.3174C22.1138 27.2194 21.242 26.3296 20.1354 26.2568C19.0789 26.188 18.0795 26.9393 17.9206 27.9973C17.8424 28.5177 17.8385 29.0656 17.9081 29.5868C18.0458 30.6268 18.9247 31.3711 19.9468 31.3977C20.9782 31.4251 21.8774 30.7364 22.1028 29.7159C22.1662 29.4271 22.1545 29.1227 22.1771 28.8253V28.8261ZM9.37312 28.8511C9.35904 28.8496 9.34496 28.848 9.33087 28.8464C9.33087 28.6641 9.33869 28.4817 9.3293 28.3002C9.27061 27.1717 8.38079 26.2936 7.26012 26.2545C6.14805 26.2154 5.18233 27.0402 5.06964 28.1664C5.02503 28.6164 5.02817 29.0781 5.07512 29.5281C5.17921 30.5251 5.99153 31.2952 6.98699 31.3914C7.99106 31.4893 8.95209 30.8624 9.23226 29.8881C9.32774 29.5562 9.32852 29.1978 9.37312 28.8511Z" fill="white"/>
<path d="M20.0588 39.9891C19.6307 39.9969 19.259 39.6314 19.2621 39.2049C19.2652 38.7925 19.6158 38.4403 20.0306 38.4325C20.4509 38.4247 20.8038 38.7581 20.8195 39.1768C20.8359 39.6158 20.4947 39.9805 20.0588 39.9883V39.9891Z" fill="white"/>
</svg>
